<?xml version="1.0" encoding="UTF-8" standalone="no"?>
<svg
   xmlns:dc="http://purl.org/dc/elements/1.1/"
   xmlns:cc="http://creativecommons.org/ns#"
   xmlns:rdf="http://www.w3.org/1999/02/22-rdf-syntax-ns#"
   xmlns:svg="http://www.w3.org/2000/svg"
   xmlns="http://www.w3.org/2000/svg"
   xmlns:sodipodi="http://sodipodi.sourceforge.net/DTD/sodipodi-0.dtd"
   xmlns:inkscape="http://www.inkscape.org/namespaces/inkscape"
   width="210mm"
   height="297mm"
   viewBox="0 0 210 297"
   version="1.1"
   id="svg8"
   inkscape:version="1.0.1 (3bc2e813f5, 2020-09-07)"
   sodipodi:docname="tigerh2.svg">
  <defs
     id="defs2" />
  <sodipodi:namedview
     id="base"
     pagecolor="#ffffff"
     bordercolor="#666666"
     borderopacity="1.0"
     inkscape:pageopacity="0.0"
     inkscape:pageshadow="2"
     inkscape:zoom="0.7"
     inkscape:cx="324.83094"
     inkscape:cy="692.23291"
     inkscape:document-units="mm"
     inkscape:current-layer="layer3"
     inkscape:document-rotation="0"
     showgrid="false"
     inkscape:window-width="1920"
     inkscape:window-height="1057"
     inkscape:window-x="-8"
     inkscape:window-y="-8"
     inkscape:window-maximized="1" />
  <metadata
     id="metadata5">
    <rdf:RDF>
      <cc:Work
         rdf:about="">
        <dc:format>image/svg+xml</dc:format>
        <dc:type
           rdf:resource="http://purl.org/dc/dcmitype/StillImage" />
        <dc:title></dc:title>
      </cc:Work>
    </rdf:RDF>
  </metadata>
  <g
     inkscape:label="레이어 1"
     inkscape:groupmode="layer"
     id="layer1"
     style="display:none">
    <g
       aria-label="H2"
       transform="scale(0.99237972,1.0076788)"
       id="text855-9"
       style="font-style:normal;font-weight:normal;font-size:106.992px;line-height:1.25;font-family:sans-serif;display:inline;fill:#82d7d8;fill-opacity:1;stroke:none;stroke-width:2.67481">
      <path
         d="m 62.963253,109.02085 v 18.80719 h -5.903367 v 27.00921 H 35.849558 V 83.526666 H 57.059886 V 109.02085 Z M 87.778291,83.526666 V 154.83725 H 66.567964 V 83.526666 Z"
         style="font-style:normal;font-variant:normal;font-weight:normal;font-stretch:normal;font-family:'Bauhaus 93';-inkscape-font-specification:'Bauhaus 93, ';fill:#82d7d8;fill-opacity:1;stroke-width:2.67481"
         id="path153647" />
      <path
         d="m 150.52116,134.20159 v 20.63566 h -46.07761 l 22.88208,-42.94308 0.78363,-1.46278 q 0.94036,-1.72399 0.94036,-3.39574 0,-4.23162 -4.96301,-4.23162 -1.93296,0 -3.39574,1.46278 -1.41054,1.41054 -1.41054,3.3435 0,2.19418 1.88072,3.97041 l -9.14238,16.29956 q -5.74665,-3.55247 -8.82893,-9.0379 -3.08229,-5.48543 -3.08229,-12.12018 0,-10.291714 7.26166,-17.60562 7.26166,-7.366148 17.55338,-7.366148 10.34395,0 17.55337,7.261663 7.26166,7.261664 7.26166,17.657855 0,5.95561 -2.66435,11.07535 l -8.46323,16.45629 z"
         style="font-style:normal;font-variant:normal;font-weight:normal;font-stretch:normal;font-family:'Bauhaus 93';-inkscape-font-specification:'Bauhaus 93, ';fill:#82d7d8;fill-opacity:1;stroke-width:2.67481"
         id="path153649" />
    </g>
    <text
       xml:space="preserve"
       style="font-style:normal;font-weight:normal;font-size:106.992px;line-height:1.25;font-family:sans-serif;display:inline;fill:#82d7d8;fill-opacity:1;stroke:none;stroke-width:2.6748"
       x="37.185757"
       y="311.38342"
       id="text855"
       transform="scale(0.99237973,1.0076788)"><tspan
         sodipodi:role="line"
         id="tspan853"
         x="37.185757"
         y="311.38342"
         style="font-style:normal;font-variant:normal;font-weight:normal;font-stretch:normal;font-family:'Bauhaus 93';-inkscape-font-specification:'Bauhaus 93, ';fill:#82d7d8;fill-opacity:1;stroke-width:2.6748">H2</tspan></text>
    <path
       style="display:inline;fill:#f0f4f5;fill-opacity:1;stroke-width:0.352778"
       d="m 149.15384,300.9911 v -5.64444 h -2.58941 c -3.14884,0 -7.46687,-1.05232 -9.30241,-2.26702 -2.43704,-1.61275 -2.7228,-2.4729 -2.93868,-8.8455 -0.21453,-6.33288 -0.61496,-7.73738 -2.93955,-10.31042 l -1.26899,-1.40462 3.25771,-0.20615 c 8.0902,-0.51194 11.88152,-3.90676 11.47295,-10.27312 -0.29803,-4.64386 -2.40567,-7.73243 -6.61164,-9.68877 -1.61892,-0.75301 -2.4736,-0.9101 -4.95498,-0.91068 -2.96539,-7.1e-4 -3.08266,0.0338 -10.58334,3.11751 -10.99453,4.52006 -14.13694,5.23169 -16.93334,3.83473 -1.54171,-0.77017 -2.33835,-2.7429 -1.68591,-4.17485 0.46638,-1.0236 2.30925,-2.08304 4.25996,-2.44899 l 1.30651,-0.2451 v -1.90102 c 0,-1.84985 -0.0268,-1.90102 -0.9943,-1.90102 -1.64338,0 -4.4426,0.98467 -5.99395,2.10846 -3.447148,2.49711 -3.841458,7.11703 -0.90067,10.55269 1.61879,1.8912 3.53341,2.59371 7.05278,2.58781 3.43681,-0.006 5.47905,-0.56056 11.59587,-3.1502 7.85323,-3.32478 10.93344,-4.33765 13.19118,-4.33765 4.20818,0 7.15305,2.86098 7.23085,7.02488 0.0464,2.48248 -0.67123,3.70834 -2.80591,4.79318 -1.24793,0.6342 -2.21911,0.71686 -9.60237,0.81731 l -8.21403,0.11176 1.75607,1.57886 c 1.26161,1.1343 1.97002,2.14582 2.5159,3.59241 1.07556,2.85021 0.79886,4.97953 -1.12487,8.65625 -1.37841,2.63449 -1.50916,3.1098 -1.52075,5.52814 -0.0113,2.35942 0.11896,2.88888 1.20334,4.89099 1.36164,2.51405 3.58849,4.9795 5.29435,5.86163 2.0371,1.05343 5.65227,1.58213 10.86165,1.58848 l 5.02709,0.006 v 3.35139 3.35138 h 2.46944 2.46945 z m -6.35,3.88056 v -1.76389 h -1.41111 -1.41112 v 1.76389 1.76388 h 1.41112 1.41111 z m -26.72743,-0.91885 c 1.21515,-1.4755 2.26535,-2.83406 2.33377,-3.01902 0.0684,-0.18496 -0.16001,-0.65056 -0.50762,-1.03466 -0.89987,-0.99435 -1.12804,-4.60705 -0.36456,-5.77228 0.31427,-0.47962 0.57139,-0.957 0.57139,-1.06084 0,-0.24409 -10.40643,-0.24812 -10.65043,-0.004 -0.10157,0.10157 -0.10953,0.57783 -0.0177,1.05833 0.15976,0.83574 0.2801,0.87367 2.77173,0.87367 2.36952,0 2.60471,0.0637 2.60471,0.70555 0,0.62672 -0.23519,0.70556 -2.10477,0.70556 h -2.10477 l 0.7285,1.23472 c 0.65712,1.11374 0.88065,1.23472 2.28116,1.23472 1.31747,0 1.55266,0.10688 1.55266,0.70556 0,0.56634 -0.23519,0.70555 -1.19193,0.70555 -0.99842,0 -1.26492,0.17625 -1.64162,1.08566 -0.24733,0.59712 -0.81877,1.3275 -1.26988,1.62307 -0.54861,0.35947 -0.77299,0.78845 -0.67765,1.29559 0.0784,0.417 0.15433,1.11537 0.16875,1.55193 0.0248,0.75014 0.17134,0.79375 2.66754,0.79375 h 2.64132 z m -8.90314,0.93817 v -1.78321 h -1.7488 -1.74879 l 0.0803,1.67569 0.0803,1.6757 1.66845,0.10752 1.66847,0.10752 z m -13.674218,-5.36483 2.6294,-7.1094 -0.68789,-1.79824 c -0.88025,-2.30112 -0.71536,-6.07194 0.35631,-8.14825 0.40059,-0.77612 1.17947,-2.28388 1.73084,-3.3506 0.78306,-1.51494 1.0025,-2.41514 1.0025,-4.1124 0,-3.39306 -1.51757,-4.98547 -7.49653,-7.86627 l -2.91042,-1.4023 v 4.17249 c 0,5.33541 -0.36691,7.18397 -2.20733,11.12097 -1.39645,2.98726 -1.49625,3.40309 -1.48815,6.20062 0.007,2.41689 0.16853,3.32368 0.8326,4.6743 l 0.82392,1.6757 h 2.60698 c 2.3718,0 2.60698,0.0636 2.60698,0.70555 0,0.63891 -0.23518,0.70556 -2.48972,0.70556 h -2.48973 l 0.10848,1.4993 c 0.10795,1.49202 0.11576,1.49983 1.60778,1.60779 1.2121,0.0877 1.49931,0.23975 1.49931,0.79375 0,0.56429 -0.24911,0.68527 -1.41112,0.68527 h -1.41111 v 1.76389 c 0,1.33271 -0.12935,1.76389 -0.52916,1.76389 -0.39982,0 -0.52917,0.43117 -0.52917,1.76389 v 1.76388 h 2.60791 2.60791 z m -9.25634,5.34551 v -1.76389 h -1.41111 -1.41111 v 1.76389 1.76388 h 1.41111 1.41111 z m -11.19637,-5.55149 8.3828,-7.26963 -1.8194,-0.99494 c -2.55385,-1.39658 -4.08282,-2.58048 -6.17462,-4.78107 l -1.81176,-1.906 -1.27505,2.03845 c -0.70127,1.12114 -1.27505,2.16201 -1.27505,2.31304 0,0.57007 2.52009,3.03424 3.53159,3.45321 1.09823,0.4549 1.3163,0.85334 0.6817,1.24554 -0.72366,0.44724 -2.05824,-0.20611 -3.62847,-1.77633 l -1.58826,-1.58826 -1.24087,1.98378 -1.24086,1.98378 0.72624,0.9823 c 0.39944,0.54026 1.2557,1.26743 1.90282,1.61592 0.8982,0.48371 1.08671,0.7419 0.79676,1.09127 -0.61781,0.74442 -1.23756,0.53802 -2.77447,-0.924 l -1.45242,-1.38166 -1.03606,1.6337 c -0.56983,0.89853 -0.98397,1.79809 -0.92031,1.99901 0.0637,0.20093 0.70504,0.75202 1.4253,1.22465 1.17004,0.76779 1.25259,0.9163 0.77489,1.39401 -0.47771,0.47771 -0.70176,0.41689 -2.10306,-0.57083 l -1.56838,-1.1055 -0.90557,1.18726 c -0.74226,0.97316 -0.90557,1.57322 -0.90557,3.32747 v 2.1402 l 2.55764,-0.0229 2.55764,-0.0229 8.3828,-7.26963 z m -14.90919,5.55149 v -1.76389 h -1.56344 c -1.50141,0 -1.55835,0.0385 -1.43541,0.97014 0.0704,0.53357 0.13895,1.32732 0.15232,1.76388 0.021,0.68681 0.21443,0.79375 1.43542,0.79375 h 1.41111 z m 55.138958,-14.0409 c 1.57601,-0.10267 1.6736,-0.16381 1.41111,-0.88401 -0.1551,-0.42554 -0.26659,-1.81889 -0.24777,-3.09632 0.0294,-1.99187 0.24403,-2.73438 1.50751,-5.21411 1.79119,-3.5154 2.10213,-5.33539 1.31595,-7.70236 -0.98738,-2.97272 -3.59852,-4.97765 -7.26741,-5.58021 l -1.5875,-0.26072 1.62403,1.7384 c 2.05402,2.19868 3.2899,5.28407 2.9703,7.41536 -0.1224,0.81618 -0.88103,2.8016 -1.68586,4.41205 -1.17216,2.34548 -1.48705,3.38434 -1.58263,5.22115 -0.12613,2.42395 0.3799,3.96794 1.32,4.02753 0.29104,0.0185 1.29106,-0.0161 2.22227,-0.0768 z m -4.57975,-0.51119 c -0.1586,-0.43656 -0.28836,-1.905 -0.28836,-3.26319 0,-2.18236 0.17086,-2.81807 1.46964,-5.46807 1.8857,-3.84756 2.11668,-5.10785 1.35592,-7.39829 -1.07877,-3.24786 -3.28402,-5.09752 -6.75002,-5.66163 -1.11613,-0.18166 -2.09173,-0.26788 -2.168,-0.19161 -0.0763,0.0763 0.50236,0.79922 1.28584,1.60655 1.86914,1.92602 3.00188,4.88072 2.74018,7.14764 -0.10644,0.92195 -0.83597,2.99128 -1.62118,4.59851 -1.23227,2.52229 -1.42767,3.24331 -1.42767,5.26813 0,1.29024 0.15482,2.7531 0.34405,3.2508 0.32468,0.85396 0.48492,0.90491 2.846,0.90491 2.44487,0 2.49538,-0.0181 2.2136,-0.79375 z m -6.71984,-0.17639 c -0.14922,-0.53357 -0.26004,-2.00719 -0.24627,-3.27471 0.0215,-1.97919 0.23215,-2.71107 1.49195,-5.18358 1.73057,-3.39642 2.08869,-5.1603 1.48528,-7.31548 -0.4983,-1.77973 -2.39334,-4.18098 -3.92445,-4.97274 -1.070798,-0.55373 -4.193088,-1.25609 -4.193088,-0.94324 0,0.0988 0.625,0.85764 1.3889,1.68637 1.81313,1.96702 2.365088,3.91539 1.83725,6.48543 -0.21644,1.05384 -0.69591,2.48259 -1.06549,3.175 -2.39891,4.49439 -2.53891,4.86658 -2.56214,6.81119 -0.013,1.08849 0.1637,2.54671 0.39267,3.24049 l 0.4163,1.26141 h 2.6252 2.625188 z m 18.42593,-2.29436 c 0,-2.77043 0.0815,-3.07431 1.67981,-6.26182 1.92151,-3.8321 2.1154,-5.51192 0.93638,-8.11258 -1.28752,-2.83997 -3.39429,-4.39196 -6.54884,-4.82434 l -1.64185,-0.22504 1.44898,1.49308 c 1.89425,1.9519 3.02784,4.89298 2.76464,7.17285 -0.10644,0.92195 -0.8609,3.0423 -1.67658,4.7119 -1.62908,3.33453 -2.0502,5.66879 -1.38584,7.68182 0.41799,1.26652 0.43571,1.27585 2.42218,1.27585 h 2.00112 z m -37.495098,-0.21094 c -0.15288,-2.64095 -0.0939,-2.91744 1.26688,-5.93956 1.83814,-4.08227 2.53792,-7.54074 2.53792,-12.54303 v -3.9961 l -2.29973,-1.13405 c -1.26486,-0.62373 -2.36518,-1.13405 -2.44517,-1.13405 -0.08,0 -0.19605,2.5018 -0.25791,5.55955 -0.1233,6.09485 0.15698,5.05593 -2.96556,10.99259 -1.06827,2.03102 -1.48245,5.34728 -0.89148,7.13793 0.31262,0.94723 0.89319,1.50305 2.63314,2.52088 1.22765,0.71815 2.31089,1.30573 2.40718,1.30573 0.0963,0 0.10292,-1.24645 0.0148,-2.76989 z m -6.69426,-4.06946 c 0.15688,-1.95442 0.52482,-3.06195 1.9872,-5.98167 2.21593,-4.42422 2.49516,-5.65356 2.50602,-11.0326 l 0.009,-4.27445 -2.38125,-1.06543 -2.38125,-1.06544 -0.17639,5.16349 -0.17639,5.16349 -1.71298,3.12131 c -1.46281,2.66547 -1.71563,3.41251 -1.73114,5.11528 -0.0208,2.28543 0.48281,3.44326 2.47353,5.68651 l 1.39149,1.56803 z m -5.37594,-6.62234 c 0,-0.3025 0.49094,-1.48519 1.09097,-2.6282 2.65269,-5.05311 2.43681,-3.93294 2.43681,-12.64447 v -7.95454 l -6.96736,1e-4 -6.96737,1.1e-4 -4.58611,2.93556 -4.58611,2.93556 -0.10744,1.85031 c -0.10327,1.77829 -0.0346,1.93782 1.76388,4.09908 1.02924,1.23683 1.9904,2.25814 2.13592,2.26958 0.14552,0.0114 0.26459,-0.77294 0.26459,-1.74308 v -1.76389 l 2.73402,-8.1e-4 2.73403,-8.1e-4 -0.11292,3.16377 -0.11292,3.16378 -1.37534,-0.11661 c -0.75644,-0.0641 -1.45233,-0.0396 -1.54644,0.0545 -0.0941,0.0941 0.5662,1.02512 1.46735,2.06892 1.62436,1.88149 1.65574,1.89781 3.64857,1.89781 1.99764,0 2.01149,-0.007 2.23007,-1.17243 0.12098,-0.64484 0.70931,-1.94408 1.30742,-2.88719 1.74416,-2.75025 1.86171,-3.25255 2.06346,-8.81676 l 0.19187,-5.29167 1.32291,-0.10949 c 1.31358,-0.10872 1.32292,-0.10013 1.32292,1.21708 0,1.03178 -0.0941,1.2325 -0.42333,0.90324 -0.23284,-0.23283 -0.53476,-0.42333 -0.67095,-0.42333 -0.13618,0 -0.30287,2.10344 -0.37041,4.6743 l -0.12281,4.67431 -1.52387,2.76217 -1.52387,2.76216 1.85013,2.00034 c 1.01757,1.10018 1.98112,2.15114 2.14123,2.33547 0.17178,0.19777 0.2911,0.1097 0.2911,-0.21487 z m -12.7,-17.40638 c 0,-1.17593 0.0588,-1.23472 1.23472,-1.23472 1.17593,0 1.23472,0.0588 1.23472,1.23472 0,1.17592 -0.0588,1.23472 -1.23472,1.23472 -1.17592,0 -1.23472,-0.0588 -1.23472,-1.23472 z m 61.736128,-9.70139 v -2.11667 h -1.41111 -1.41111 v 2.11667 2.11667 h 1.41111 1.41111 z m -5.19434,1.85208 c 0.0764,-0.14552 0.12549,-1.05833 0.10901,-2.02847 l -0.0299,-1.76389 -1.4993,-0.10848 -1.49931,-0.10848 v 2.13696 2.13695 h 1.39029 c 0.76466,0 1.45283,-0.11907 1.52926,-0.26459 z"
       id="path851" />
    <path
       style="display:inline;fill:#ffffff;fill-opacity:1;stroke-width:0.352777"
       d="m 41.713974,146.08742 v -5.64444 h 2.58941 c 3.14884,0 7.46687,-1.05232 9.30241,-2.26702 2.43704,-1.61275 2.7228,-2.4729 2.93868,-8.8455 0.21453,-6.33288 0.61496,-7.73738 2.93955,-10.31042 l 1.26899,-1.40462 -3.25771,-0.20615 c -8.0902,-0.51194 -11.88152,-3.90676 -11.47295,-10.27312 0.29803,-4.64386 2.40567,-7.732424 6.61164,-9.688761 1.61892,-0.75301 2.4736,-0.9101 4.95498,-0.91068 2.96539,-7.2e-4 3.08266,0.0338 10.58334,3.117504 10.99453,4.520057 14.136941,5.231687 16.933334,3.834727 1.54171,-0.77017 2.33835,-2.7429 1.68591,-4.174844 -0.46638,-1.023597 -2.30925,-2.083037 -4.259953,-2.448987 l -1.30651,-0.2451 v -1.90102 c 0,-1.84985 0.0268,-1.90102 0.9943,-1.90102 1.643373,0 4.442593,0.98467 5.993943,2.10846 3.44715,2.49711 3.84146,7.117021 0.90067,10.552681 -1.61879,1.8912 -3.53341,2.59371 -7.052773,2.58781 -3.436811,-0.006 -5.479051,-0.56056 -11.595871,-3.1502 -7.85323,-3.32478 -10.93344,-4.33765 -13.19118,-4.33765 -4.20818,0 -7.15305,2.86098 -7.23085,7.02488 -0.0464,2.48248 0.67123,3.70834 2.80591,4.79318 1.24793,0.6342 2.21911,0.71686 9.60237,0.81731 l 8.21403,0.11176 -1.75607,1.57886 c -1.26161,1.1343 -1.97002,2.14582 -2.5159,3.59241 -1.07556,2.85021 -0.79886,4.97953 1.12487,8.65625 1.37841,2.63449 1.50916,3.1098 1.52075,5.52814 0.0113,2.35942 -0.11896,2.88888 -1.20334,4.89099 -1.36164,2.51405 -3.58849,4.9795 -5.29435,5.86163 -2.0371,1.05343 -5.65227,1.58213 -10.86165,1.58848 l -5.02709,0.006 v 3.35139 3.35138 h -2.46944 -2.46945 z m 6.35,3.88056 v -1.76389 h 1.41111 1.41112 v 1.76389 1.76388 h -1.41112 -1.41111 z m 26.72743,-0.91885 c -1.21515,-1.4755 -2.26535,-2.83406 -2.33377,-3.01902 -0.0684,-0.18496 0.16001,-0.65056 0.50762,-1.03466 0.89987,-0.99435 1.12804,-4.60705 0.36456,-5.77228 -0.31427,-0.47962 -0.57139,-0.957 -0.57139,-1.06084 0,-0.24409 10.406421,-0.24812 10.650421,-0.004 0.101573,0.10157 0.109533,0.57783 0.0177,1.05833 -0.15976,0.83574 -0.2801,0.87367 -2.77172,0.87367 -2.369521,0 -2.604711,0.0637 -2.604711,0.70555 0,0.62672 0.23519,0.70556 2.10477,0.70556 h 2.104771 l -0.7285,1.23472 c -0.65712,1.11374 -0.88065,1.23472 -2.281161,1.23472 -1.31747,0 -1.55266,0.10688 -1.55266,0.70556 0,0.56634 0.23519,0.70555 1.19193,0.70555 0.99842,0 1.26492,0.17625 1.64162,1.08566 0.247331,0.59712 0.818771,1.3275 1.269881,1.62307 0.54861,0.35947 0.77299,0.78845 0.67765,1.29559 -0.0784,0.417 -0.15433,1.11537 -0.16875,1.55193 -0.0248,0.75014 -0.17134,0.79375 -2.667541,0.79375 h -2.64132 z m 8.903134,0.93817 v -1.78321 h 1.7488 1.74879 l -0.0803,1.67569 -0.0803,1.6757 -1.66845,0.10752 -1.66847,0.10752 z m 13.674217,-5.36483 -2.629397,-7.1094 0.68789,-1.79824 c 0.880253,-2.30112 0.71536,-6.07194 -0.35631,-8.14825 -0.40059,-0.77612 -1.17947,-2.28388 -1.73084,-3.3506 -0.78306,-1.51494 -1.0025,-2.41514 -1.0025,-4.1124 0,-3.39306 1.51757,-4.98547 7.496525,-7.86627 l 2.910417,-1.4023 v 4.17249 c 0,5.33541 0.36691,7.18397 2.20733,11.12097 1.39645,2.98726 1.49625,3.40309 1.48815,6.20062 -0.007,2.41689 -0.16853,3.32368 -0.8326,4.6743 l -0.82392,1.6757 h -2.60698 c -2.371797,0 -2.606977,0.0636 -2.606977,0.70555 0,0.63891 0.23518,0.70556 2.489717,0.70556 h 2.48973 l -0.10848,1.4993 c -0.10795,1.49202 -0.11576,1.49983 -1.60778,1.60779 -1.2121,0.0877 -1.49931,0.23975 -1.49931,0.79375 0,0.56429 0.24911,0.68527 1.41112,0.68527 h 1.41111 v 1.76389 c 0,1.33271 0.12935,1.76389 0.52916,1.76389 0.39982,0 0.52917,0.43117 0.52917,1.76389 v 1.76388 h -2.60791 -2.607907 z m 9.256335,5.34551 v -1.76389 h 1.41111 1.41111 v 1.76389 1.76388 h -1.41111 -1.41111 z m 11.19637,-5.55149 -8.3828,-7.26963 1.8194,-0.99494 c 2.55385,-1.39658 4.08282,-2.58048 6.17462,-4.78107 l 1.81176,-1.906 1.27505,2.03845 c 0.70127,1.12114 1.27505,2.16201 1.27505,2.31304 0,0.57007 -2.52009,3.03424 -3.53159,3.45321 -1.09823,0.4549 -1.3163,0.85334 -0.6817,1.24554 0.72366,0.44724 2.05824,-0.20611 3.62847,-1.77633 l 1.58826,-1.58826 1.24087,1.98378 1.24086,1.98378 -0.72624,0.9823 c -0.39944,0.54026 -1.2557,1.26743 -1.90282,1.61592 -0.8982,0.48371 -1.08671,0.7419 -0.79676,1.09127 0.61781,0.74442 1.23756,0.53802 2.77447,-0.924 l 1.45242,-1.38166 1.03606,1.6337 c 0.56983,0.89853 0.98397,1.79809 0.92031,1.99901 -0.0637,0.20093 -0.70504,0.75202 -1.4253,1.22465 -1.17004,0.76779 -1.25259,0.9163 -0.77489,1.39401 0.47771,0.47771 0.70176,0.41689 2.10306,-0.57083 l 1.56838,-1.1055 0.90557,1.18726 c 0.74226,0.97316 0.90557,1.57322 0.90557,3.32747 v 2.1402 l -2.55764,-0.0229 -2.55764,-0.0229 -8.3828,-7.26963 z m 14.90919,5.55149 v -1.76389 h 1.56344 c 1.50141,0 1.55835,0.0385 1.43541,0.97014 -0.0704,0.53357 -0.13895,1.32732 -0.15232,1.76388 -0.021,0.68681 -0.21443,0.79375 -1.43542,0.79375 h -1.41111 z m -55.138946,-14.0409 c -1.57601,-0.10267 -1.6736,-0.16381 -1.41111,-0.88401 0.1551,-0.42554 0.26659,-1.81889 0.24777,-3.09632 -0.0294,-1.99187 -0.24403,-2.73438 -1.50751,-5.21411 -1.79119,-3.5154 -2.10213,-5.33539 -1.31595,-7.70236 0.98738,-2.97272 3.59852,-4.97765 7.267411,-5.58021 l 1.5875,-0.26072 -1.62403,1.7384 c -2.054021,2.19868 -3.289901,5.28407 -2.970301,7.41536 0.1224,0.81618 0.88103,2.8016 1.68586,4.41205 1.172161,2.34548 1.487051,3.38434 1.582631,5.22115 0.12613,2.42395 -0.3799,3.96794 -1.320001,4.02753 -0.29104,0.0185 -1.29106,-0.0161 -2.22227,-0.0768 z m 4.579751,-0.51119 c 0.1586,-0.43656 0.28836,-1.905 0.28836,-3.26319 0,-2.18236 -0.17086,-2.81807 -1.46964,-5.46807 -1.885701,-3.84756 -2.116681,-5.10785 -1.355921,-7.39829 1.078771,-3.24786 3.284011,-5.09752 6.750014,-5.66163 1.11613,-0.18166 2.09173,-0.26788 2.168,-0.19161 0.0763,0.0763 -0.50236,0.79922 -1.28584,1.60655 -1.86914,1.92602 -3.00188,4.88072 -2.74018,7.14764 0.10644,0.92195 0.83597,2.99128 1.62118,4.59851 1.23227,2.52229 1.42767,3.24331 1.42767,5.26813 0,1.29024 -0.15482,2.7531 -0.34405,3.2508 -0.32468,0.85396 -0.48492,0.90491 -2.846,0.90491 -2.444863,0 -2.495373,-0.0181 -2.213593,-0.79375 z m 6.719833,-0.17639 c 0.14922,-0.53357 0.26004,-2.00719 0.24627,-3.27471 -0.0215,-1.97919 -0.23215,-2.71107 -1.49195,-5.18358 -1.73057,-3.39642 -2.08869,-5.1603 -1.48528,-7.31548 0.4983,-1.77973 2.39334,-4.18098 3.92445,-4.97274 1.0708,-0.55373 4.19309,-1.25609 4.19309,-0.94324 0,0.0988 -0.625,0.85764 -1.3889,1.68637 -1.81313,1.96702 -2.36509,3.91539 -1.83725,6.48543 0.21644,1.05384 0.69591,2.48259 1.06549,3.175 2.39891,4.49439 2.53891,4.86658 2.56214,6.81119 0.013,1.08849 -0.1637,2.54671 -0.39267,3.24049 l -0.4163,1.26141 h -2.6252 -2.62519 z m -18.425924,-2.29436 c 0,-2.77043 -0.0815,-3.07431 -1.67981,-6.26182 -1.92151,-3.8321 -2.1154,-5.51192 -0.93638,-8.11258 1.28752,-2.83997 3.39429,-4.39196 6.54884,-4.82434 l 1.64185,-0.22504 -1.44898,1.49308 c -1.89425,1.9519 -3.02784,4.89298 -2.76464,7.17285 0.10644,0.92195 0.8609,3.0423 1.67658,4.7119 1.62908,3.33453 2.0502,5.66879 1.38584,7.68182 -0.41799,1.26652 -0.43571,1.27585 -2.42218,1.27585 h -2.00112 z m 37.495086,-0.21094 c 0.15288,-2.64095 0.0939,-2.91744 -1.26688,-5.93956 -1.83814,-4.08227 -2.53792,-7.54074 -2.53792,-12.54303 v -3.9961 l 2.29973,-1.13405 c 1.26486,-0.62373 2.36518,-1.13405 2.44517,-1.13405 0.08,0 0.19605,2.5018 0.25791,5.55955 0.1233,6.09485 -0.15698,5.05593 2.96556,10.99259 1.06827,2.03102 1.48245,5.34728 0.89148,7.13793 -0.31262,0.94723 -0.89319,1.50305 -2.63314,2.52088 -1.22765,0.71815 -2.31089,1.30573 -2.40718,1.30573 -0.0963,0 -0.10292,-1.24645 -0.0148,-2.76989 z m 6.69426,-4.06946 c -0.15688,-1.95442 -0.52482,-3.06195 -1.9872,-5.98167 -2.21593,-4.42422 -2.49516,-5.65356 -2.50602,-11.0326 l -0.009,-4.27445 2.38125,-1.06543 2.38125,-1.06544 0.17639,5.16349 0.17639,5.16349 1.71298,3.12131 c 1.46281,2.66547 1.71563,3.41251 1.73114,5.11528 0.0208,2.28543 -0.48281,3.44326 -2.47353,5.68651 l -1.39149,1.56803 z m 5.37594,-6.62234 c 0,-0.3025 -0.49094,-1.48519 -1.09097,-2.6282 -2.65269,-5.05311 -2.43681,-3.93294 -2.43681,-12.64447 v -7.954531 l 6.96736,10e-5 6.96737,1.1e-4 4.58611,2.935551 4.58611,2.93556 0.10744,1.85031 c 0.10327,1.77829 0.0346,1.93782 -1.76388,4.09908 -1.02924,1.23683 -1.9904,2.25814 -2.13592,2.26958 -0.14552,0.0114 -0.26459,-0.77294 -0.26459,-1.74308 v -1.76389 l -2.73402,-8.2e-4 -2.73403,-8.2e-4 0.11292,3.16377 0.11292,3.16378 1.37534,-0.11661 c 0.75644,-0.0641 1.45233,-0.0396 1.54644,0.0545 0.0941,0.0941 -0.5662,1.02512 -1.46735,2.06892 -1.62436,1.88149 -1.65574,1.89781 -3.64857,1.89781 -1.99764,0 -2.01149,-0.007 -2.23007,-1.17243 -0.12098,-0.64484 -0.70931,-1.94408 -1.30742,-2.88719 -1.74416,-2.75025 -1.86171,-3.25255 -2.06346,-8.81676 l -0.19187,-5.29167 -1.32291,-0.10949 c -1.31358,-0.10872 -1.32292,-0.10013 -1.32292,1.21708 0,1.03178 0.0941,1.2325 0.42333,0.90324 0.23284,-0.23283 0.53476,-0.42333 0.67095,-0.42333 0.13618,0 0.30287,2.10344 0.37041,4.6743 l 0.12281,4.67431 1.52387,2.76217 1.52387,2.76216 -1.85013,2.00034 c -1.01757,1.10018 -1.98112,2.15114 -2.14123,2.33547 -0.17178,0.19777 -0.2911,0.1097 -0.2911,-0.21487 z m 12.7,-17.40638 c 0,-1.17593 -0.0588,-1.23472 -1.23472,-1.23472 -1.17593,0 -1.23472,0.0588 -1.23472,1.23472 0,1.17592 0.0588,1.23472 1.23472,1.23472 1.17592,0 1.23472,-0.0588 1.23472,-1.23472 z M 70.994534,94.934639 v -2.11667 h 1.41111 1.41111 v 2.11667 2.11667 h -1.41111 -1.41111 z m 5.19434,1.85208 c -0.0764,-0.14552 -0.12549,-1.05833 -0.10901,-2.02847 l 0.0299,-1.76389 1.4993,-0.10848 1.49931,-0.10848 v 2.13696 2.13695 h -1.39029 c -0.76466,0 -1.45283,-0.11907 -1.52926,-0.26459 z"
       id="path851-2" />
    <g
       aria-label="H2"
       transform="matrix(0.99237972,0,0,1.0076788,113.52176,-60.993862)"
       id="text855-9-3"
       style="font-style:normal;font-weight:normal;font-size:106.992px;line-height:1.25;font-family:sans-serif;display:none;fill:#82d7d8;fill-opacity:1;stroke:none;stroke-width:2.67481"
       inkscape:groupmode="layer" />
  </g>
  <g
     inkscape:groupmode="layer"
     id="layer3"
     inkscape:label="레이어 2">
    <path
       id="path153647-3"
       style="font-style:normal;font-variant:normal;font-weight:normal;font-stretch:normal;font-size:106.992px;line-height:1.25;font-family:'Bauhaus 93';-inkscape-font-specification:'Bauhaus 93, ';display:inline;fill:#82d7d8;fill-opacity:1;stroke:none;stroke-width:2.67481"
       d="m 150.55796,65.60744 c -6.80887,0 -12.6154,2.474325 -17.41961,7.422804 -4.80422,4.913371 -7.20629,10.827206 -7.20629,17.741031 0,1.62985 0.13766,3.207482 0.41031,4.734085 0.0274,-0.0133 0.0515,-0.02549 0.0791,-0.03879 l 2.91041,-1.401984 v 4.172355 c 0,2.614954 0.0893,4.391064 0.39584,5.987234 0.7553,1.19176 1.61126,2.30957 2.56677,3.35381 -1.1061,-3.11612 -1.55133,-6.11833 -1.55133,-10.097065 v -3.996142 l 2.2996,-1.13378 c 1.26485,-0.623723 2.36481,-1.134293 2.44482,-1.134293 0.08,0 0.19651,2.501603 0.25838,5.559354 0.1233,6.094846 -0.15736,5.055946 2.96519,10.992606 0.23447,0.44577 0.43533,0.95564 0.60307,1.49552 l 0.82785,-1.49914 c -0.23959,-0.53601 -0.52978,-1.13883 -0.88729,-1.85259 -2.21592,-4.42423 -2.49491,-5.65336 -2.50579,-11.032415 l -0.009,-4.274674 2.38125,-1.06556 2.38125,-1.06557 0.17622,5.163508 0.17673,5.163507 1.61386,2.940914 0.81132,-1.46917 c -1.3272,-2.616407 -1.19011,-3.264374 -1.19011,-10.273788 v -7.954556 h 6.96702 6.96753 l 4.58628,2.935741 4.58628,2.935217 0.10697,1.850532 c 0.10328,1.778291 0.0347,1.937716 -1.76372,4.098975 -1.02923,1.236835 -1.99026,2.258198 -2.13578,2.269636 -0.14552,0.01139 -0.26458,-0.77291 -0.26458,-1.743053 v -1.76368 l -2.7342,-0.001 -2.73369,-5.34e-4 0.11266,3.163637 0.11317,3.163628 1.37511,-0.116276 c 0.75645,-0.06409 1.45257,-0.0398 1.54667,0.05431 0.0941,0.09412 -0.56646,1.025323 -1.46761,2.069124 -1.62436,1.88149 -1.65552,1.89756 -3.64835,1.89756 -1.99764,0 -2.01178,-0.007 -2.23036,-1.17254 -0.11012,-0.58696 -0.60773,-1.713328 -1.14722,-2.622577 l -0.76894,1.465537 0.34313,0.62219 -1.5477,1.67328 -7.07399,13.4798 c 0.55882,-0.50302 1.1251,-1.05587 1.74098,-1.70377 l 1.81178,-1.90635 1.27485,2.03864 c 0.70127,1.12114 1.27537,2.162 1.27537,2.31303 0,0.57008 -2.52007,3.03405 -3.53156,3.45303 -1.09824,0.45489 -1.31621,0.85371 -0.68161,1.24591 0.72367,0.44725 2.05798,-0.20641 3.6282,-1.77663 l 1.58853,-1.58802 1.24075,1.98386 1.24075,1.98386 -0.72605,0.98185 c -0.39943,0.54026 -1.25561,1.26744 -1.90273,1.61592 -0.89819,0.48372 -1.08679,0.74204 -0.79684,1.09141 0.6178,0.74442 1.23759,0.53805 2.7745,-0.92397 l 1.4521,-1.38183 1.03612,1.634 c 0.56983,0.89854 0.98402,1.79793 0.92036,1.99885 -0.0637,0.20093 -0.70497,0.7521 -1.42524,1.22473 -1.17002,0.76779 -1.25285,0.91652 -0.77515,1.39423 0.47771,0.47771 0.70194,0.41669 2.10323,-0.57102 l 1.56838,-1.10537 0.90538,1.18702 c 0.74225,0.97316 0.90588,1.57319 0.90588,3.32744 v 2.14044 l -2.55746,-0.0233 -2.55799,-0.0227 -8.38295,-7.26933 -5.55366,-4.81676 -4.51549,8.60412 h 0.28422 1.41077 v 1.76372 1.76424 h -1.41077 -1.41128 v -1.37977 l -2.9776,5.67408 h 45.72692 v -20.79408 h -11.82046 l 8.39845,-16.58296 c 1.7627,-3.439372 2.64429,-7.159158 2.64429,-11.160045 0,-6.984021 -2.40207,-12.91547 -7.20628,-17.793754 -4.76964,-4.878254 -10.57619,-7.31735 -17.4196,-7.31735 z m -88.394609,1.790071 v 71.858139 h 21.04884 v -11.20913 c -1.448934,0.1342 -3.094329,0.20341 -4.944909,0.20567 l -5.027088,0.006 v 3.35121 3.35121 h -2.469616 -2.469617 v -5.64409 -5.64461 h 2.589506 c 3.148841,0 7.467251,-1.05234 9.302786,-2.26705 2.437046,-1.61275 2.722445,-2.47285 2.938327,-8.84545 0.214533,-6.33288 0.615285,-7.73692 2.939875,-10.30997 l 1.268649,-1.40507 -3.257675,-0.2062 c -8.090207,-0.51194 -11.881257,-3.906393 -11.472694,-10.272757 0.298042,-4.643858 2.405519,-7.732474 6.611492,-9.688812 1.387644,-0.645438 2.220628,-0.851619 3.990964,-0.898134 V 67.39736 Z m 30.484446,0 v 14.62029 c 0.642129,0.262269 1.315677,0.538192 2.112012,0.865586 10.994521,4.520055 14.136431,5.231869 16.932821,3.834904 1.54171,-0.770169 2.33864,-2.742993 1.6862,-4.174935 -0.46638,-1.0236 -2.30951,-2.082993 -4.26021,-2.448951 l -1.30638,-0.244937 v -1.901177 c 0,-1.849857 0.0268,-1.901178 0.99426,-1.901178 1.30325,0 3.33188,0.620307 4.89014,1.437121 V 67.397511 Z m 13.047783,8.609295 v 2.136813 2.136823 h -1.3901 c -0.76466,0 -1.45319,-0.119057 -1.52962,-0.264576 -0.0764,-0.145529 -0.125,-1.058163 -0.10852,-2.028306 l 0.0295,-1.76371 1.49966,-0.108527 z m -8.113721,0.04031 h 1.410767 1.411284 v 2.11667 2.116659 h -1.411284 -1.410767 v -2.116659 z m -14.369668,7.786082 c -3.858462,0.279752 -6.507778,3.054113 -6.581512,7.000093 -0.04644,2.482477 0.671355,3.708147 2.806033,4.792994 1.247928,0.634203 2.218743,0.717064 9.601998,0.81752 l 0.03205,5.24e-4 v -3.356901 h -5.858563 z m 63.614729,0.706937 c -0.5568,0.01834 -0.56173,0.269897 -0.56173,1.257805 0,1.031783 0.094,1.232563 0.42323,0.903304 0.23285,-0.232825 0.53457,-0.423226 0.67076,-0.423226 0.06,0 0.12625,0.425493 0.18707,1.103802 0.45401,-0.252283 0.93614,-0.415083 1.44436,-0.496091 l -0.0796,-2.195218 -1.32291,-0.109555 c -0.3284,-0.02721 -0.5756,-0.04696 -0.76119,-0.04081 z m -54.179123,1.788519 v 10.164245 l 4.60488,0.06248 -1.755956,1.579234 c -1.261613,1.134294 -1.969735,2.145434 -2.515613,3.592024 -0.131739,0.3491 -0.242687,0.68743 -0.333311,1.01906 v 4.12791 c 0.277936,1.03808 0.757216,2.17039 1.457786,3.50935 1.378415,2.63449 1.509251,3.11001 1.520842,5.52835 0.01131,2.35941 -0.118649,2.88854 -1.203032,4.89065 -0.498354,0.92013 -1.113411,1.83309 -1.775596,2.66496 v 15.78869 h 21.048843 v -6.09265 l -0.078,1.62161 -1.66811,0.10749 -1.66864,0.108 v -1.78335 -1.78336 h 1.74873 1.66605 v -12.60951 c -0.2802,0.57603 -0.66565,0.61495 -2.72438,0.61495 -2.44487,0 -2.4956,-0.0181 -2.21382,-0.79375 0.1586,-0.43657 0.28887,-1.90466 0.28887,-3.26285 0,-2.18236 -0.1709,-2.8184 -1.46968,-5.4684 -1.8857,-3.84756 -2.11675,-5.10756 -1.35599,-7.398 1.07877,-3.247858 3.28398,-5.097563 6.74997,-5.661672 0.25323,-0.04121 0.49513,-0.07588 0.72503,-0.106451 v -6.393409 c -1.26725,0.671043 -2.8426,0.945756 -5.04827,0.942058 -3.43682,-0.006 -5.47886,-0.560551 -11.595677,-3.150195 -1.688336,-0.714777 -3.118514,-1.303473 -4.404896,-1.81746 z m 65.435273,0.30179 c -1.17593,0 -1.23455,0.05915 -1.23455,1.235072 0,1.175921 0.0587,1.234547 1.23455,1.234547 1.17592,0 1.23507,-0.05865 1.23507,-1.234547 0,-1.175931 -0.0591,-1.235072 -1.23507,-1.235072 z m -49.03576,9.788038 -1.62419,1.738397 c -2.05402,2.198674 -3.28997,5.284274 -2.97036,7.415564 0.1224,0.81617 0.88086,2.80168 1.68569,4.41214 1.17215,2.34548 1.48726,3.38405 1.58284,5.22086 0.12613,2.42395 -0.38023,3.96807 -1.32033,4.02766 -0.29105,0.0185 -1.29088,-0.0158 -2.22209,-0.0765 -1.57601,-0.10266 -1.67377,-0.16398 -1.41128,-0.88418 0.1551,-0.42554 0.26687,-1.81902 0.24804,-3.09645 -0.0294,-1.99187 -0.24391,-2.73442 -1.50739,-5.21416 -1.791196,-3.5154 -2.102387,-5.33539 -1.3162,-7.70236 0.98737,-2.972724 3.59888,-4.977461 7.26777,-5.580023 z m -6.42028,0.332282 -1.449,1.492926 c -1.894259,1.951903 -3.027894,4.893343 -2.764695,7.173213 0.106442,0.92194 0.861217,3.04225 1.676895,4.71185 1.62909,3.33454 2.04981,5.66867 1.38545,7.6817 -0.41799,1.26652 -0.43561,1.27589 -2.422072,1.27589 h -2.000915 v -2.91197 c 0,-2.77042 -0.08167,-3.07411 -1.68,-6.26162 -1.921515,-3.8321 -2.115396,-5.51202 -0.93638,-8.11269 1.287524,-2.839963 3.394405,-4.392131 6.548957,-4.824506 z m 11.06961,1.689817 c -1.7737,1.926722 -2.83748,4.774602 -2.58331,6.976322 0.10645,0.92194 0.83589,2.99093 1.6211,4.59817 0.44268,0.9061 0.74814,1.57596 0.96221,2.16111 v -3.26596 c -1.25884,-2.6999 -1.48361,-4.30674 -0.9493,-6.21512 0.17251,-0.61615 0.51503,-1.30614 0.9493,-1.97869 z m -9.11727,22.766052 c 2.6321,-0.001 5.29472,0.0588 5.41672,0.18087 0.10156,0.10156 0.1094,0.57782 0.0176,1.05832 -0.15977,0.83575 -0.27979,0.87386 -2.77141,0.87386 -2.36952,0 -2.60501,0.0636 -2.60501,0.70538 0,0.62672 0.23521,0.7059 2.10478,0.7059 h 2.10479 l -0.72865,1.23456 c -0.65711,1.11373 -0.88049,1.23454 -2.28099,1.23454 -1.31747,0 -1.55236,0.10722 -1.55236,0.7059 0,0.56634 0.23491,0.70539 1.19166,0.70539 0.99842,0 1.26505,0.17631 1.64176,1.08572 0.24732,0.59712 0.81858,1.32759 1.26969,1.62315 0.54861,0.35948 0.77282,0.78839 0.67748,1.29553 -0.0784,0.417 -0.15405,1.11528 -0.16847,1.55185 -0.0248,0.75013 -0.17133,0.79375 -2.66753,0.79375 h -2.64119 l -2.20968,-2.68305 c -1.21515,-1.47549 -2.26529,-2.83397 -2.333714,-3.01893 -0.06838,-0.18496 0.159852,-0.65046 0.507463,-1.03457 0.899871,-0.99435 1.128311,-4.60702 0.364838,-5.77225 -0.314266,-0.47962 -0.571541,-0.95709 -0.571541,-1.06092 0,-0.12205 2.601684,-0.184 5.233794,-0.185 z m -29.928409,10.22676 h 1.411283 1.411283 v 1.76372 1.76424 h -1.411283 -1.411283 v -1.76424 z m 84.667179,0 h 1.56322 c 1.50142,0 1.55851,0.0383 1.43556,0.96997 -0.0704,0.53357 -0.13907,1.32767 -0.15244,1.76424 -0.021,0.68681 -0.21459,0.79375 -1.43557,0.79375 h -1.41077 v -1.76424 z"
       inkscape:export-xdpi="96"
       inkscape:export-ydpi="96" />
  </g>
</svg>
