<?xml version="1.0" encoding="UTF-8" standalone="no"?>
<svg
   xmlns:dc="http://purl.org/dc/elements/1.1/"
   xmlns:cc="http://creativecommons.org/ns#"
   xmlns:rdf="http://www.w3.org/1999/02/22-rdf-syntax-ns#"
   xmlns:svg="http://www.w3.org/2000/svg"
   xmlns="http://www.w3.org/2000/svg"
   width="7mm"
   height="7mm"
   viewBox="0 0 7 7"
   version="1.1"
   id="svg8">
  <defs
     id="defs2" />
  <metadata
     id="metadata5">
    <rdf:RDF>
      <cc:Work
         rdf:about="">
        <dc:format>image/svg+xml</dc:format>
        <dc:type
           rdf:resource="http://purl.org/dc/dcmitype/StillImage" />
        <dc:title></dc:title>
      </cc:Work>
    </rdf:RDF>
  </metadata>
 
    <g
       id="layer2"
       transform="matrix(0.26458333,0,0,0.26458333,-18.788357,-27.222391)">
      <rect
         style="fill:#008080;fill-opacity:1;stroke-width:2.06741;paint-order:markers stroke fill"
         id="rect944"
         width="23"
         height="23"
         x="71.167885"
         y="103.22734" />
      <path
         style="display:inline;fill:#82d7d8;fill-opacity:1;stroke-width:0.352777"
         d="m 75.073643,126.21828 c 0,0 -0.868916,-1.24894 -1.468946,-2.39195 -2.65269,-5.05312 -2.43681,-3.93294 -2.43681,-12.64448 v -7.95452 l 6.96736,1e-4 6.96737,1e-4 4.58611,2.93557 4.444369,3.03004 0.03657,2.6535 c 0.02455,1.78112 0.247212,1.04013 -1.551268,3.20139 -1.02924,1.23684 -1.9904,2.25814 -2.13592,2.26958 -0.14552,0.0114 -0.26459,-0.77294 -0.26459,-1.74307 v -1.76389 l -2.73402,-8.3e-4 -2.73403,-8.2e-4 0.11292,3.16377 0.11292,3.16378 1.37534,-0.11661 c 0.75644,-0.0641 1.45233,-0.0396 1.54644,0.0545 0.0941,0.0941 -0.5662,1.02511 -1.46735,2.06892 -1.62436,1.88148 -1.65574,1.8978 -3.64857,1.8978 -1.99764,0 -2.01149,-0.007 -2.23007,-1.17243 -0.12098,-0.64484 -0.70931,-1.94408 -1.30742,-2.88719 -1.74416,-2.75024 -1.86171,-3.25255 -2.06346,-8.81676 l -0.19187,-5.29166 -1.32291,-0.10949 c -1.31358,-0.10872 -2.91042,-0.10013 -2.91042,1.21708 0,1.03178 0.0941,1.2325 0.42333,0.90324 0.23284,-0.23283 1.252915,-0.0832 1.389105,-0.0832 0.100761,3.21677 0.228637,10.80381 0.228637,10.80381 l 4.126925,7.61916 z m 13.858824,-17.17013 c 0,-1.17593 -0.927426,-1.70244 -2.103346,-1.70244 -1.17593,0 -1.902894,0.52652 -1.902894,1.70244 0,1.17591 0.726974,1.90288 1.902894,1.90288 1.17592,0 2.103346,-0.72697 2.103346,-1.90288 z"
         id="path851-22" />
    </g>

</svg>
