<svg id="Glyph" height="512" viewBox="0 0 24 24" width="512" xmlns="http://www.w3.org/2000/svg"><path d="m8.75 15a1.2215 1.2215 0 0 1 .0785-.3878l-1.3185-.7616a2.6725 2.6725 0 0 0 0 2.2988l1.3187-.7616a1.2187 1.2187 0 0 1 -.0787-.3878z"/><path d="m7.7584 16.5829a2.7393 2.7393 0 0 0 1.9916 1.1418v-1.5253a1.2243 1.2243 0 0 1 -.6748-.3771z"/><circle cx="10" cy="15" r=".75"/><path d="m9.75 13.8005v-1.5252a2.7393 2.7393 0 0 0 -1.9916 1.1418l1.3168.7606a1.2244 1.2244 0 0 1 .6748-.3772z"/><path d="m12.2416 13.4171a2.7393 2.7393 0 0 0 -1.9916-1.1418v1.5252a1.2239 1.2239 0 0 1 .6748.3771z"/><path d="m11.25 15a1.22 1.22 0 0 1 -.0784.3879l1.3186.7615a2.6725 2.6725 0 0 0 0-2.2988l-1.3186.7615a1.22 1.22 0 0 1 .0784.3879z"/><path d="m10 11.25a3.75 3.75 0 1 0 3.75 3.75 3.7544 3.7544 0 0 0 -3.75-3.75zm0 7a3.25 3.25 0 1 1 3.25-3.25 3.2538 3.2538 0 0 1 -3.25 3.25z"/><path d="m10.25 16.1994v1.5253a2.7393 2.7393 0 0 0 1.9916-1.1418l-1.3168-.76a1.2238 1.2238 0 0 1 -.6748.3765z"/><path d="m10 8a7 7 0 1 0 7 7 7 7 0 0 0 -7-7zm0 11.25a4.25 4.25 0 1 1 4.25-4.25 4.2548 4.2548 0 0 1 -4.25 4.25z"/><rect height="4.243" rx=".707" transform="matrix(.707 -.707 .707 .707 4.029 15.728)" width="1.414" x="20.293" y=".879"/><path d="m2.3212 10.5541a3.5389 3.5389 0 0 1 .852-1.3809 3.733 3.733 0 0 1 .5768-.4578v-1.5043a3.929 3.929 0 0 0 -2.7231 3.5389h1.2586a.9451.9451 0 0 1 .0357-.1959z"/><path d="m2.5677 11.5677a1.0058 1.0058 0 0 1 -.2062-.3177h-1.34c.0032.054-.0071.1074-.0016.1614a1.976 1.976 0 0 0 .5801 1.1886l1.0311 1.031a7.45 7.45 0 0 1 .4573-1.5426z"/><path d="m6.6 7.6a1.977 1.977 0 0 0 -1.189-.58 3.9843 3.9843 0 0 0 -1.161.0739v1.3553a3.221 3.221 0 0 1 .3022-.1286 1 1 0 0 1 1.0169.2485l.225.225a7.4943 7.4943 0 0 1 1.2943-.7057z"/><path d="m8.8677 22.4051a1.375 1.375 0 0 0 2.2646 0 7.4954 7.4954 0 0 1 -1.1323.0949 7.4954 7.4954 0 0 1 -1.1323-.0949z"/><path d="m17.4051 13.8677a6.8025 6.8025 0 0 1 0 2.2646 1.375 1.375 0 0 0 0-2.2646z"/><path d="m2 17a1.4142 1.4142 0 0 0 0 2 1.3943 1.3943 0 0 0 1.7626.1576 7.4555 7.4555 0 0 1 -1.1315-2.7887z"/><path d="m19.03 2.6793-7.2169 5.0515a7.5228 7.5228 0 0 1 4.7991 3.7358l4.3351-6.8123-1.8008-1.8008a1.172 1.172 0 0 1 -.1165-.1742z"/></svg>