<?xml version="1.0" encoding="UTF-8" standalone="no"?>
<!-- Created with Inkscape (http://www.inkscape.org/) -->

<svg
   version="1.1"
   id="svg8514"
   width="749.09088"
   height="459.05453"
   viewBox="0 0 749.09088 459.05453"
   sodipodi:docname="converter2.svg"
   inkscape:version="1.2.2 (732a01da63, 2022-12-09)"
   xmlns:inkscape="http://www.inkscape.org/namespaces/inkscape"
   xmlns:sodipodi="http://sodipodi.sourceforge.net/DTD/sodipodi-0.dtd"
   xmlns="http://www.w3.org/2000/svg"
   xmlns:svg="http://www.w3.org/2000/svg">
  <defs
     id="defs8518" />
  <sodipodi:namedview
     id="namedview8516"
     pagecolor="#505050"
     bordercolor="#ffffff"
     borderopacity="1"
     inkscape:showpageshadow="0"
     inkscape:pageopacity="0"
     inkscape:pagecheckerboard="1"
     inkscape:deskcolor="#505050"
     showgrid="false"
     inkscape:zoom="0.59091474"
     inkscape:cx="794.53086"
     inkscape:cy="33.84583"
     inkscape:window-width="2560"
     inkscape:window-height="1377"
     inkscape:window-x="2552"
     inkscape:window-y="-8"
     inkscape:window-maximized="1"
     inkscape:current-layer="g8520" />
  <g
     inkscape:groupmode="layer"
     inkscape:label="Image"
     id="g8520">
    <path
       style="fill:#000000;stroke-width:0.290909"
       d="m 46.905604,458.20098 c -3.74818,-0.44841 -5.91221,-0.81926 -8.34415,-1.42991 -9.3494,-2.34763 -17.66453,-7.07261 -24.53196,-13.94004 -8.1076796,-8.10767 -13.24226958,-18.29469 -15.0310696,-29.82156 -0.5694,-3.66917 -0.5694,-364.621712 0,-368.290892 1.78880002,-11.52688 6.92339,-21.71388 15.0310696,-29.82157 8.10769,-8.10768 18.29469,-13.24227 29.82157,-15.03106999 3.6758,-0.57042 654.651426,-0.57042 658.327236,0 11.52687,1.78879999 21.71389,6.92338999 29.82156,15.03106999 8.10769,8.10769 13.2423,18.29469 15.03107,29.82157 0.56939,3.66918 0.56939,364.621722 0,368.290892 -2.44821,15.77603 -11.28669,29.16402 -24.78892,37.54866 -5.51569,3.42513 -11.61754,5.73155 -19.04552,7.19889 -2.11209,0.41725 -32.51986,0.46386 -328.87272,0.50406 -179.59999,0.0244 -326.938166,-0.003 -327.418166,-0.0601 z M 698.54194,442.09244 c 17.39043,-1.95334 30.76599,-15.3289 32.71933,-32.71933 0.40742,-3.62729 0.40742,-357.390892 0,-361.018172 -1.95334,-17.39042 -15.3289,-30.76599 -32.71933,-32.71933 -3.63697,-0.40851 -647.417546,-0.40851 -651.054516,0 -17.39043,1.95334 -30.76599,15.32891 -32.71933,32.71933 -0.40742,3.62728 -0.40742,357.390882 0,361.018172 1.57914,14.05891 10.73926,25.81396 23.90379,30.67534 2.34932,0.86758 5.95291,1.73406 8.37969,2.0149 3.19964,0.3703 648.196196,0.3991 651.490366,0.0291 z M 82.541964,419.31339 c 0.88,-0.53205 141.113716,-86.2117 311.630476,-190.39926 C 564.6892,124.72658 704.27102,39.482208 704.35425,39.482208 c 0.0832,0 0.15133,85.680002 0.15133,190.400002 V 420.2822 H 392.72377 80.941964 l 1.6,-0.96733 z M 688.50558,236.13758 V 67.992958 l -4.43637,2.70991 C 408.40729,239.0884 138.76465,403.85305 138.55651,404.0374 c -0.152,0.13463 123.52436,0.2448 274.83635,0.2448 H 688.50558 Z M 430.76013,379.99129 v -14.98182 h 29.38182 29.38182 v 14.98182 14.98182 h -29.38182 -29.38182 z m 50.61818,0 v -6.83636 h -21.23636 -21.23636 v 6.83636 6.83637 h 21.23636 21.23636 z m 43.92727,0 v -14.98182 h 29.52727 29.52728 v 14.98182 14.98182 h -29.52728 -29.52727 z m 50.90909,0 v -6.83636 h -21.38182 -21.38181 v 6.83636 6.83637 h 21.38181 21.38182 z M 430.76013,342.90038 v -14.83636 h 76.8 76.8 v 14.83636 14.83637 h -76.8 -76.8 z m 145.45454,0 v -6.6909 h -68.65454 -68.65454 v 6.6909 6.69091 h 68.65454 68.65454 z m 37.30994,-25.61224 c -14.99154,-1.42714 -25.44966,-10.63823 -28.76111,-25.33161 -1.07028,-4.74913 -1.26732,-9.75655 -1.26924,-32.25614 -0.003,-21.90105 0.19099,-27.03793 1.1877,-31.63829 3.57204,-16.48705 15.71683,-25.96171 33.27817,-25.96171 7.68226,0 14.28383,1.81092 19.59726,5.37584 2.39136,1.60442 5.8585,5.11351 7.58868,7.6805 3.48553,5.17132 5.78354,12.38724 6.71608,21.08916 0.31944,2.98101 0.30612,3.20778 -0.23096,3.92727 l -0.56998,0.76359 -9.69119,0.0767 c -9.54688,0.0756 -9.70104,0.0675 -10.35218,-0.54426 -0.46848,-0.4401 -0.71601,-1.09795 -0.84986,-2.25853 -0.50051,-4.34006 -1.43732,-7.24016 -3.2101,-9.93752 -2.496,-3.79782 -6.41524,-5.44669 -11.12424,-4.68012 -3.87997,0.63162 -6.76393,2.72101 -8.49842,6.15704 -1.73498,3.43696 -1.72814,3.31894 -1.73367,29.96962 -0.003,16.356 0.0989,24.87269 0.31273,26.02932 0.76526,4.13969 3.40689,7.79405 6.74478,9.33058 1.65755,0.76299 2.09219,0.83348 5.15561,0.8361 2.89353,0.003 3.54988,-0.0896 4.85871,-0.68146 3.9392,-1.78144 6.68986,-6.83776 7.49684,-13.78085 0.10787,-0.92831 0.43063,-1.95817 0.72931,-2.32727 0.53344,-0.65915 0.57553,-0.66249 9.50729,-0.75288 5.76942,-0.0584 9.34845,0.0199 10.02763,0.21944 1.65917,0.48737 1.81975,1.22045 1.28064,5.84634 -2.17667,18.67706 -11.02697,29.62091 -26.19133,32.38696 -3.09233,0.56404 -8.67145,0.77894 -11.99915,0.46217 z m -110.8165,-1.20629 c -0.34862,-0.16855 -0.77568,-0.65058 -0.94906,-1.07124 -0.22347,-0.54217 -0.293,-16.75441 -0.23889,-55.69958 l 0.0763,-54.9348 0.70706,-0.57252 c 0.69076,-0.55935 1.16241,-0.57 20.50909,-0.46297 19.13524,0.10585 19.89748,0.13109 22.63662,0.7493 7.44617,1.68058 12.49522,4.39947 16.96524,9.13573 4.59072,4.86413 7.15046,11.00486 7.9739,19.12916 0.24029,2.37072 0.30767,10.97388 0.23125,29.52728 -0.0961,23.32262 -0.16256,26.45814 -0.60905,28.71214 -1.63831,8.27084 -5.31313,14.5616 -11.01713,18.85969 -5.08623,3.83259 -10.77193,5.87963 -18.51872,6.66729 -4.05277,0.41207 -36.90365,0.37775 -37.76664,-0.0395 z m 37.57929,-21.02254 c 4.80073,-1.32044 7.60547,-4.66877 8.30415,-9.91353 0.20369,-1.52889 0.27744,-10.68729 0.21661,-26.89994 l -0.0922,-24.58182 -0.65856,-1.95138 c -1.17632,-3.48563 -3.51994,-5.82459 -6.98226,-6.96834 -1.78245,-0.58882 -2.65024,-0.65454 -10.02411,-0.75915 l -8.07273,-0.11452 v 35.98971 35.98969 l 7.78182,-0.15532 c 5.94923,-0.11872 8.19287,-0.26836 9.52727,-0.6354 z M 38.614694,228.13675 V 37.736758 H 350.23036 661.846 l -14.6702,8.97038 C 426.84892,181.43023 38.882714,418.53675 38.768564,418.53675 c -0.0846,0 -0.15387,-85.68 -0.15387,-190.4 z m 295.127256,-8.71979 c 148.64,-90.85244 270.3789,-165.297392 270.5309,-165.433232 0.152,-0.13583 -123.4589,-0.24697 -274.6909,-0.24697 H 54.614694 V 221.88138 390.026 l 4.43637,-2.71139 c 2.44,-1.49129 126.050896,-77.04521 274.690886,-167.89765 z M 86.905604,252.42766 V 237.5913 h 29.381816 29.38181 v 14.83636 14.83636 H 116.28742 86.905604 Z m 50.618176,0 v -6.69091 H 116.28742 95.051054 v 6.69091 6.69091 h 21.236366 21.23636 z m 43.92727,0 V 237.5913 h 29.52727 29.52727 v 14.83636 14.83636 h -29.52727 -29.52727 z m 50.90909,0 v -6.69091 h -21.38182 -21.38181 v 6.69091 6.69091 h 21.38181 21.38182 z M 86.905604,215.48221 v -14.83637 h 76.799996 76.79999 v 14.83637 14.83636 H 163.7056 86.905604 Z m 145.454536,0 V 208.7913 H 163.7056 95.051054 v 6.69091 6.69091 h 68.654546 68.65454 z m 36.65454,-25.73491 c -0.24,-0.057 -1.41818,-0.26248 -2.61818,-0.4567 -4.36836,-0.70701 -9.78836,-2.90595 -13.27799,-5.38699 -5.52728,-3.92974 -9.96689,-10.66473 -11.87756,-18.01851 -1.43692,-5.53041 -1.46276,-6.12982 -1.46072,-33.8938 0.002,-28.18765 -1.7e-4,-28.14125 1.64143,-34.036362 2.9537,-10.60695 10.37062,-18.43738 20.46575,-21.60673 6.82066,-2.14134 16.55859,-2.26968 23.41818,-0.30864 11.32864,3.23866 18.9161,12.38088 21.66467,26.104012 1.00905,5.03797 1.42362,9.22303 1.00471,10.14244 -0.59336,1.3023 -1.19016,1.37801 -10.86202,1.37801 -8.69689,0 -9.14461,-0.0267 -9.85693,-0.58697 -0.58713,-0.46185 -0.78684,-0.94247 -0.9368,-2.25455 -0.82247,-7.19646 -3.27062,-11.793862 -7.34981,-13.802332 -1.80381,-0.88814 -2.14929,-0.95615 -4.85742,-0.95615 -3.43813,0 -5.12707,0.49193 -7.27431,2.11876 -1.84492,1.39779 -3.35735,3.562752 -4.24928,6.082642 l -0.70099,1.98042 -0.0831,25.16363 c -0.0904,27.38433 -0.0966,27.2616 1.5437,30.79507 1.00697,2.1692 3.70674,4.74658 5.86226,5.59652 1.3749,0.54212 2.27377,0.67138 4.75598,0.68389 2.88753,0.0145 3.17052,-0.0386 5.00286,-0.94071 4.03227,-1.98508 6.36495,-6.14567 7.21123,-12.86204 0.5036,-3.99669 -0.12395,-3.78182 11.04495,-3.78182 5.09798,0 9.48099,0.0813 9.73999,0.18071 0.25899,0.0994 0.66845,0.56269 0.90987,1.02955 0.37315,0.7216 0.39037,1.29411 0.11491,3.81929 -1.8487,16.94702 -8.64989,27.42119 -20.72004,31.90992 -3.81409,1.41841 -6.2518,1.80138 -12.14626,1.90821 -3.12,0.0565 -5.86909,0.0562 -6.10909,-8.8e-4 z m -110.71854,-1.64109 c -0.54087,-0.59765 -0.55418,-1.93888 -0.55418,-55.84646 V 77.025648 l 0.6632,-0.66263 0.6632,-0.66263 18.39135,0.006 c 13.30969,0.004 19.09781,0.10842 20.94817,0.37599 15.61296,2.25766 24.78138,10.64218 27.7345,25.363212 0.4392,2.1894 0.50973,5.43938 0.61555,28.36363 0.12476,27.02779 0.0122,30.66431 -1.09232,35.28878 -1.45813,6.10495 -3.78549,10.32982 -7.96376,14.45668 -3.86689,3.8193 -7.45963,5.91189 -12.99418,7.56845 -4.95766,1.48391 -6.84849,1.59519 -27.10341,1.59519 -18.69628,0 -18.75565,-0.002 -19.30812,-0.61236 z m 37.13029,-20.33532 c 4.64337,-0.8806 7.92355,-3.9396 9.04395,-8.43414 0.59094,-2.37056 0.58703,-51.7622 -0.004,-54.10908 -1.10661,-4.39209 -3.8587,-7.115592 -8.38037,-8.293342 -1.27232,-0.33139 -3.47329,-0.43394 -9.31398,-0.43394 h -7.64797 v 35.781822 35.78182 h 7.37847 c 4.05817,0 8.07404,-0.13191 8.92418,-0.29314 z"
       id="path9854" />
  </g>
</svg>
