<?xml version="1.0" encoding="UTF-8" standalone="no"?>
<!-- Created with Inkscape (http://www.inkscape.org/) -->

<svg
   version="1.1"
   id="svg24678"
   width="682.66669"
   height="682.66669"
   viewBox="0 0 682.66669 682.66669"
   sodipodi:docname="ejector_black.svg"
   inkscape:version="1.2.2 (732a01da63, 2022-12-09)"
   xmlns:inkscape="http://www.inkscape.org/namespaces/inkscape"
   xmlns:sodipodi="http://sodipodi.sourceforge.net/DTD/sodipodi-0.dtd"
   xmlns="http://www.w3.org/2000/svg"
   xmlns:svg="http://www.w3.org/2000/svg">
  <defs
     id="defs24682" />
  <sodipodi:namedview
     id="namedview24680"
     pagecolor="#505050"
     bordercolor="#ffffff"
     borderopacity="1"
     inkscape:showpageshadow="0"
     inkscape:pageopacity="0"
     inkscape:pagecheckerboard="1"
     inkscape:deskcolor="#505050"
     showgrid="false"
     inkscape:zoom="1.0637675"
     inkscape:cx="718.20202"
     inkscape:cy="311.15821"
     inkscape:window-width="2560"
     inkscape:window-height="1377"
     inkscape:window-x="2552"
     inkscape:window-y="-8"
     inkscape:window-maximized="1"
     inkscape:current-layer="g24684" />
  <g
     inkscape:groupmode="layer"
     inkscape:label="Image"
     id="g24684">
    <g
       id="g26017"
       transform="translate(3.7602199,-11.28066)">
      <path
         style="fill:#000000;stroke-width:1.33333"
         d="m 181.75849,513.66764 c 17.46716,-0.21064 45.66716,-0.21042 62.66667,5e-4 16.9995,0.21092 2.70818,0.38326 -31.75849,0.38298 -34.46666,-2.6e-4 -48.37534,-0.17282 -30.90818,-0.38348 z m -39.95187,-19.66762 c -0.004,-6.6 0.2214,-9.46811 0.50102,-6.37356 0.27963,3.09453 0.28296,8.49453 0.008,12 -0.27617,3.50545 -0.50497,0.97356 -0.50902,-5.62644 z m 17.86005,-20.32335 c 5.31667,-0.25308 14.01667,-0.25308 19.33334,0 5.31666,0.25309 0.96666,0.46016 -9.66667,0.46016 -10.63333,0 -14.98333,-0.20707 -9.66667,-0.46016 z m 75.56731,-0.78811 c -0.37528,-0.97796 -0.47857,-6.82796 -0.22955,-13 l 0.45279,-11.22188 0.27139,12.2977 0.2714,12.29768 19.66667,0.40748 19.66666,0.40748 -19.7085,0.29484 c -15.40549,0.23045 -19.8575,-0.0935 -20.39086,-1.4833 z m -35.23397,-11.55521 v -12 h 12 12 v 12 12 h -12 -12 z m 406.4966,1.66667 c -1.6585,-2.11475 -1.61134,-2.16191 0.50341,-0.50342 1.28333,1.00647 2.33333,2.05647 2.33333,2.33334 0,1.09738 -1.09492,0.39108 -2.83674,-1.82992 z M 165.08334,420.42253 c 0.96249,-0.38516 2.11249,-0.3378 2.55556,0.1052 0.44305,0.44306 -0.34445,0.75819 -1.75,0.7003 -1.55327,-0.064 -1.8692,-0.37992 -0.80556,-0.80555 z m 94.66667,0 c 0.96249,-0.38516 2.11249,-0.3378 2.55556,0.1052 0.44305,0.44306 -0.34445,0.75819 -1.75,0.7003 -1.55327,-0.064 -1.8692,-0.37992 -0.80556,-0.80555 z M 159.26723,407.45788 c -4.65385,-2.02709 -10.93016,-8.95649 -11.98061,-13.22729 -0.39195,-1.59348 -0.54177,-36.79724 -0.33295,-78.23058 l 0.37967,-75.33334 3.10512,-4.35345 c 6.36911,-8.92965 6.41611,-8.93709 59.18644,-9.37585 51.68147,-0.42971 55.5102,-0.038 62.88079,6.43349 7.55035,6.62928 7.65736,7.9326 7.22251,87.96248 -0.38335,70.54955 -0.47471,72.80261 -3.13583,77.33259 -1.50752,2.56627 -5.10752,6.00639 -8,7.64474 -5.18707,2.93805 -5.94321,2.9784 -55.25903,2.94856 -38.58836,-0.0233 -50.92801,-0.43448 -54.06611,-1.80135 z M 542.8309,373.89292 487.66179,346.66668 H 433.2754 378.88903 l -28.95782,11.37559 c -15.9268,6.25657 -29.18404,11.14934 -29.46055,10.87284 -0.2765,-0.2765 -0.34552,-23.29378 -0.15336,-51.1495 l 0.34938,-50.64676 30,11.76452 30,11.76452 55.68692,0.009 55.68691,0.009 37.64643,-19.4799 c 20.70552,-10.71394 44.99641,-23.3303 53.97975,-28.03635 l 16.33333,-8.55644 v 83.36969 c 0,45.85332 -0.45,83.32148 -1,83.26257 -0.55,-0.0589 -25.82611,-12.3589 -56.16912,-27.33333 z m -247.12898,18.46243 c 3.13605,-0.28166 7.93605,-0.2777 10.66666,0.009 2.73062,0.28649 0.16476,0.51695 -5.7019,0.51211 -5.86667,-0.005 -8.10082,-0.23926 -4.96476,-0.52092 z M 86.333336,341.68369 c 3.85,-0.26933 10.150001,-0.26933 14.000004,0 3.85,0.26934 0.7,0.48971 -7.000003,0.48971 -7.700001,0 -10.850001,-0.22037 -7.000001,-0.48971 z m -3.666667,-23.01701 v -12 h 11.333334 11.333337 v 12 12 H 94.000003 82.666669 Z M 619.00002,168.41423 c 1.28333,-0.33536 3.38333,-0.33536 4.66667,0 1.28333,0.33538 0.23333,0.60978 -2.33334,0.60978 -2.56666,0 -3.61666,-0.2744 -2.33333,-0.60978 z"
         id="path26031" />
      <path
         style="fill:none;stroke-width:1.33333"
         d="m 153.33334,494.00002 v -8.66667 h 59.33333 59.33334 v 8.66667 8.66666 h -59.33334 -59.33333 z m 460.83384,-40.04518 c -0.4586,-1.1951 -0.83383,-62.60385 -0.83383,-136.46388 0,-102.67074 0.37674,-134.66769 1.6,-135.89095 2.17342,-2.17342 11.05131,-2.02836 12.90975,0.21093 1.09829,1.32336 1.41149,38.38788 1.16327,137.66667 l -0.33968,135.85574 -6.83284,0.39721 c -5.3321,0.30998 -7.01598,-0.08 -7.66667,-1.77572 z M 53.333335,318.66668 v -18.66667 h 8.666667 8.666667 v 18.66667 18.66666 h -8.666667 -8.666667 z"
         id="path26029" />
      <path
         style="fill:#5e5e5e;stroke-width:1.33333"
         d="m 188.49329,461.33335 c 0,-7.7 0.22037,-10.85 0.4897,-7 0.26934,3.85 0.26934,10.15 0,14 -0.26933,3.85 -0.4897,0.7 -0.4897,-7 z m 10.65405,0 c 0,-6.96667 0.22472,-9.81667 0.49939,-6.33333 0.27466,3.48333 0.27466,9.18333 0,12.66666 -0.27467,3.48334 -0.49939,0.63334 -0.49939,-6.33333 z m 25.33333,0 c 0,-6.96667 0.22472,-9.81667 0.49939,-6.33333 0.27467,3.48333 0.27467,9.18333 0,12.66666 -0.27467,3.48334 -0.49939,0.63334 -0.49939,-6.33333 z m -43.14733,-30.59699 v -9.26365 l -7,-0.48971 -7,-0.48971 7.66667,-0.24664 7.66666,-0.24664 v 10 c 0,5.5 -0.3,10.00001 -0.66666,10.00001 -0.36667,0 -0.66667,-4.16865 -0.66667,-9.26366 z m 63.63694,-10.36532 c 2.36697,-0.29455 6.56697,-0.29939 9.33333,-0.0107 2.76635,0.28864 0.82973,0.52963 -4.3036,0.53555 -5.13333,0.005 -7.39672,-0.23024 -5.02973,-0.52479 z m -73.97027,-10.68441 c 3.48333,-0.27467 9.18333,-0.27467 12.66666,0 3.48334,0.27466 0.63334,0.49938 -6.33333,0.49938 -6.96667,0 -9.81667,-0.22472 -6.33333,-0.49938 z m 68.66666,-0.003 c 3.85,-0.26933 10.15001,-0.26933 14.00001,0 3.85,0.26933 0.7,0.48971 -7,0.48971 -7.70001,0 -10.85001,-0.22038 -7.00001,-0.48971 z m -88.46001,-7.35061 -2.53999,-3 3,2.53998 c 2.81926,2.38696 3.60699,3.46002 2.53999,3.46002 -0.25301,0 -1.60301,-1.35 -3,-3 z m -15.9972,-33 c 0,-12.1 0.20213,-17.05 0.4492,-11 0.24705,6.05 0.24705,15.95 0,22 -0.24707,6.05 -0.4492,1.1 -0.4492,-11 z m 10.74624,-51.33334 c -2e-4,-40.33333 0.16925,-57.02581 0.37656,-37.09439 0.20731,19.93142 0.20748,52.93142 3.7e-4,73.33334 -0.20712,20.40191 -0.37673,4.09439 -0.37693,-36.23895 z m 173.00344,0.33333 c 0.16086,-28.78333 0.45866,-44.23333 0.66178,-34.33333 0.93417,45.52984 0.95589,86.66851 0.0457,86.66763 -0.55,-5.2e-4 -0.86839,-23.55096 -0.70753,-52.3343 z m -237.034124,-0.33333 0.07499,-12 h 12 H 106 l 0.075,12 0.075,12 -0.45836,-11.66667 -0.45835,-11.66666 H 94.000003 82.766739 l -0.458355,11.66666 -0.458355,11.66667 z m 5.78635,-22.98453 c 3.874582,-0.2702 9.874583,-0.26736 13.333334,0.007 3.45875,0.27331 0.28864,0.49436 -7.044697,0.4909 -7.333333,-0.003 -10.16322,-0.22738 -6.288637,-0.49756 z m 319.288644,-5.34742 c 15.95,-0.21269 42.05001,-0.21269 58.00001,0 15.95,0.21271 2.9,0.38674 -29.00001,0.38674 -31.9,0 -44.95,-0.17403 -29,-0.38674 z m -282.37048,-1.30013 9.97162,-0.47891 0.41723,-21.2792 0.41724,-21.27918 -0.0512,21.66802 -0.0511,21.66802 -10.33771,0.0901 -10.33772,0.0901 9.97162,-0.47892 z m 283.70382,-9.3664 c 15.21666,-0.21392 40.11667,-0.21392 55.33333,0 15.21667,0.21392 2.76667,0.38896 -27.66667,0.38896 -30.43333,0 -42.88333,-0.17504 -27.66666,-0.38896 z M 272.54,233.00001 l -2.53999,-3 3,2.53998 c 2.81925,2.38696 3.60699,3.46002 2.53999,3.46002 -0.25302,0 -1.60302,-1.35 -3,-3 z m -129.87333,-5.50342 c 0,-0.27686 1.05,-1.32686 2.33333,-2.33333 2.11475,-1.65849 2.16191,-1.61133 0.50342,0.50341 -1.74183,2.221 -2.83675,2.92731 -2.83675,1.82992 z m 118.41667,-0.4074 c 0.9625,-0.38516 2.1125,-0.3378 2.55556,0.1052 0.44306,0.44306 -0.34445,0.75819 -1.75,0.7003 -1.55326,-0.064 -1.8692,-0.37992 -0.80556,-0.80555 z"
         id="path26027" />
      <path
         style="fill:#5c5c5c;stroke-width:1.33333"
         d="m 272.43753,494.00002 c 0.005,-5.13334 0.24691,-7.06995 0.53555,-4.3036 0.28862,2.76636 0.28378,6.96636 -0.0107,9.33333 -0.29455,2.36699 -0.53071,0.1036 -0.52479,-5.02973 z m 347.2447,-37.60968 c 1.65855,-0.31892 4.05855,-0.30682 5.33334,0.0269 1.27478,0.33372 -0.0823,0.59467 -3.01555,0.57987 -2.93333,-0.0148 -3.97633,-0.28786 -2.31779,-0.60678 z m 10.29268,-138.39033 c -6e-5,-74.06667 0.16108,-104.56242 0.35811,-67.76832 0.19701,36.79408 0.19707,97.39408 1.2e-4,134.66667 -0.19696,37.27257 -0.35816,7.16832 -0.35823,-66.89835 z m -28.11926,115.33334 c 0,-9.9 0.20989,-13.95 0.46644,-9 0.25654,4.95 0.25654,13.05 0,18 -0.25655,4.95 -0.46644,0.9 -0.46644,-9 z M 52.52986,318.66668 c 0,-10.63334 0.207068,-14.98334 0.460151,-9.66667 0.253081,5.31667 0.253081,14.01667 0,19.33333 -0.253083,5.31667 -0.460151,0.96667 -0.460151,-9.66666 z m 3.136809,-30.30962 c 3.116666,-0.2807 8.216667,-0.2807 11.333333,0 3.116667,0.28072 0.566667,0.5104 -5.666667,0.5104 -6.233333,0 -8.783333,-0.22968 -5.666666,-0.5104 z M 601.85565,202.66667 c 0,-9.9 0.20989,-13.95 0.46644,-9 0.25654,4.95 0.25654,13.05 0,18 -0.25655,4.95 -0.46644,0.9 -0.46644,-9 z"
         id="path26025" />
      <path
         style="fill:#474747;stroke-width:1.33333"
         d="m 283.13996,494.00002 c -0.004,-6.6 0.2214,-9.46811 0.50102,-6.37356 0.27963,3.09453 0.28296,8.49453 0.008,12 -0.27556,3.50545 -0.50436,0.97356 -0.50841,-5.62644 z m -130.58717,8.18404 c -0.38326,-0.99879 -0.51442,-5.34879 -0.29148,-9.66667 l 0.40536,-7.85071 23.00123,-0.0487 23.00121,-0.0487 -22.66788,0.41348 -22.66789,0.41348 v 8.62145 8.62146 l 59.66667,0.36113 59.66667,0.36115 -59.70851,0.31925 c -49.37318,0.26399 -59.82915,0.005 -60.40538,-1.49671 z m 83.71311,-17.84248 c 6.37957,-0.24388 17.17958,-0.24503 24,-0.003 6.82043,0.24248 1.60078,0.44201 -11.59922,0.44341 -13.20001,10e-4 -18.78035,-0.19698 -12.40078,-0.44086 z m 382.06745,-17.28254 c 1.65,-0.31781 4.35,-0.31781 6,0 1.65,0.3178 0.3,0.57783 -3,0.57783 -3.3,0 -4.65,-0.26003 -3,-0.57783 z m -5.69177,-149.05903 c -7e-5,-74.06667 0.16108,-104.56242 0.35811,-67.76832 0.19701,36.79408 0.19706,97.39408 1.2e-4,134.66667 -0.19696,37.27257 -0.35816,7.16832 -0.35823,-66.89835 z m 27.99988,0.66667 c 0,-73.7 0.16123,-103.85001 0.35828,-67 0.19706,36.85 0.19706,97.15 0,134 -0.19705,36.85 -0.35828,6.7 -0.35828,-67 z m -598.771475,0 c 0,-11.36667 0.204492,-16.01667 0.454427,-10.33334 0.249935,5.68334 0.249935,14.98334 0,20.66667 -0.249935,5.68333 -0.454427,1.03333 -0.454427,-10.33333 z m 46.503582,12.35164 c 3.50546,-0.27558 8.90546,-0.27224 12.000003,0.008 3.09454,0.27962 0.22643,0.50509 -6.373567,0.50102 -6.6,-0.004 -9.131896,-0.23285 -5.626436,-0.50841 z m -32.040232,-31.9896 c 2.75,-0.28766 7.250001,-0.28766 10.000001,0 2.75,0.28766 0.5,0.52301 -5.000001,0.52301 -5.5,0 -7.75,-0.23535 -5,-0.52301 z M 619.66669,179.11697 c 0.91666,-0.36988 2.41666,-0.36988 3.33333,0 0.91667,0.36988 0.16667,0.67252 -1.66667,0.67252 -1.83333,0 -2.58333,-0.30264 -1.66666,-0.67252 z m -14.33334,-3.62038 c 0,-0.27686 1.05,-1.32686 2.33334,-2.33333 2.11474,-1.65849 2.1619,-1.61133 0.50341,0.50341 -1.74183,2.221 -2.83675,2.92731 -2.83675,1.82992 z"
         id="path26023" />
      <path
         style="fill:none;stroke-width:1.33333"
         d="m 193.33334,430.00001 v -8.66666 h 18.66667 18.66666 v 8.66666 8.66667 h -18.66666 -18.66667 z m 97.33334,-112 v -63.33333 h 8.66666 8.66667 v 63.33333 63.33334 h -8.66667 -8.66666 z m -173.33334,0.66667 V 300.00001 H 126 h 8.66667 v 18.66667 18.66666 H 126 117.33334 Z"
         id="path26021" />
      <path
         style="fill:#000000;stroke-width:1.33333"
         d="m 145.9394,510.06062 c -3.01977,-3.01976 -3.27273,-4.26112 -3.27273,-16.0606 0,-11.79948 0.25296,-13.04084 3.27273,-16.0606 3.18471,-3.18472 3.81219,-3.27274 23.33334,-3.27274 h 20.0606 v -12.60606 c 0,-11.66868 -0.24787,-12.85392 -3.33333,-15.93939 -3.0281,-3.02809 -3.33334,-4.36212 -3.33334,-14.56824 v -11.2349 l -12.33333,-0.5746 c -13.53993,-0.6308 -18.01828,-2.30022 -25.0597,-9.34162 -8.2284,-8.22842 -9.2117,-12.34862 -9.24436,-38.73519 L 136,348.00001 h -11.39394 c -10.37575,0 -11.69181,-0.29786 -14.72727,-3.33333 -3.09066,-3.09067 -4.26131,-3.33334 -16.080252,-3.33334 -11.769887,0 -13.061521,0.26473 -16.851385,3.45369 -3.885991,3.26984 -4.771979,3.42953 -16.645095,3 -17.881097,-0.64688 -17.63539,-0.23306 -17.63539,-29.70231 0,-22.26875 0.09202,-23.03966 3.085935,-25.8523 2.732047,-2.56661 4.574196,-2.89908 16.063666,-2.89908 12.13023,0 13.179471,0.21768 16.06696,3.33334 2.875756,3.10298 3.960934,3.33333 15.703917,3.33333 11.731714,0 12.833874,-0.23332 15.746194,-3.33333 2.8815,-3.06723 4.07095,-3.33334 14.89908,-3.33334 H 136 v -23.76092 c 0,-23.27939 0.0743,-23.90743 3.66667,-30.99084 4.61915,-9.10801 12.4813,-15.20296 22.21859,-17.22441 4.87352,-1.01175 23.2548,-1.3749 55.69453,-1.10032 46.5829,0.39428 48.62326,0.51857 53.77103,3.27578 9.0087,4.82518 17.98252,16.01056 17.98252,22.41426 0,1.6673 1.89162,2.05312 10.06622,2.05312 11.66626,0 17.03494,2.16991 18.94828,7.65848 1.18433,3.39739 4.21668,4.86815 33.14455,16.07587 l 31.84096,12.33636 53.33333,-0.0925 53.33334,-0.0925 56,-29.09507 56,-29.09508 0.66667,-21.49256 0.66666,-21.49256 4.24168,-4.23793 c 8.02215,-8.01506 25.70304,-6.27043 30.50199,3.00972 1.69378,3.27538 1.91186,22.61574 1.60794,142.59647 l -0.3516,138.80714 -4.35438,3.89041 c -3.90109,3.48552 -5.29284,3.89049 -13.36999,3.89049 -16.55052,0 -18.9423,-4.00426 -18.9423,-31.71272 v -19.84515 l -58.55491,-28.88773 -58.55491,-28.88773 h -52.32042 -52.32041 l -28.79135,11.25096 c -15.83524,6.18804 -29.84135,11.65222 -31.12468,12.14265 -1.28333,0.49043 -2.33333,1.98395 -2.33333,3.31893 0,1.33499 -1.58092,3.67079 -3.51315,5.19068 -2.90207,2.28276 -5.40511,2.76344 -14.39012,2.76344 h -10.87699 l -1.54284,5.66667 c -2.11938,7.78428 -8.8436,15.4002 -16.91576,19.15897 -5.47389,2.54891 -8.98236,3.15079 -18.42781,3.16134 l -11.66667,0.013 v 10.08766 c 0,10.02549 -1.40661,14.93824 -4.86131,16.9786 -1.32585,0.78305 -1.80536,4.58999 -1.80536,14.33333 v 13.26708 h 20.48686 c 18.70708,0 20.79205,0.24007 24,2.76344 3.3912,2.66752 3.51315,3.24266 3.51315,16.5699 0,21.11094 6.4583,19.33333 -70.24042,19.33333 h -63.21413 z m 126.72728,-16.0606 v -9.33334 h -60.00001 -60 l -0.40536,7.85071 c -0.22294,4.31788 -0.0895,8.67408 0.29676,9.68041 0.58338,1.52026 10.79978,1.77102 60.40536,1.48263 l 59.70325,-0.34708 z m -47.33334,-32.66667 v -12 h -13.33333 -13.33334 v 12 12 h 13.33334 13.33333 z m 403.23811,-6.09524 c 1.87702,-1.87703 2.09524,-16.08361 2.09524,-136.41183 0,-113.1503 -0.29475,-134.71967 -1.87036,-136.87446 -2.60508,-3.56265 -12.32087,-3.56265 -14.92595,0 -1.57543,2.15452 -1.87036,23.60096 -1.87036,136.00635 0,149.3603 -0.66725,139.37518 9.31371,139.37518 2.91538,0 6.07448,-0.912 7.25772,-2.09524 z m -397.90478,-25.2381 v -8.66666 h -18.66666 -18.66667 v 8.66666 8.66667 h 18.66667 18.66666 z m 36.66667,-22.27557 c 4.44095,-2.37337 8.88355,-6.87036 11.16672,-11.30344 1.05867,-2.05555 1.49995,-24.94351 1.49995,-77.7985 0,-83.35669 0.29111,-80.54571 -9.08196,-87.69776 l -4.70669,-3.5914 -49.43902,-0.39988 c -27.19145,-0.21993 -51.4248,-0.036 -53.85188,0.40867 -5.97653,1.09506 -14.54181,9.08081 -16.21992,15.12249 -0.83874,3.01964 -1.34403,32.2134 -1.33048,76.86872 0.0203,67.01601 0.19137,72.36919 2.47092,77.33334 1.347,2.93333 3.69409,6.44039 5.21579,7.79344 5.92928,5.2722 10.25057,5.66285 61.17282,5.53008 42.33554,-0.1104 49.6551,-0.42269 53.10375,-2.26576 z m 332.1752,-172.66037 c -0.28143,-0.28141 -24.28887,11.81405 -53.34989,26.87881 l -52.83822,27.39046 h -57.06967 -57.06967 l -28.98666,-11.33333 c -15.94269,-6.23333 -29.55842,-11.33333 -30.25722,-11.33333 -0.78344,0 -1.27053,19.93568 -1.27053,52 0,28.6 0.1967,52 0.43712,52 0.24041,0 14.19041,-5.39639 31,-11.99196 l 30.56288,-11.99196 52.84739,-0.008 52.8474,-0.008 56.48594,27.76013 56.48594,27.76014 0.34343,-83.30559 c 0.18889,-45.81808 0.1132,-83.53586 -0.16824,-83.81729 z m -291.50853,82.93594 v -63.33333 h -8.66667 -8.66666 v 63.33333 63.33334 h 8.66666 8.66667 z m -237.333341,0 v -19.33333 h -9.333334 -9.333333 v 19.33333 19.33333 h 9.333333 9.333334 z m 64.000001,0.66667 V 300.00001 H 126 117.33334 v 18.66667 18.66666 H 126 h 8.66667 z m -28.66667,0 v -12.66667 l -12.33333,-0.38337 -12.333334,-0.38336 v 12.49448 c 0,6.87196 0.421587,12.91606 0.936859,13.43133 0.515272,0.51527 6.065272,0.76527 12.333334,0.55556 L 106,331.33334 Z"
         id="path26019" />
    </g>
  </g>
</svg>
