<?xml version="1.0"?>
<svg xmlns="http://www.w3.org/2000/svg" viewBox="0 0 512 512" width="512" height="512"><g id="solid"><path d="M362.4,151.585a106.968,106.968,0,0,1-43.1,37.679,123.49,123.49,0,0,0,33.769-60.378l.53-2.3a8,8,0,0,0-2.185-7.5,136.4,136.4,0,0,0-55.553-33.139,8,8,0,0,0-10.173,9.266,107.636,107.636,0,0,1-3.833,57.219A123.494,123.494,0,0,0,263.034,85.77l-1.25-2a7.961,7.961,0,0,0-6.844-3.76,136.127,136.127,0,0,0-62.709,15.848,8,8,0,0,0-.646,13.74A106.946,106.946,0,0,1,229.264,152.7a123.481,123.481,0,0,0-60.377-33.768l-2.3-.531a8.006,8.006,0,0,0-7.5,2.185,136.386,136.386,0,0,0-33.139,55.554,8,8,0,0,0,9.268,10.172,107.625,107.625,0,0,1,57.216,3.833,123.488,123.488,0,0,0-66.663,18.818l-2,1.25a8,8,0,0,0-3.76,6.845,136.126,136.126,0,0,0,15.848,62.708A8,8,0,0,0,142.544,284c.126.006.251.009.377.009a8,8,0,0,0,6.677-3.595,106.968,106.968,0,0,1,43.1-37.679,123.49,123.49,0,0,0-33.769,60.378l-.53,2.3a8,8,0,0,0,2.185,7.5,136.4,136.4,0,0,0,55.553,33.139,8,8,0,0,0,10.173-9.266,107.636,107.636,0,0,1,3.833-57.219,123.494,123.494,0,0,0,18.818,66.664l1.25,2,6.844,3.76a136.127,136.127,0,0,0,62.709-15.848,8,8,0,0,0,.646-13.74,106.946,106.946,0,0,1-37.679-43.1,123.481,123.481,0,0,0,60.377,33.768l2.3.531a8.08,8.08,0,0,0,1.8.2,8,8,0,0,0,5.7-2.389,136.386,136.386,0,0,0,33.139-55.554,8,8,0,0,0-9.268-10.172,107.625,107.625,0,0,1-57.216-3.833c.375,0,.75.012,1.124.012a123.5,123.5,0,0,0,65.539-18.83l2-1.25a8,8,0,0,0,3.76-6.845,136.126,136.126,0,0,0-15.848-62.708,8,8,0,0,0-13.74-.646ZM256,248a32,32,0,1,1,32-32A32.036,32.036,0,0,1,256,248Z"/><circle cx="112" cy="72" r="8"/><path d="M488,16H24a8,8,0,0,0-8,8V408a8,8,0,0,0,8,8h85.754l18.485,73.94A8,8,0,0,0,136,496H376a8,8,0,0,0,7.761-6.06L402.246,416H488a8,8,0,0,0,8-8V24A8,8,0,0,0,488,16ZM112,48A24,24,0,1,1,88,72,24.027,24.027,0,0,1,112,48ZM56,400H32V384H56Zm0-32H32V352H56Zm0-32H32V320H56Zm0-32H32V288H56Zm0-32H32V256H56Zm0-32H32V224H56Zm0-32H32V192H56Zm0-32H32V160H56Zm0-32H32V128H56Zm0-32H32V96H56Zm0-32H32V64H56Zm0-32H32V32H56ZM88,360a24,24,0,1,1,24,24A24.027,24.027,0,0,1,88,360ZM193.223,480H142.246l-16-64h15.508l10.485,41.94A8,8,0,0,0,160,464h35.89Zm118.668-41.315A8,8,0,0,0,304,432H208a8,8,0,0,0-7.891,6.685L198.556,448h-32.31l-8-32H353.754l-8,32h-32.31ZM369.754,480H318.777l-2.667-16H352a8,8,0,0,0,7.761-6.06L370.246,416h15.508ZM400,384a24,24,0,1,1,24-24A24.027,24.027,0,0,1,400,384Zm-144,0c-92.636,0-168-75.364-168-168S163.364,48,256,48s168,75.364,168,168S348.636,384,256,384ZM400,96a24,24,0,1,1,24-24A24.027,24.027,0,0,1,400,96Zm80,304H456V384h24Zm0-32H456V352h24Zm0-32H456V320h24Zm0-32H456V288h24Zm0-32H456V256h24Zm0-32H456V224h24Zm0-32H456V192h24Zm0-32H456V160h24Zm0-32H456V128h24Zm0-32H456V96h24Zm0-32H456V64h24Zm0-32H456V32h24Z"/><circle cx="400" cy="360" r="8"/><circle cx="112" cy="360" r="8"/><circle cx="400" cy="72" r="8"/><circle cx="256" cy="216" r="16"/></g></svg>
