<svg id="Art" height="512" viewBox="0 0 512 512" width="512" xmlns="http://www.w3.org/2000/svg"><g id="fishing_boat" data-name="fishing boat"><path d="m92.746 128.417h10v88.78h-10z" fill="#e6e6ff"/><path d="m224.6133 66.8666c-.458 1.7314-11.6944 42.6372-53.1406 63.3608a92.34 92.34 0 0 1 -41.6045 10.1926c-20.2452 0-33.6514-7.14-34.5225-7.6162l4.7881-8.78c1.2051.65 29.957 15.7143 66.8662-2.7412 37.2959-18.648 47.8457-56.6011 47.9473-56.982z" fill="#e6e6ff"/><g fill="#7e778a"><path d="m219.7793 255.4508a4.9837 4.9837 0 0 1 -3.5352-1.4644l-122.0332-122.0332c-4.6827-4.6815 2.3988-11.7452 7.07-7.0713l122.0336 122.0332a5 5 0 0 1 -3.5352 8.5357z"/><path d="m239.7451 246.9429v-40.2666c0-6.6113 10-6.6195 10 0v40.2666z"/><path d="m219.7793 255.4508a5 5 0 0 1 -5-5v-184.8628c0-6.6114 10-6.62 10 0v184.8628a5 5 0 0 1 -5 5z"/></g><path d="m205.448 238.3143h140.1345a0 0 0 0 1 0 0v118.4851a0 0 0 0 1 0 0h-150.1345a0 0 0 0 1 0 0v-108.4851a10 10 0 0 1 10-10z" fill="#e6e6ff"/><path d="m279.7282 346h-48.6058v-51.3862c0-32.1671 48.6058-32.1471 48.6058 0z" fill="#ccccf0"/><path d="m344.3421 200.2373h54.3386a10 10 0 0 1 10 10v96.4557a0 0 0 0 1 0 0h-74.3386a0 0 0 0 1 0 0v-96.4557a10 10 0 0 1 10-10z" fill="#f2f2ff"/><path d="m225.8644 339.3055c54.1953-1.7846 77.58-9.5823 91.8647-40.6247a20.4724 20.4724 0 0 1 18.5641-12.01h124.8868a10.0072 10.0072 0 0 1 9.6974 12.4429c-7.565 30.4442-34.58 106.2144-116.0828 106.2144-72.6216 0-186.46-1.8327-246.0035-2.8882a39.9929 39.9929 0 0 1 -39.2825-39.9936v-13.1408a10 10 0 0 1 10-10z" fill="#b8b8cf"/><path d="m443.8213 359.3055h-374.3125v3.1411a39.9928 39.9928 0 0 0 39.2822 39.9934c59.5435 1.0554 173.3819 2.8882 246.0039 2.8882 43.3125.0003 71.231-21.4001 89.0264-46.0227z" fill="#ff596d"/><path d="m402.437 390.5766c-21.6534 2.22-21.9722-3.4643-44.927-2.3334-26.8927 1.3249-28.6236 9.2333-51.7087 8.9447-21.8835-.2736-22.4114-7.86-49.8013-8.4877-27.39.6279-27.9178 8.2141-49.8013 8.4877-23.0851.2886-24.816-7.62-51.7087-8.9447-22.9548-1.1309-23.2736 4.5531-44.927 2.3334-21.5771-2.2119-40.5961-15.3625-77.563-.3889v48.1593c36.9669-14.9736 55.9859-1.823 77.563.3889 21.6534 2.22 21.9722-3.4643 44.927-2.3334 26.8927 1.3249 28.6236 9.2333 51.7087 8.9447 21.8835-.2736 22.4114-7.86 49.8013-8.4877 27.39.6279 27.9178 8.2141 49.8013 8.4877 23.0851.2886 24.816-7.62 51.7087-8.9447 22.9548-1.1309 23.2736 4.5531 44.927 2.3334 21.5771-2.2119 40.5961-15.3625 77.563-.3889v-48.1593c-36.9669-14.9736-55.9859-1.823-77.563.3889z" fill="#79a5ff"/><path d="m229.6685 446.2829c-43.0918 13.8194-51.7335-11.4789-96.6084-3.4976-41.0976 7.3128-54.1182-18.06-99.1836.1958-6.1321 2.4854-9.8839-6.7859-3.7539-9.2685 48.0615-19.4679 63.7422 5.89 101.1865-.7725 47.7281-8.4973 56.0507 16.4111 95.3057 3.8208 51.3112-16.4539 58.8587 13.5993 102.3886-.1382 43.7-13.7846 47.1651 4.15 89.083-6.041 16.42-3.9927 35.0332-8.5176 63.79 3.1309 6.1307 2.4829 2.3807 11.7514-3.7539 9.2685-25.7735-10.4389-41.99-6.4966-57.6739-2.6826-45.6061 11.089-46.3336-7.4244-88.4365 5.8613-46.5984 14.7002-54.9185-15.0849-102.3436.1231z" fill="#7a89eb"/><path d="m229.6685 398.0836c-43.0918 13.8194-51.7335-11.4788-96.6084-3.4976-41.0976 7.3128-54.1182-18.06-99.1836.1958-6.1321 2.4854-9.8839-6.7859-3.7539-9.2685 48.0615-19.4678 63.7422 5.89 101.1865-.7725 47.7281-8.4973 56.0507 16.4111 95.3057 3.8208 51.3112-16.4539 58.8587 13.5993 102.3886-.1382 43.7-13.7846 47.1651 4.15 89.083-6.041 16.42-3.9927 35.0332-8.5176 63.79 3.1309 6.1307 2.4829 2.3807 11.7514-3.7539 9.2685-25.7735-10.4389-41.99-6.4966-57.6739-2.6826-45.6061 11.089-46.3336-7.4244-88.4365 5.8613-46.5984 14.7003-54.9185-15.0849-102.3436.1231z" fill="#7a89eb"/><path d="m229.6685 422.1633c-43.0918 13.8194-51.7335-11.4789-96.6084-3.4976-41.0976 7.3128-54.1182-18.06-99.1836.1958-6.1321 2.4854-9.8839-6.7859-3.7539-9.2685 48.0615-19.4679 63.7422 5.89 101.1865-.7725 47.7281-8.4973 56.0507 16.4111 95.3057 3.8208 51.3112-16.4539 58.8587 13.5993 102.3886-.1382 43.7-13.7846 47.1651 4.15 89.083-6.041 16.42-3.9927 35.0332-8.5176 63.79 3.1309 6.1307 2.4829 2.3807 11.7514-3.7539 9.2685-25.7735-10.4389-41.99-6.4966-57.6739-2.6826-45.6061 11.089-46.3336-7.4244-88.4365 5.8613-46.5984 14.7003-54.9185-15.0849-102.3436.1231z" fill="#7a89eb"/><path d="m373.4844 223.3982h35.1963a0 0 0 0 1 0 0v30.0669a0 0 0 0 1 0 0h-35.1963a10 10 0 0 1 -10-10v-10.0669a10 10 0 0 1 10-10z" fill="#414344"/><path d="m81.0574 213.3765c-4.4234-4.9133 3.0018-11.6118 7.4317-6.6924a11.6977 11.6977 0 0 0 17.3837.001c4.4237-4.9124 11.8609 1.7708 7.4317 6.69a21.7045 21.7045 0 0 1 -32.2471.0014z" fill="#938ca3"/><path d="m93.9088 217.9983c-8.5177 19.31-29.0908 44.73-4.4292 81.2085a8.0862 8.0862 0 0 0 12.4736 1.119c24.4705-25.3088 7.4378-58.8062-1.1952-82.15a3.6881 3.6881 0 0 0 -6.8492-.1775z" fill="#9e9eb8"/><circle cx="93.117" cy="276.335" fill="#414344" r="5"/></g></svg>