<?xml version="1.0" encoding="iso-8859-1"?>
<!-- Generator: Adobe Illustrator 24.1.0, SVG Export Plug-In . SVG Version: 6.00 Build 0)  -->
<svg version="1.1" id="Capa_1" xmlns="http://www.w3.org/2000/svg" xmlns:xlink="http://www.w3.org/1999/xlink" x="0px" y="0px"
	 viewBox="0 0 512 512" style="enable-background:new 0 0 512 512;" xml:space="preserve">
<g>
	<path style="fill:#5D5360;" d="M113.778,178.794c-8.977,0-16.254,7.277-16.254,16.254v73.143h32.508v-73.143
		C130.032,186.07,122.754,178.794,113.778,178.794z"/>
	<path style="fill:#6F6571;" d="M251.929,316.952c-3.698,0-7.04-2.54-7.913-6.302l-44.397-192.405
		c-1.714-7.413-8.23-12.595-15.841-12.595H81.27c-4.484,0-8.127,3.643-8.127,8.127v146.286c0,4.492-3.635,8.127-8.127,8.127
		c-4.492,0-8.127-3.635-8.127-8.127V113.778c0-13.444,10.937-24.381,24.381-24.381h102.508c15.23,0,28.254,10.357,31.683,25.198
		L259.857,307c1.008,4.373-1.722,8.738-6.095,9.746C253.151,316.889,252.532,316.952,251.929,316.952z"/>
	<rect x="300.698" y="162.54" style="fill:#4B3F4E;" width="32.508" height="32.508"/>
	<path style="fill:#857E87;" d="M276.317,97.524c-4.489,0-8.127,3.638-8.127,8.127v203.175h32.508V97.524H276.317z"/>
	<path style="fill:#FFE07D;" d="M192.259,300.698c-8.622,0-16.89-3.425-22.987-9.521l-29.719-29.719
		c-6.096-6.097-14.365-9.521-22.987-9.521H16.254L8.746,268.19v112.556C8.746,389.723,16.023,397,25,397h275.698v-96.302H192.259z"
		/>
	<path style="fill:#FFD064;" d="M284.444,316.952c-35.956,0-65.852,25.944-71.989,60.133c-1.364,7.6-8.167,13.01-15.889,13.01
		h-19.291c-7.721,0-14.525-5.41-15.889-13.01c-6.138-34.189-36.034-60.133-71.989-60.133c-14.772,0-28.487,4.416-39.97,11.963
		c-6.401,4.206-14.768,3.956-21.335,0.015l0,0c-7.344-4.406-11.837-12.342-11.837-20.906v-56.088C7.277,251.937,0,259.213,0,268.19
		v121.905c0,8.977,7.277,16.254,16.254,16.254h284.444v-87.522C295.464,317.638,290.039,316.952,284.444,316.952z"/>
	<path style="fill:#6F6571;" d="M300.698,357.587c-4.492,0-8.127-3.635-8.127-8.127V73.143c0-4.492,3.635-8.127,8.127-8.127
		s8.127,3.635,8.127,8.127V349.46C308.825,353.952,305.19,357.587,300.698,357.587z"/>
	<path style="fill:#6F6571;" d="M32.508,308.825c-4.492,0-8.127-3.635-8.127-8.127v-16.254c0-4.492,3.635-8.127,8.127-8.127
		s8.127,3.635,8.127,8.127v16.254C40.635,305.19,37,308.825,32.508,308.825z"/>
	<path style="fill:#6F6571;" d="M65.016,308.825c-4.492,0-8.127-3.635-8.127-8.127v-16.254c0-4.492,3.635-8.127,8.127-8.127
		c4.492,0,8.127,3.635,8.127,8.127v16.254C73.143,305.19,69.508,308.825,65.016,308.825z"/>
	<path style="fill:#6F6571;" d="M97.524,308.825c-4.492,0-8.127-3.635-8.127-8.127v-16.254c0-4.492,3.635-8.127,8.127-8.127
		s8.127,3.635,8.127,8.127v16.254C105.651,305.19,102.016,308.825,97.524,308.825z"/>
	<path style="fill:#6F6571;" d="M503.873,235.683h-162.54c-8.96,0-16.254-7.294-16.254-16.254V73.143
		c0-4.492,3.635-8.127,8.127-8.127s8.127,3.635,8.127,8.127v146.286h162.54c4.492,0,8.127,3.635,8.127,8.127
		S508.365,235.683,503.873,235.683z"/>
	<path style="fill:#F6D190;" d="M471.365,81.27h-32.508L423.5,94l-17.151-12.73h-24.381c-4.489,0-8.127,3.638-8.127,8.127v89.397
		c0,4.488,3.638,8.127,8.127,8.127h89.397c4.489,0,8.127-3.639,8.127-8.127V89.397C479.492,84.908,475.854,81.27,471.365,81.27z"/>
	<path style="fill:#D19A6E;" d="M406.349,81.27v40.635c0,4.488,3.639,8.127,8.127,8.127h16.254c4.488,0,8.127-3.639,8.127-8.127
		V81.27H406.349z"/>
	<path style="fill:#5D5360;" d="M146.286,390.095c0,12.587-4.088,24.219-11.008,33.641c-10.354,14.097-27.049,19.764-45.881,19.764
		c-31.419,0-52.647-21.986-52.647-53.405c0-18.811,4.888-35.49,18.959-45.847c9.43-6.941,21.08-11.042,33.688-11.042
		C120.816,333.206,146.286,358.676,146.286,390.095z"/>
	<circle style="fill:#6F6571;" cx="89.397" cy="390.095" r="24.381"/>
	<circle style="fill:#857E87;" cx="89.397" cy="390.095" r="8.127"/>
	<path style="fill:#4B3F4E;" d="M101.587,434.794c-31.419,0-56.889-25.47-56.889-56.889c0-12.597,4.08-24.23,11.011-33.656
		c-14.084,10.355-23.201,27.024-23.201,45.847c0,31.419,25.47,56.889,56.889,56.889c18.821,0,35.526-9.163,45.881-23.248
		C125.852,430.667,114.185,434.794,101.587,434.794z"/>
	<path style="fill:#ECBD83;" d="M414.476,178.794c-17.954,0-32.508-14.554-32.508-32.508V81.27h-8.127
		c-4.488,0-8.127,3.639-8.127,8.127v97.524c0,4.488,3.639,8.127,8.127,8.127h97.524c4.488,0,8.127-3.639,8.127-8.127v-8.127H414.476
		z"/>
	<path style="fill:#5D5360;" d="M341.333,390.095c0,12.587-4.088,24.219-11.008,33.641c-10.354,14.097-27.049,19.764-45.881,19.764
		c-31.419,0-52.647-21.986-52.647-53.405c0-18.811,4.888-35.49,18.959-45.847c9.43-6.941,21.08-11.042,33.688-11.042
		C315.863,333.206,341.333,358.676,341.333,390.095z"/>
	<circle style="fill:#6F6571;" cx="284.444" cy="390.095" r="24.381"/>
	<circle style="fill:#857E87;" cx="284.444" cy="390.095" r="8.127"/>
	<path style="fill:#4B3F4E;" d="M296.635,434.794c-31.419,0-56.889-25.47-56.889-56.889c0-12.597,4.08-24.23,11.011-33.656
		c-14.084,10.355-23.201,27.024-23.201,45.847c0,31.419,25.47,56.889,56.889,56.889c18.821,0,35.526-9.163,45.881-23.248
		C320.9,430.667,309.232,434.794,296.635,434.794z"/>
</g>
<g>
</g>
<g>
</g>
<g>
</g>
<g>
</g>
<g>
</g>
<g>
</g>
<g>
</g>
<g>
</g>
<g>
</g>
<g>
</g>
<g>
</g>
<g>
</g>
<g>
</g>
<g>
</g>
<g>
</g>
</svg>
