<svg id="Icons" height="512" viewBox="0 0 60 60" width="512" xmlns="http://www.w3.org/2000/svg"><path d="m59 60h-58a1 1 0 0 1 0-2h58a1 1 0 0 1 0 2z"/><path d="m21.321 20h17.321v-.188a1.815 1.815 0 0 0 -1.813-1.812h-13.695a1.815 1.815 0 0 0 -1.813 1.812z"/><path d="m29 16h2v-10h-2z"/><path d="m27 2a1 1 0 0 0 0 2h6a1 1 0 0 0 0-2z"/><path d="m24 12h3v-2h-3z"/><path d="m23 15a1 1 0 0 1 -1-1v-6a1 1 0 0 1 2 0v6a1 1 0 0 1 -1 1z"/><path d="m33 12h3v-2h-3z"/><path d="m37 15a1 1 0 0 1 -1-1v-6a1 1 0 0 1 2 0v6a1 1 0 0 1 -1 1z"/><path d="m43.469 58h3.531v-4h-6.865z"/><path d="m13 58h3.531l3.334-4h-6.865z"/><path d="m2 31v12a9.01 9.01 0 0 0 8 8.941v-29.882a9.01 9.01 0 0 0 -8 8.941z"/><path d="m12 52h36v-30h-36zm24-19a4 4 0 0 1 4 4c0 2.77-1.47 4.145-3.96 6h2.96a1 1 0 0 1 0 2h-6a1 1 0 0 1 -.6-1.8c.539-.405 1.042-.773 1.509-1.115 3.108-2.274 4.091-3.085 4.091-5.085a2 2 0 0 0 -4 0 1 1 0 0 1 -2 0 4 4 0 0 1 4-4zm-16-5a1 1 0 0 1 2 0v5h6v-5a1 1 0 0 1 2 0v13a1 1 0 0 1 -2 0v-6h-6v6a1 1 0 0 1 -2 0z"/><path d="m50 22.065v29.87a9.009 9.009 0 0 0 7.963-8.935v-12a9.009 9.009 0 0 0 -7.963-8.935z"/></svg>