<svg id="Heater" enable-background="new 0 0 64 64" height="512" viewBox="0 0 64 64" width="512" xmlns="http://www.w3.org/2000/svg"><path d="m21.01734 9.50088c-.14748 0-.29672-.03621-.43536-.11215-.43712-.24108-.59696-.79124-.35588-1.22837.20929-.38061.47775-.65171.71441-.89015.36736-.37178.5166-.5378.5166-.93253 0-.39915-.15189-.56605-.52455-.9396-.44507-.44507-1.05528-1.0544-1.05528-2.21918 0-1.16655.60933-1.77764 1.0544-2.22271.17661-.1775.32939-.33027.41593-.48746.24196-.43801.79124-.59431 1.22837-.35588.43801.24108.59696.79124.35588 1.22837-.21017.38149-.48128.6526-.72059.89191-.37354.37531-.52543.54309-.52543.94578 0 .39915.15189.56694.52543.94048.44507.44507 1.0544 1.0544 1.0544 2.2183 0 1.1533-.60049 1.76086-1.03939 2.20417-.17573.1775-.32762.33116-.41593.49099-.16514.29936-.47421.46803-.79301.46803zm7.74551-.46803c.08831-.15984.23932-.31349.41505-.49099.43889-.44331 1.03938-1.05087 1.03938-2.20417 0-1.1639-.60933-1.77323-1.0544-2.2183-.37354-.37354-.52543-.54133-.52543-.94048 0-.40268.15189-.57047.52543-.9449.23932-.23931.51042-.5113.72059-.89279.24108-.43801.08124-.98817-.35588-1.22837-.43889-.23843-.98905-.08213-1.22836.35588-.08654.15719-.23932.31084-.41593.48746-.44507.44596-1.0544 1.05616-1.0544 2.22271 0 1.16478.61021 1.77411 1.05528 2.21918.37266.37354.52455.54045.52455.9396 0 .39474-.14924.56076-.5166.93253-.23667.23932-.50424.51042-.71353.89015-.24108.43713-.08124.98728.35588 1.22837.13864.07594.28788.11215.43536.11215.31879 0 .62787-.16867.79301-.46803zm6.95249-.00089c.08654-.15895.23843-.31261.41505-.49011.43801-.44419 1.0385-1.05087 1.0385-2.20417 0-1.1639-.60933-1.77323-1.0544-2.2183-.37266-.37354-.52455-.54045-.52455-.94048 0-.40268.15189-.57135.52631-.94578.23843-.23931.50866-.51042.71883-.89103.24196-.43713.08301-.98728-.35323-1.22837-.43977-.24285-.98729-.08389-1.22925.35412-.08654.15719-.2402.30996-.41682.48746-.44507.44596-1.0544 1.05616-1.0544 2.2236 0 1.16478.60933 1.77411 1.0544 2.21918.37266.37354.52455.54045.52455.9396 0 .39385-.14836.56076-.51572.93165-.23666.2402-.50512.5113-.71529.89191-.2402.43713-.07948.98728.35677 1.22748.13953.07594.28788.11215.43624.11215.31792.00001.62699-.16954.79301-.46891zm6.94985.00177c.08831-.15984.2402-.31349.41682-.49099.43801-.44331 1.0385-1.05087 1.0385-2.20505 0-1.1639-.60933-1.77323-1.0544-2.2183-.37266-.37354-.52455-.54045-.52455-.94048 0-.40268.15189-.57047.52632-.9449.23843-.23931.51042-.5113.72059-.89279.2402-.43801.08125-.98817-.35676-1.22837-.43448-.23843-.98552-.08389-1.22925.35588-.08654.15719-.23843.31084-.41505.48746-.44507.44596-1.0544 1.05616-1.0544 2.22271 0 1.16478.60933 1.77411 1.0544 2.21918.37266.37354.52455.54045.52455.9396 0 .39474-.14836.56164-.51572.93342-.23666.23843-.50512.50954-.71353.88838-.24197.43713-.08301.98728.355 1.22925.13776.07594.28788.11215.43624.11215.31791 0 .62699-.16867.79124-.46715zm-41.19352 12.21213c-.68726.68726-1.12129 1.64573-1.12129 2.69472 0 2.11597 1.70004 3.81602 3.81601 3.81602h1.80855v-7.63203h-1.80855c-1.06709-.00001-2.00746.41592-2.69472 1.12129zm58.36194-1.1213h-1.80855v7.63203h1.80855c1.04888 0 2.00747-.41593 2.69472-1.12129.68726-.68726 1.12129-1.64573 1.12129-2.69472 0-2.11597-1.71814-3.81602-3.81601-3.81602zm-58.36194 32.31878c-.68726.68726-1.12129 1.64573-1.12129 2.69472 0 2.11597 1.70004 3.83412 3.81601 3.83412h1.80855v-7.65013h-1.80855c-1.06709 0-2.00746.43403-2.69472 1.12129zm58.36194-1.12129h-1.80855v7.65013h1.80855c1.04888 0 2.00747-.43404 2.69472-1.12129.68726-.70536 1.12129-1.64584 1.12129-2.71283 0-2.09798-1.71814-3.81601-3.81601-3.81601zm-47.20322-36.22531c-2.67662 0-4.8469 2.17028-4.8469 4.8469v39.20935c0 2.67673 2.17028 4.84701 4.8469 4.84701 1.62774 0 3.07456-.81387 3.94263-2.04367v-44.81592c-.1446-.21702-.32553-.43403-.52444-.61485-.86807-.88627-2.07988-1.42882-3.41819-1.42882zm9.67581 0c-1.62774 0-3.07456.81387-3.92463 2.04367v44.81592c.85007 1.2298 2.29689 2.04367 3.92463 2.04367 1.62763 0 3.07445-.81387 3.94263-2.04367v-44.81592c-.14471-.21702-.32553-.43403-.50645-.61485-.88617-.88627-2.09787-1.42882-3.43618-1.42882zm9.6938 0c-1.62774 0-3.07456.81387-3.94263 2.04367v44.81592c.86807 1.2298 2.31489 2.04367 3.94263 2.04367 1.60963 0 3.03835-.79576 3.92452-2.00758v-44.88821c-.14471-.19891-.30742-.39783-.48834-.57864-.88617-.88628-2.09787-1.42883-3.43618-1.42883zm9.6757 0c-1.62763 0-3.07456.81387-3.94263 2.06177v44.77971c.86807 1.24791 2.315 2.06178 3.94263 2.06178 1.62774 0 3.05645-.79576 3.92452-2.02568v-44.85201c-.1446-.21702-.32553-.41593-.50634-.59674-.86807-.88628-2.07987-1.42883-3.41818-1.42883zm13.11199 1.42883c-.86807-.88628-2.07977-1.42883-3.41819-1.42883-1.64573 0-3.09255.81387-3.96073 2.06177v44.77971c.86818 1.24791 2.315 2.06178 3.96073 2.06178 2.67673 0 4.84701-2.17028 4.84701-4.84701v-39.20935c0-1.33831-.54266-2.55-1.42882-3.41807z"/></svg>