<?xml version="1.0" encoding="UTF-8" standalone="no"?>
<!-- Created with Inkscape (http://www.inkscape.org/) -->

<svg
   version="1.1"
   id="svg1740"
   xml:space="preserve"
   width="682.66669"
   height="682.66669"
   viewBox="0 0 682.66669 682.66669"
   sodipodi:docname="humidifier_modified_2.svg"
   inkscape:version="1.2.2 (732a01da63, 2022-12-09)"
   xmlns:inkscape="http://www.inkscape.org/namespaces/inkscape"
   xmlns:sodipodi="http://sodipodi.sourceforge.net/DTD/sodipodi-0.dtd"
   xmlns="http://www.w3.org/2000/svg"
   xmlns:svg="http://www.w3.org/2000/svg"><sodipodi:namedview
     id="namedview17541"
     pagecolor="#505050"
     bordercolor="#ffffff"
     borderopacity="1"
     inkscape:showpageshadow="0"
     inkscape:pageopacity="0"
     inkscape:pagecheckerboard="1"
     inkscape:deskcolor="#505050"
     showgrid="false"
     inkscape:zoom="0.75219724"
     inkscape:cx="285.16457"
     inkscape:cy="448.02079"
     inkscape:window-width="2560"
     inkscape:window-height="1377"
     inkscape:window-x="2552"
     inkscape:window-y="-8"
     inkscape:window-maximized="1"
     inkscape:current-layer="svg1740" /><defs
     id="defs1744"><clipPath
       clipPathUnits="userSpaceOnUse"
       id="clipPath1754"><path
         d="M 0,512 H 512 V 0 H 0 Z"
         id="path1752" /></clipPath><clipPath
       clipPathUnits="userSpaceOnUse"
       id="clipPath3062"><path
         d="M 0,512 H 512 V 0 H 0 Z"
         id="path3060" /></clipPath><clipPath
       clipPathUnits="userSpaceOnUse"
       id="clipPath3758"><path
         d="M 0,512 H 512 V 0 H 0 Z"
         id="path3756" /></clipPath></defs><g
     id="g1746"
     transform="matrix(1.527867,0,0,-1.2442522,-124.24919,680.46821)"><g
       id="g1748"><g
         id="g1750"
         clip-path="url(#clipPath1754)"><g
           id="g1756"
           transform="translate(397.4229,39.8252)"><path
             d="m 0,0 h -282.846 c -11.157,0 -20.203,9.045 -20.203,20.203 v 424.269 c 0,11.157 9.046,20.203 20.203,20.203 H 0 c 11.158,0 20.203,-9.046 20.203,-20.203 V 20.203 C 20.203,9.045 11.158,0 0,0"
             style="fill:#e6f7fe;fill-opacity:1;fill-rule:nonzero;stroke:none"
             id="path1758" /></g><g
           id="g1760"
           transform="translate(397.4229,39.8252)"><path
             d="m 0,0 h -282.846 c -11.157,0 -20.203,9.045 -20.203,20.203 v 424.269 c 0,11.157 9.046,20.203 20.203,20.203 H 0 c 11.158,0 20.203,-9.046 20.203,-20.203 V 20.203 C 20.203,9.045 11.158,0 0,0"
             style="fill:#1a1a1a;fill-opacity:1;fill-rule:nonzero;stroke:none"
             id="path1762" /></g><g
           id="g1764"
           transform="translate(397.4229,504.5)"><path
             d="m 0,0 h -26.265 c 11.159,0 20.203,-9.045 20.203,-20.203 v -424.269 c 0,-11.157 -9.044,-20.203 -20.203,-20.203 H 0 c 11.158,0 20.203,9.046 20.203,20.203 V -20.203 C 20.203,-9.045 11.158,0 0,0"
             style="fill:#000000;fill-opacity:1;fill-rule:nonzero;stroke:none"
             id="path1766" /></g><g
           id="g1768"
           transform="translate(163.0649,439.8496)"><path
             d="m 0,0 h 33.335 c 3.348,0 6.061,2.713 6.061,6.061 v 20.203 c 0,3.348 -2.713,6.061 -6.061,6.061 H 0 c -3.347,0 -6.061,-2.713 -6.061,-6.061 V 6.061 C -6.061,2.713 -3.347,0 0,0"
             style="fill:#df646e;fill-opacity:1;fill-rule:nonzero;stroke:none"
             id="path1770" /></g><g
           id="g1772"
           transform="translate(315.5996,439.8496)"><path
             d="m 0,0 h 33.335 c 3.348,0 6.061,2.713 6.061,6.061 v 20.203 c 0,3.348 -2.713,6.061 -6.061,6.061 H 0 c -3.348,0 -6.061,-2.713 -6.061,-6.061 V 6.061 C -6.061,2.713 -3.348,0 0,0"
             style="fill:#ffe07d;fill-opacity:1;fill-rule:nonzero;stroke:none"
             id="path1774" /></g><g
           id="g1776"
           transform="translate(239.3325,439.8496)"><path
             d="m 0,0 h 33.335 c 3.347,0 6.061,2.713 6.061,6.061 v 20.203 c 0,3.348 -2.714,6.061 -6.061,6.061 H 0 c -3.348,0 -6.061,-2.713 -6.061,-6.061 V 6.061 C -6.061,2.713 -3.348,0 0,0"
             style="fill:#9cd169;fill-opacity:1;fill-rule:nonzero;stroke:none"
             id="path1778" /></g><g
           id="g1780"
           transform="translate(126.6992,112.5571)"><path
             d="m 0,0 v 242.439 c 0,22.316 18.091,40.406 40.406,40.406 h 177.789 c 22.316,0 40.407,-18.09 40.407,-40.406 V 0 c 0,-22.316 -18.091,-40.407 -40.407,-40.407 H 40.406 C 18.091,-40.407 0,-22.316 0,0"
             style="fill:#688ed5;fill-opacity:1;fill-rule:nonzero;stroke:none"
             id="path1782" /></g><g
           id="g1784"
           transform="translate(344.8945,395.4023)"><path
             d="m 0,0 h -24.244 c 22.315,0 40.406,-18.091 40.406,-40.406 v -242.439 c 0,-22.316 -18.091,-40.407 -40.406,-40.407 H 0 c 22.315,0 40.406,18.091 40.406,40.407 V -40.406 C 40.406,-18.091 22.315,0 0,0"
             style="fill:#4172ca;fill-opacity:1;fill-rule:nonzero;stroke:none"
             id="path1786" /></g><g
           id="g1788"
           transform="translate(159.0244,114.5771)"><path
             d="m 0,0 v 238.398 c 0,5.58 4.522,10.102 10.102,10.102 H 183.85 c 5.579,0 10.101,-4.522 10.101,-10.102 V 0 c 0,-5.579 -4.522,-10.102 -10.101,-10.102 H 10.102 C 4.522,-10.102 0,-5.579 0,0"
             style="fill:#7a8d98;fill-opacity:1;fill-rule:nonzero;stroke:none"
             id="path1790" /></g><g
           id="g1792"
           transform="translate(130.7397,7.5)"><path
             d="m 0,0 h 62.63 c 3.348,0 6.061,2.713 6.061,6.061 V 32.325 H -6.061 V 6.061 C -6.061,2.713 -3.347,0 0,0"
             style="fill:#688ed5;fill-opacity:1;fill-rule:nonzero;stroke:none"
             id="path1794" /></g><g
           id="g1796"
           transform="translate(381.2598,7.5)"><path
             d="m 0,0 h -62.63 c -3.348,0 -6.06,2.713 -6.06,6.061 V 32.325 H 6.062 V 6.061 C 6.062,2.713 3.348,0 0,0"
             style="fill:#688ed5;fill-opacity:1;fill-rule:nonzero;stroke:none"
             id="path1798" /></g><g
           id="g1800"
           transform="translate(163.0649,439.8496)"><path
             d="m 0,0 h 33.335 c 3.348,0 6.061,2.713 6.061,6.061 v 20.203 c 0,3.348 -2.713,6.061 -6.061,6.061 H 0 c -3.347,0 -6.061,-2.713 -6.061,-6.061 V 6.061 C -6.061,2.713 -3.347,0 0,0 Z"
             style="fill:#ffffff;stroke:#000000;stroke-width:15;stroke-linecap:round;stroke-linejoin:round;stroke-miterlimit:10;stroke-dasharray:none;stroke-opacity:1"
             id="path1802" /></g><g
           id="g1804"
           transform="translate(315.5996,439.8496)"><path
             d="m 0,0 h 33.335 c 3.348,0 6.061,2.713 6.061,6.061 v 20.203 c 0,3.348 -2.713,6.061 -6.061,6.061 H 0 c -3.348,0 -6.061,-2.713 -6.061,-6.061 V 6.061 C -6.061,2.713 -3.348,0 0,0 Z"
             style="fill:#ffffff;stroke:#000000;stroke-width:15;stroke-linecap:round;stroke-linejoin:round;stroke-miterlimit:10;stroke-dasharray:none;stroke-opacity:1"
             id="path1806" /></g><g
           id="g1808"
           transform="translate(239.3325,439.8496)"><path
             d="m 0,0 h 33.335 c 3.347,0 6.061,2.713 6.061,6.061 v 20.203 c 0,3.348 -2.714,6.061 -6.061,6.061 H 0 c -3.348,0 -6.061,-2.713 -6.061,-6.061 V 6.061 C -6.061,2.713 -3.348,0 0,0 Z"
             style="fill:#ffffff;stroke:#000000;stroke-width:15;stroke-linecap:round;stroke-linejoin:round;stroke-miterlimit:10;stroke-dasharray:none;stroke-opacity:1"
             id="path1810" /></g><g
           id="g1812"
           transform="translate(126.7002,304.4902)"><path
             d="m 0,0 v -191.93 c 0,-22.32 18.09,-40.41 40.41,-40.41 h 177.779 c 22.321,0 40.411,18.09 40.411,40.41 V 50.51 c 0,22.31 -18.09,40.4 -40.411,40.4 H 40.41 C 18.09,90.91 0,72.82 0,50.51 V 35"
             style="fill:#ffffff;stroke:#000000;stroke-width:15;stroke-linecap:round;stroke-linejoin:round;stroke-miterlimit:10;stroke-dasharray:none;stroke-opacity:1"
             id="path1814" /></g><g
           id="g1816"
           transform="translate(191.3496,104.4756)"><path
             d="M 0,0 V 258.602"
             style="fill:none;stroke:#000000;stroke-width:15;stroke-linecap:round;stroke-linejoin:round;stroke-miterlimit:10;stroke-dasharray:none;stroke-opacity:1"
             id="path1818" /></g><g
           id="g1820"
           transform="translate(223.6748,104.4756)"><path
             d="M 0,0 V 258.602"
             style="fill:none;stroke:#000000;stroke-width:15;stroke-linecap:round;stroke-linejoin:round;stroke-miterlimit:10;stroke-dasharray:none;stroke-opacity:1"
             id="path1822" /></g><g
           id="g1824"
           transform="translate(256,104.4756)"><path
             d="M 0,0 V 258.602"
             style="fill:none;stroke:#000000;stroke-width:15;stroke-linecap:round;stroke-linejoin:round;stroke-miterlimit:10;stroke-dasharray:none;stroke-opacity:1"
             id="path1826" /></g><g
           id="g1828"
           transform="translate(288.3252,104.4756)"><path
             d="M 0,0 V 258.602"
             style="fill:none;stroke:#000000;stroke-width:15;stroke-linecap:round;stroke-linejoin:round;stroke-miterlimit:10;stroke-dasharray:none;stroke-opacity:1"
             id="path1830" /></g><g
           id="g1832"
           transform="translate(320.6504,104.4756)"><path
             d="M 0,0 V 258.602"
             style="fill:none;stroke:#000000;stroke-width:15;stroke-linecap:round;stroke-linejoin:round;stroke-miterlimit:10;stroke-dasharray:none;stroke-opacity:1"
             id="path1834" /></g><g
           id="g1836"
           transform="translate(94.3701,139.48)"><path
             d="m 0,0 v 344.82 c 0,11.15 9.05,20.2 20.21,20.2 h 282.84 c 11.16,0 20.21,-9.05 20.21,-20.2 v -44.45"
             style="fill:none;stroke:#000000;stroke-width:15;stroke-linecap:round;stroke-linejoin:round;stroke-miterlimit:10;stroke-dasharray:none;stroke-opacity:1"
             id="path1838" /></g><g
           id="g1840"
           transform="translate(417.6299,404.8501)"><path
             d="m 0,0 v -344.82 c 0,-11.16 -9.05,-20.2 -20.21,-20.2 h -282.84 c -11.16,0 -20.21,9.04 -20.21,20.2 v 44.45"
             style="fill:none;stroke:#000000;stroke-width:15;stroke-linecap:round;stroke-linejoin:round;stroke-miterlimit:10;stroke-dasharray:none;stroke-opacity:1"
             id="path1842" /></g><g
           id="g1844"
           transform="translate(387.3213,39.8252)"><path
             d="m 0,0 v -26.264 c 0,-3.348 -2.714,-6.061 -6.062,-6.061 h -62.629 c -3.348,0 -6.061,2.713 -6.061,6.061 V 0"
             style="fill:#000000;stroke:#000000;stroke-width:15;stroke-linecap:round;stroke-linejoin:round;stroke-miterlimit:10;stroke-dasharray:none;stroke-opacity:1"
             id="path1846" /></g><g
           id="g1848"
           transform="translate(124.6787,39.8252)"><path
             d="m 0,0 v -26.264 c 0,-3.348 2.714,-6.061 6.061,-6.061 h 62.63 c 3.348,0 6.061,2.713 6.061,6.061 V 0"
             style="fill:#000000;stroke:#000000;stroke-width:15;stroke-linecap:round;stroke-linejoin:round;stroke-miterlimit:10;stroke-dasharray:none;stroke-opacity:1"
             id="path1850" /></g><g
           id="g1852"
           transform="translate(159.0244,114.5771)"><path
             d="m 0,0 v 238.398 c 0,5.58 4.522,10.102 10.102,10.102 H 183.85 c 5.579,0 10.101,-4.522 10.101,-10.102 V 0 c 0,-5.579 -4.522,-10.102 -10.101,-10.102 H 10.102 C 4.522,-10.102 0,-5.579 0,0 Z"
             style="fill:none;stroke:#000000;stroke-width:15;stroke-linecap:round;stroke-linejoin:round;stroke-miterlimit:10;stroke-dasharray:none;stroke-opacity:1"
             id="path1854" /></g></g></g></g><g
     id="g3754"
     clip-path="url(#clipPath3758)"
     transform="matrix(0.93387197,0,0,-0.94882996,202.30231,559.30636)"><g
       id="g3760"
       transform="translate(489.9902,264.9404)"><path
         d="m 0,0 c 7.64,-13.221 12.01,-28.57 12.01,-44.94 0,-49.71 -40.29,-90 -90,-90 -49.71,0 -90,40.29 -90,90 0,16.37 4.37,31.719 12.01,44.94 l 77.99,135.06 z"
         style="fill:#ffffff;fill-opacity:1;fill-rule:nonzero;stroke:none"
         id="path3762" /></g><g
       id="g3764"
       transform="translate(308,411.96)"><path
         d="m 0,0 c 5.09,-8.81 8,-19.05 8,-29.96 0,-33.14 -26.86,-60 -60,-60 -33.14,0 -60,26.86 -60,60 0,10.91 2.91,21.15 8,29.96 l 52,90.04 z"
         style="fill:#ffffff;fill-opacity:1;fill-rule:nonzero;stroke:none"
         id="path3766" /></g><g
       id="g3768"
       transform="translate(233.9902,189.9199)"><path
         d="m 0,0 c 10.18,-17.63 16.01,-38.09 16.01,-59.92 0,-66.269 -53.731,-120 -120,-120 -66.27,0 -120,53.731 -120,120 0,21.83 5.83,42.29 16.01,59.92 l 103.99,180.08 z"
         style="fill:#ffffff;fill-opacity:1;fill-rule:nonzero;stroke:none"
         id="path3770" /></g><g
       id="g3772"
       transform="translate(256,502)"><path
         d="m 0,0 52,-90.04 c 5.09,-8.81 8,-19.05 8,-29.96 0,-33.14 -26.86,-60 -60,-60 -33.14,0 -60,26.86 -60,60 0,10.91 2.91,21.15 8,29.96 z"
         style="fill:none;stroke:#000000;stroke-width:20;stroke-linecap:round;stroke-linejoin:round;stroke-miterlimit:10;stroke-dasharray:none;stroke-opacity:1"
         id="path3774" /></g><g
       id="g3776"
       transform="translate(412,400)"><path
         d="M 0,0 77.99,-135.06 C 85.63,-148.28 90,-163.63 90,-180 c 0,-49.71 -40.29,-90 -90,-90 -49.71,0 -90,40.29 -90,90 0,16.37 4.37,31.72 12.01,44.94 z"
         style="fill:none;stroke:#000000;stroke-width:20;stroke-linecap:round;stroke-linejoin:round;stroke-miterlimit:10;stroke-dasharray:none;stroke-opacity:1"
         id="path3778" /></g><g
       id="g3780"
       transform="translate(412,190)"><path
         d="m 0,0 c 16.57,0 30,13.43 30,30 v 0.15 c 0,5.18 -1.36,10.27 -3.96,14.76"
         style="fill:none;stroke:#000000;stroke-width:20;stroke-linecap:round;stroke-linejoin:round;stroke-miterlimit:10;stroke-dasharray:none;stroke-opacity:1"
         id="path3782" /></g><g
       id="g3784"
       transform="translate(130,70)"><path
         d="m 0,0 c 33.14,0 60,26.86 60,60 v 0.16 c 0,10.45 -2.75,20.71 -7.97,29.77"
         style="fill:none;stroke:#000000;stroke-width:20;stroke-linecap:round;stroke-linejoin:round;stroke-miterlimit:10;stroke-dasharray:none;stroke-opacity:1"
         id="path3786" /></g><g
       id="g3788"
       transform="translate(139.999,10)"><path
         d="m 0,0 c 0,-5.522 -4.478,-10 -10,-10 -5.522,0 -10,4.478 -10,10 0,5.522 4.478,10 10,10 C -4.478,10 0,5.522 0,0"
         style="fill:#000000;fill-opacity:1;fill-rule:nonzero;stroke:none"
         id="path3790" /></g><g
       id="g3792"
       transform="translate(85.7871,18.4092)"><path
         d="m 0,0 c -44.393,17.604 -75.787,60.935 -75.787,111.591 0,21.83 5.83,42.29 16.01,59.92 l 103.99,180.08 103.99,-180.08 c 10.18,-17.63 16.01,-38.09 16.01,-59.92 0,-50.657 -31.396,-93.987 -75.788,-111.592"
         style="fill:none;stroke:#000000;stroke-width:20;stroke-linecap:round;stroke-linejoin:round;stroke-miterlimit:10;stroke-dasharray:none;stroke-opacity:1"
         id="path3794" /></g></g></svg>
