<svg id="Layer_5" enable-background="new 0 0 64 64" height="512" viewBox="0 0 64 64" width="512" xmlns="http://www.w3.org/2000/svg"><g><path d="m2 27v6c0 1.105.895 2 2 2h1v-10h-1c-1.105 0-2 .895-2 2z"/><path d="m2 41v2c0 1.105.895 2 2 2h1v-6h-1c-1.105 0-2 .895-2 2z"/><path d="m33 39h8v4h-8z"/><path d="m33 33h8v4h-8z"/><path d="m33 47h-20v2h28v-4h-8z"/><path d="m13 23h20v2h8v-4h-28z"/><path d="m35 18c0-.552-.449-1-1-1h-8c-.551 0-1 .448-1 1v1h10z"/><path d="m31 25h-18v20h18zm-9.687 16.553c-.004.006-.009.012-.013.018-.197.269-.511.429-.846.429-.715 0-1.221-.701-.994-1.38l1.54-4.62h-5l4-8h5l-2 4h5z"/><path d="m7 24v22c0 1.654 1.346 3 3 3h1v-2-24-2h-1c-1.654 0-3 1.346-3 3z"/><path d="m33 27h8v4h-8z"/><path d="m49 30h4v2h-4z"/><path d="m52 26h-3v2h4v-1c0-.552-.449-1-1-1z"/><path d="m60 32h-5v6h5c.551 0 1-.448 1-1v-4c0-.552-.449-1-1-1z"/><path d="m49 38h4v2h-4z"/><path d="m49 44h3c.551 0 1-.448 1-1v-1h-4z"/><path d="m46 19h-2c-.551 0-1 .448-1 1v30c0 .552.449 1 1 1h2c.551 0 1-.448 1-1v-30c0-.552-.449-1-1-1z"/><path d="m49 34h4v2h-4z"/><path d="m34 14c0-1.105-.895-2-2-2h-4c-1.105 0-2 .895-2 2v1h8z"/><path d="m15 16c0-.552.449-1 1-1h8v-1c0-.347.058-.678.142-1h-8.142c-1.654 0-3 1.346-3 3v3h2z"/></g></svg>