<?xml version="1.0" encoding="iso-8859-1"?>
<!-- Generator: Adobe Illustrator 24.1.0, SVG Export Plug-In . SVG Version: 6.00 Build 0)  -->
<svg version="1.1" id="Capa_1" xmlns="http://www.w3.org/2000/svg" xmlns:xlink="http://www.w3.org/1999/xlink" x="0px" y="0px"
	 viewBox="0 0 512 512" style="enable-background:new 0 0 512 512;" xml:space="preserve">
<g>
	<path style="fill:#FFC269;" d="M510.103,272.538l-18.412-79.907c-2.592-11.244-12.602-19.211-24.142-19.211H16.516
		c-4.561,0-8.258,3.697-8.258,8.258v123.871c0,4.56,3.697,8.258,8.258,8.258h487.226c4.56,0,8.258-3.698,8.258-8.258v-16.323
		C512,283.609,511.363,278.011,510.103,272.538z"/>
	<path style="fill:#FFA95F;" d="M434.798,305.548c-3.471,0-6.564-2.177-7.716-5.451c-5.652-16.065-20.955-27.581-38.953-27.581
		s-33.301,11.516-38.954,27.581c-1.152,3.274-4.246,5.451-7.716,5.451H178.799c-3.47,0-6.564-2.177-7.716-5.451
		c-5.653-16.065-20.956-27.581-38.954-27.581s-33.301,11.516-38.954,27.581c-1.152,3.274-4.245,5.451-7.716,5.451H41.29
		c-13.682,0-24.774-11.092-24.774-24.774V173.419H8.258c-4.561,0-8.258,3.697-8.258,8.258v132.129c0,4.561,3.697,8.258,8.258,8.258
		H408l4.903-4.731h63.764l2.3,4.731h24.774c4.561,0,8.258-3.697,8.258-8.258v-8.258H434.798z"/>
	<circle style="fill:#5D5360;" cx="132.129" cy="313.806" r="24.774"/>
	<circle style="fill:#DAD8DB;" cx="132.129" cy="313.806" r="8.258"/>
	<path style="fill:#8BB3EA;" d="M412.903,256h-16.516L33.032,222.968v-8.258c0-4.561,3.697-8.258,8.258-8.258h66.065L115,212
		l8.871-5.548h74.324l33.138,8.882l32.925-8.882h66.065l7.926,6.298l8.589-6.298h66.064L424.667,228L412.903,256z"/>
	<path style="fill:#739AD6;" d="M33.032,247.742c0,4.561,3.697,8.258,8.258,8.258h66.064l8.645-8.333l7.871,8.333h272.516v-16.516
		c0-9.122-7.395-16.516-16.516-16.516H33.032V247.742z"/>
	<polygon style="fill:#739AD6;" points="264.258,305.548 232,315.5 198.194,305.548 198.194,206.452 222.968,206.452 232,213.333 
		239.484,206.452 264.258,206.452 	"/>
	<rect x="107.355" y="206.452" style="fill:#5A82C3;" width="16.516" height="49.548"/>
	<rect x="330.323" y="206.452" style="fill:#5A82C3;" width="16.516" height="49.548"/>
	<polygon style="fill:#5A82C3;" points="239.484,305.548 239.484,206.452 222.968,206.452 222.968,305.548 198.194,305.548 
		198.194,322.065 264.258,322.065 264.258,305.548 	"/>
	<path style="fill:#739AD6;" d="M478.968,305.548L423.833,316.5l-10.93-35.734v-74.314h24.774l7.99,6.048l8.528-6.048h16.515
		c4.561,0,8.258,3.697,8.258,8.258V305.548z"/>
	<path style="fill:#5A82C3;" d="M454.194,305.548v-99.097h-16.516v98.72c-5.263-0.865-9.885-4.093-12.216-9.016
		c-2.875-6.072-7.249-11.385-12.558-15.391v33.042l-8.258,8.256h74.323v-16.516H454.194z"/>
	<circle style="fill:#5D5360;" cx="388.129" cy="313.806" r="24.774"/>
	<circle style="fill:#DAD8DB;" cx="388.129" cy="313.806" r="8.258"/>
</g>
<g>
</g>
<g>
</g>
<g>
</g>
<g>
</g>
<g>
</g>
<g>
</g>
<g>
</g>
<g>
</g>
<g>
</g>
<g>
</g>
<g>
</g>
<g>
</g>
<g>
</g>
<g>
</g>
<g>
</g>
</svg>
