<svg height="512" viewBox="0 0 64 64" width="512" xmlns="http://www.w3.org/2000/svg"><g id="_x31_6_Intercooler"><g><path d="m12 16h-2c-.987 0-1.827.721-1.977 1.696l-4 28c-.089.576.079 1.163.458 1.606.381.443.936.698 1.519.698h6c1.104 0 2-.896 2-2v-28c0-1.104-.896-2-2-2z"/><path d="m55.977 17.696c-.15-.975-.99-1.696-1.977-1.696h-2c-1.104 0-2 .896-2 2v28c0 1.104.896 2 2 2h6c.583 0 1.138-.255 1.518-.697.38-.443.547-.727.458-1.303z"/><path d="m16 33h32v2h-32z"/><path d="m16 29h32v2h-32z"/><path d="m16 25h32v2h-32z"/><path d="m16 41h32v5h-32z"/><path d="m16 18h32v5h-32z"/><path d="m16 37h32v2h-32z"/><path d="m61 31h-1.124l1.131 7.999c1.651-.004 2.993-1.347 2.993-2.999v-2c0-1.654-1.346-3-3-3z"/><path d="m3 31c-1.654 0-3 1.346-3 3v2c0 1.641 1.325 2.975 2.96 2.996l1.143-7.996z"/></g></g></svg>