<?xml version="1.0" encoding="UTF-8" standalone="no"?>
<!-- Created with Inkscape (http://www.inkscape.org/) -->

<svg
   version="1.1"
   id="svg10512"
   width="749.09088"
   height="550.98181"
   viewBox="0 0 749.09088 550.98181"
   sodipodi:docname="inverter2.svg"
   inkscape:version="1.2.2 (732a01da63, 2022-12-09)"
   xmlns:inkscape="http://www.inkscape.org/namespaces/inkscape"
   xmlns:sodipodi="http://sodipodi.sourceforge.net/DTD/sodipodi-0.dtd"
   xmlns="http://www.w3.org/2000/svg"
   xmlns:svg="http://www.w3.org/2000/svg">
  <defs
     id="defs10516" />
  <sodipodi:namedview
     id="namedview10514"
     pagecolor="#505050"
     bordercolor="#ffffff"
     borderopacity="1"
     inkscape:showpageshadow="0"
     inkscape:pageopacity="0"
     inkscape:pagecheckerboard="1"
     inkscape:deskcolor="#505050"
     showgrid="false"
     inkscape:zoom="0.83567964"
     inkscape:cx="101.1153"
     inkscape:cy="587.54572"
     inkscape:window-width="2560"
     inkscape:window-height="1377"
     inkscape:window-x="2552"
     inkscape:window-y="-8"
     inkscape:window-maximized="1"
     inkscape:current-layer="g10518" />
  <g
     inkscape:groupmode="layer"
     inkscape:label="Image"
     id="g10518">
    <path
       style="fill:#000000;stroke-width:0.290909"
       d="m 48.436362,483.99348 c -3.748183,-0.44841 -5.912212,-0.81926 -8.344148,-1.42991 -9.349405,-2.34764 -17.664535,-7.07261 -24.531961,-13.94004 -8.1076872,-8.10767 -13.2422758,-18.29469 -15.0310694,-29.82156 -0.56939996,-3.66918 -0.56939996,-364.621727 0,-368.290905 C 2.3179772,58.984185 7.4525658,48.797188 15.560253,40.6895 23.66794,32.581813 33.854937,27.447224 45.381816,25.65843 c 3.6758,-0.570427 654.651434,-0.570427 658.327244,0 11.52687,1.788794 21.71389,6.923383 29.82156,15.03107 8.10769,8.107688 13.2423,18.294685 15.03107,29.821565 0.56939,3.669178 0.56939,364.621725 0,368.290905 -2.44821,15.77603 -11.28669,29.16402 -24.78892,37.54866 -5.51569,3.42513 -11.61754,5.73154 -19.04552,7.19889 -2.11209,0.41725 -32.51986,0.46385 -328.87272,0.50406 -179.59999,0.0244 -326.938168,-0.003 -327.418168,-0.0601 z M 700.0727,467.88494 c 17.39043,-1.95334 30.76599,-15.3289 32.71933,-32.71933 0.40742,-3.62729 0.40742,-357.390906 0,-361.018182 -1.95334,-17.390426 -15.3289,-30.765992 -32.71933,-32.719327 -3.63697,-0.408514 -647.417549,-0.408514 -651.05452,0 -17.390426,1.953335 -30.765992,15.328901 -32.719327,32.719327 -0.407424,3.627276 -0.407424,357.390892 0,361.018182 1.579132,14.05891 10.739253,25.81396 23.903784,30.67534 2.349324,0.86758 5.95291,1.73405 8.379688,2.0149 3.19964,0.3703 648.196205,0.3991 651.490375,0.0291 z M 84.072724,445.10588 C 84.952724,444.57384 225.18644,358.89419 395.7032,254.70663 566.21996,150.51907 705.80178,65.274701 705.88501,65.274701 c 0.0832,0 0.15133,85.679999 0.15133,190.399999 v 190.4 H 394.25453 82.472724 l 1.6,-0.96733 z M 690.03634,261.93008 V 93.78545 l -4.43637,2.709911 C 409.93805,264.8809 140.29541,429.64555 140.08727,429.8299 c -0.152,0.13463 123.52436,0.2448 274.83635,0.2448 H 690.03634 Z M 513.59998,410.57759 c -5.46895,-0.54199 -10.64157,-1.82824 -16,-3.9787 -6.60634,-2.65123 -10.45646,-5.08396 -23.10763,-14.60076 -11.58144,-8.71209 -13.77702,-10.04038 -18.79197,-11.36875 -3.31867,-0.87907 -8.45193,-1.10197 -10.89321,-0.47299 -7.2229,1.86088 -10.88908,9.2034 -11.89423,23.82152 -0.26004,3.7815 -0.57253,4.51544 -2.37105,5.56853 -0.95148,0.55715 -1.08663,0.55627 -13.78775,-0.0887 -14.13117,-0.71756 -14.24687,-0.73734 -15.544,-2.6558 -0.66077,-0.97728 -0.6807,-1.15843 -0.49624,-4.50909 1.4656,-26.62022 13.41403,-45.99386 32.27061,-52.32486 4.61923,-1.55086 7.42938,-1.97475 14.14275,-2.13315 6.87848,-0.16232 10.82818,0.20937 15.99999,1.50575 8.91829,2.23546 17.51334,7.07508 30.39773,17.11604 11.89865,9.27279 16.41536,11.53589 23.98444,12.01746 6.35281,0.40422 10.50723,-1.67128 13.37364,-6.68125 2.0041,-3.50278 3.53565,-10.01484 4.06476,-17.28297 0.28369,-3.89719 0.57073,-4.64329 2.15886,-5.61164 1.16716,-0.71165 2.54848,-0.71377 16.71523,-0.0256 11.55261,0.56108 11.23197,0.49845 12.70554,2.48172 0.51806,0.69722 0.59052,1.17062 0.53179,3.47293 -0.24285,9.52012 -2.92533,21.49329 -6.56076,29.28387 -6.8759,14.73481 -17.93356,23.56108 -32.64396,26.05652 -3.21047,0.54461 -10.71741,0.76053 -14.25454,0.41001 z m 14.49431,-8.8468 c 11.15683,-2.56373 19.00314,-9.09513 24.48695,-20.38336 1.84283,-3.79334 3.3004,-8.05621 4.3269,-12.65455 0.75601,-3.38665 1.85274,-10.9456 1.61899,-11.15843 -0.17326,-0.15779 -15.13236,-0.84241 -15.27563,-0.69914 -0.0628,0.0627 -0.31805,1.67639 -0.56727,3.58583 -0.90619,6.94232 -2.87197,13.0149 -5.48597,16.94688 -1.69896,2.55564 -5.06824,5.75308 -7.30926,6.9365 -3.74275,1.97643 -5.24122,2.28023 -11.19811,2.27031 -6.01632,-0.01 -8.15302,-0.39718 -13.04498,-2.36369 -4.69597,-1.88771 -8.17253,-4.15151 -17.35502,-11.30083 -13.22862,-10.29958 -21.14979,-14.52175 -30.4,-16.2039 -4.92739,-0.89606 -13.77783,-0.89167 -17.95889,0.009 -3.25039,0.7001 -6.39171,1.74915 -8.65929,2.89178 -11.55401,5.82208 -19.55156,19.48681 -21.6626,37.01309 -0.1831,1.52 -0.37126,3.04887 -0.41813,3.3975 -0.0789,0.58702 0.0674,0.64605 1.97958,0.7984 3.40914,0.27165 13.34281,0.76849 13.4391,0.6722 0.0493,-0.0493 0.23831,-1.32841 0.42001,-2.8425 1.99523,-16.62473 9.01045,-25.83136 20.56597,-26.99043 5.59659,-0.56137 12.33379,0.52774 17.62821,2.84969 3.67142,1.61018 6.44876,3.46333 16.23747,10.83438 4.58426,3.45205 9.86182,7.28463 11.72789,8.51686 6.84416,4.51945 14.61405,7.45021 22.26432,8.39799 2.3636,0.29283 12.69504,-0.0766 14.63976,-0.52346 z m 76.56023,-62.68646 c -4.00349,-0.75206 -6.50438,-1.58458 -9.74545,-3.24416 -8.91415,-4.56451 -14.4064,-12.68099 -16.51974,-24.41292 -0.44687,-2.48074 -0.49844,-5.52171 -0.49844,-29.38528 0,-23.86357 0.0516,-26.90453 0.49844,-29.38527 2.1257,-11.80062 7.57158,-19.82934 16.55683,-24.40931 5.12814,-2.61393 10.45934,-3.80054 17.08922,-3.8037 15.91345,-0.008 26.6535,7.42242 31.45021,21.75744 1.16876,3.49279 2.33932,9.49301 2.53865,13.01286 l 0.16645,2.93972 -0.8073,0.63504 c -0.79144,0.62255 -0.98932,0.63504 -10.06097,0.63504 -9.18205,0 -9.2594,-0.005 -9.99738,-0.65454 -0.61167,-0.53828 -0.7982,-1.06793 -1.05018,-2.98182 -0.89694,-6.81261 -3.43893,-11.28774 -7.49045,-13.18686 -1.48326,-0.69527 -1.99296,-0.77641 -4.85716,-0.77326 -3.00722,0.003 -3.31549,0.0598 -5.11683,0.93798 -3.16244,1.54169 -5.29713,4.26591 -6.5666,8.38002 -0.50147,1.6252 -0.53475,3.28956 -0.53475,26.75121 0,27.26175 -0.0434,26.48821 1.68747,30.06553 1.90805,3.94343 5.23605,6.11457 9.76891,6.37301 7.54717,0.43032 11.90431,-4.25112 13.12797,-14.10504 0.23173,-1.8661 0.4112,-2.37504 1.02804,-2.91532 0.74147,-0.64941 0.81996,-0.65455 10.00096,-0.65455 9.07165,0 9.26953,0.0125 10.06097,0.63504 l 0.8073,0.63504 -0.16645,2.93973 c -0.0916,1.61685 -0.50962,4.63654 -0.92899,6.71042 -3.10167,15.33842 -10.89324,24.17938 -24.00437,27.23739 -3.71444,0.86633 -12.48628,1.00861 -16.43636,0.26656 z m -116.48796,-1.37251 c -0.33161,-0.42156 -0.60294,-0.92588 -0.60294,-1.12067 0,-0.90423 33.51848,-109.99221 33.93917,-110.45704 0.43854,-0.4846 1.09905,-0.5285 7.95173,-0.5285 7.00704,0 7.50511,0.0349 7.98028,0.56002 0.76809,0.84873 33.95555,109.62811 33.76774,110.68138 -0.28672,1.60791 -0.31494,1.61204 -11.08474,1.62208 -9.33883,0.009 -9.94744,-0.0227 -10.41269,-0.53676 -0.27598,-0.30496 -1.58336,-4.57498 -2.96154,-9.67273 -1.35709,-5.01969 -2.53838,-9.35581 -2.6251,-9.63581 -0.14744,-0.47593 -1.10107,-0.50909 -14.63445,-0.50909 h -14.47677 l -2.59453,9.66673 c -1.59456,5.94098 -2.79078,9.86523 -3.10365,10.18182 -0.46752,0.47302 -1.32713,0.51509 -10.52433,0.51509 h -10.01525 z m 48.66257,-45.99712 c -0.85781,-3.16 -2.82613,-10.42545 -4.37408,-16.14545 -1.54793,-5.72 -2.88902,-10.39929 -2.98019,-10.39841 -0.12326,0.001 -7.60521,27.34788 -8.65516,31.63477 l -0.16032,0.65455 h 8.8647 8.8647 z M 40.145453,253.92925 V 63.529246 H 351.76112 663.37676 l -14.6702,8.970386 C 428.37968,207.22273 40.413473,444.32924 40.299318,444.32924 c -0.08463,0 -0.153865,-85.67999 -0.153865,-190.39999 z m 295.127257,-8.7198 c 148.64,-90.85244 270.3789,-165.297394 270.5309,-165.433228 0.152,-0.135837 -123.4589,-0.246976 -274.6909,-0.246976 H 56.145452 V 247.67387 415.8185 l 4.436364,-2.71139 c 2.44,-1.49129 126.050904,-77.04521 274.690894,-167.89766 z M 88.43636,278.22016 v -14.83637 h 29.38182 29.38181 v 14.83637 14.83636 H 117.81818 88.43636 Z m 50.61818,0 v -6.69091 H 117.81818 96.581814 v 6.69091 6.6909 h 21.236366 21.23636 z m 43.92727,0 v -14.83637 h 29.52727 29.52727 v 14.83637 14.83636 h -29.52727 -29.52727 z m 50.90909,0 v -6.69091 h -21.38182 -21.38181 v 6.69091 6.6909 h 21.38181 21.38182 z M 88.43636,241.2747 v -14.83636 h 76.8 76.79999 v 14.83636 14.83636 h -76.79999 -76.8 z m 145.45454,0 v -6.69091 H 165.23636 96.581814 v 6.69091 6.69091 h 68.654546 68.65454 z m 36.65454,-25.7349 c -0.24,-0.057 -1.41818,-0.26249 -2.61818,-0.4567 -4.36836,-0.70702 -9.78836,-2.90595 -13.27799,-5.38699 -5.52728,-3.92975 -9.96689,-10.66474 -11.87756,-18.01851 -1.43692,-5.53041 -1.46276,-6.12983 -1.46072,-33.89381 0.002,-28.18765 -1.7e-4,-28.14124 1.64143,-34.03636 2.9537,-10.60695 10.37062,-18.43738 20.46575,-21.60673 6.82066,-2.141339 16.55859,-2.269682 23.41818,-0.30864 11.32864,3.23866 18.9161,12.38088 21.66467,26.10401 1.00905,5.03798 1.42362,9.22303 1.00471,10.14245 -0.59336,1.30229 -1.19016,1.378 -10.86202,1.378 -8.69689,0 -9.14461,-0.0267 -9.85693,-0.58697 -0.58713,-0.46184 -0.78684,-0.94247 -0.9368,-2.25455 -0.82247,-7.19645 -3.27062,-11.79386 -7.34981,-13.80234 -1.80381,-0.88814 -2.14929,-0.95614 -4.85742,-0.95614 -3.43813,0 -5.12707,0.49193 -7.27431,2.11876 -1.84492,1.39779 -3.35735,3.56275 -4.24928,6.08264 l -0.70099,1.98042 -0.0831,25.16364 c -0.0904,27.38432 -0.0966,27.26159 1.5437,30.79506 1.00697,2.1692 3.70674,4.74659 5.86226,5.59652 1.3749,0.54213 2.27377,0.67138 4.75598,0.68389 2.88753,0.0145 3.17052,-0.0386 5.00286,-0.94071 4.03227,-1.98508 6.36495,-6.14567 7.21123,-12.86204 0.5036,-3.99669 -0.12395,-3.78182 11.04495,-3.78182 5.09798,0 9.48099,0.0813 9.73999,0.18071 0.25899,0.0994 0.66845,0.56269 0.90987,1.02955 0.37315,0.7216 0.39037,1.29411 0.11491,3.81929 -1.8487,16.94703 -8.64989,27.42119 -20.72004,31.90993 -3.81409,1.4184 -6.2518,1.80137 -12.14626,1.9082 -3.12,0.0565 -5.86909,0.0562 -6.10909,-8.7e-4 z M 159.8269,213.8987 c -0.54087,-0.59765 -0.55418,-1.93887 -0.55418,-55.84646 v -55.2341 l 0.6632,-0.66263 0.6632,-0.66263 18.39135,0.006 c 13.30969,0.005 19.09781,0.10842 20.94817,0.37598 15.61296,2.25766 24.78138,10.64219 27.7345,25.36321 0.4392,2.1894 0.50973,5.43938 0.61555,28.36364 0.12476,27.02778 0.0122,30.6643 -1.09232,35.28877 -1.45813,6.10495 -3.78549,10.32983 -7.96376,14.45668 -3.86689,3.8193 -7.45963,5.91189 -12.99418,7.56846 -4.95766,1.4839 -6.84849,1.59519 -27.10341,1.59519 -18.69628,0 -18.75565,-0.002 -19.30812,-0.61237 z m 37.13029,-20.33531 c 4.64337,-0.8806 7.92355,-3.9396 9.04395,-8.43414 0.59094,-2.37057 0.58703,-51.76221 -0.004,-54.10909 -1.10661,-4.39209 -3.8587,-7.11559 -8.38037,-8.29334 -1.27232,-0.3314 -3.47329,-0.43394 -9.31398,-0.43394 h -7.64797 v 35.78182 35.78182 h 7.37847 c 4.05817,0 8.07404,-0.13191 8.92418,-0.29313 z"
       id="path12074" />
  </g>
</svg>
