<svg version="1.1" id="Layer_1" xmlns="http://www.w3.org/2000/svg" xmlns:xlink="http://www.w3.org/1999/xlink" x="0px" y="0px"
	 width="100%" viewBox="0 0 1920 1377" enable-background="new 0 0 1920 1377" xml:space="preserve">
<path fill="#737D49" opacity="1.000000" stroke="none" 
	d="
M1.000000,1149.000000 
	C1.000000,966.307495 1.000000,783.614990 1.000500,600.083374 
	C5.814377,588.318420 14.450733,585.198059 25.931131,585.370667 
	C57.018444,585.838013 88.117500,585.556702 119.211578,585.464355 
	C121.181290,585.458496 123.148254,584.527893 125.393204,584.284058 
	C128.698135,584.999268 131.728897,585.860596 134.754105,585.841370 
	C144.027100,585.782532 153.297958,585.385925 162.994568,585.225220 
	C164.248581,585.394287 165.077652,585.515137 165.906723,585.515259 
	C248.387650,585.525208 330.868591,585.527832 413.349518,585.512634 
	C414.790588,585.512390 416.231628,585.290833 417.977661,585.147461 
	C417.977661,582.919128 417.977631,581.101257 417.977661,579.283386 
	C417.977936,552.789490 417.969299,526.295654 417.982025,499.801758 
	C417.989258,484.705841 424.915466,477.775726 439.903931,477.776581 
	C522.218262,477.781158 604.532532,477.779816 686.846863,477.780487 
	C689.116821,477.780487 691.386841,477.780457 693.720215,477.780457 
	C693.720215,474.076447 693.762085,471.101074 693.712891,468.127228 
	C693.511719,455.970734 692.879089,443.805298 693.162231,431.660797 
	C693.548035,415.114624 695.545776,398.748291 702.020386,383.272675 
	C710.486816,363.036072 725.482483,350.468109 747.449585,349.368896 
	C772.202454,348.130280 797.060669,348.997986 822.347900,348.908600 
	C835.340515,348.863068 847.858337,348.858459 860.814575,348.772552 
	C905.266296,348.697937 949.279541,348.704651 993.804871,348.744446 
	C1006.847412,349.185150 1019.377808,349.592682 1032.262939,350.127686 
	C1054.413818,355.628265 1066.780884,370.396271 1073.129761,391.068481 
	C1079.183594,410.779633 1079.592407,431.079590 1079.280518,451.455963 
	C1079.149048,460.042542 1079.258545,468.632812 1079.258545,477.780792 
	C1080.819946,477.780792 1082.776001,477.780853 1084.732056,477.780792 
	C1148.042358,477.779327 1211.352661,477.846344 1274.662598,477.689514 
	C1282.572998,477.669952 1288.621460,480.145996 1293.974854,486.071564 
	C1328.713257,524.521973 1366.625610,559.406006 1409.842896,588.273743 
	C1471.937744,629.750854 1539.894653,653.349548 1614.812500,656.391846 
	C1651.728271,657.890930 1688.369385,654.600281 1725.052246,651.552734 
	C1751.624390,649.345154 1778.198242,647.271545 1804.870361,649.990173 
	C1842.723022,653.848450 1870.918579,671.897644 1888.243652,706.253174 
	C1897.777100,725.158325 1903.728394,745.211487 1907.977783,765.823120 
	C1916.216431,805.786621 1918.649658,846.341125 1919.910645,887.456055 
	C1919.900024,901.958496 1919.986450,916.000427 1919.966309,930.385620 
	C1917.772095,934.071838 1916.221680,937.948059 1913.514526,940.676636 
	C1880.534790,973.916565 1847.393188,1006.996033 1814.274292,1040.097656 
	C1804.774048,1049.592896 1794.021729,1049.502930 1784.486572,1039.963989 
	C1741.726440,997.186157 1698.941895,954.432556 1656.240601,911.595947 
	C1653.812378,909.160156 1651.373901,908.168457 1647.931396,908.195923 
	C1613.108643,908.473572 1578.267700,907.992126 1543.466553,908.964966 
	C1520.036865,909.619873 1496.557251,911.406372 1473.293213,914.261780 
	C1449.437622,917.189758 1429.245483,927.780884 1419.272095,951.036804 
	C1411.421509,969.342590 1404.594604,988.211792 1398.942139,1007.312927 
	C1380.702148,1068.951416 1363.271851,1130.828979 1345.388672,1192.573730 
	C1341.856567,1204.768677 1335.778931,1208.932861 1323.067505,1208.933105 
	C1114.597046,1208.935791 906.126526,1208.874756 697.656311,1209.088379 
	C685.876770,1209.100464 678.551941,1204.753174 672.844177,1194.509888 
	C643.087524,1141.107544 613.008789,1087.882812 582.725220,1034.776978 
	C572.159363,1016.248413 560.590088,998.312256 546.038635,982.515808 
	C533.876160,969.312683 519.394226,960.055237 501.843903,955.702637 
	C480.948792,950.520569 459.633881,949.596741 438.304291,949.883911 
	C374.999054,950.736023 311.699707,952.024292 248.396042,953.012573 
	C245.302719,953.060852 244.074905,954.501038 242.744125,956.809448 
	C205.553680,1021.320801 168.234909,1085.758301 131.174194,1150.344116 
	C126.306541,1158.827026 119.825050,1162.656982 110.130257,1162.578857 
	C82.302681,1162.354736 54.465881,1162.159668 26.645712,1162.666870 
	C15.079381,1162.877686 6.032024,1160.177124 1.000000,1149.000000 
M770.622620,597.220398 
	C768.756592,596.866028 766.890808,596.203125 765.024475,596.201843 
	C691.072998,596.149597 617.121521,596.156677 543.169983,596.158875 
	C536.418457,596.159058 536.398804,596.167847 536.398560,602.964783 
	C536.395813,676.916321 536.399170,750.867798 536.405945,824.819336 
	C536.406067,826.150085 536.183105,827.581055 536.603638,828.775391 
	C536.872620,829.539429 538.134766,829.953857 539.876343,830.729736 
	C541.541504,830.768127 543.206604,830.840027 544.871765,830.840149 
	C618.024597,830.846375 691.177429,830.847168 764.330261,830.845215 
	C770.972961,830.845032 770.995056,830.834473 770.995728,823.917297 
	C771.003479,750.264587 771.005554,676.611877 770.994141,602.959167 
	C770.993835,601.300415 770.815918,599.641602 770.622620,597.220398 
M1258.187622,607.088074 
	C1258.229248,606.256531 1258.306396,605.425049 1258.307373,604.593445 
	C1258.319092,594.948486 1259.049194,596.174622 1250.197876,596.171387 
	C1176.741577,596.144165 1103.285034,596.200500 1029.829102,596.054504 
	C1025.014404,596.044922 1023.688721,597.365662 1023.698425,602.190491 
	C1023.848206,676.479431 1023.801941,750.768616 1023.819092,825.057800 
	C1023.819458,826.712524 1024.029297,828.367249 1024.228027,830.415222 
	C1024.228027,830.415222 1024.540771,830.668762 1024.540771,830.668762 
	C1024.540771,830.668762 1024.943359,830.662231 1025.846313,830.825012 
	C1028.887207,830.739319 1031.928223,830.653625 1035.895752,830.743347 
	C1107.832397,830.777161 1179.769043,830.812378 1251.705688,830.842529 
	C1258.239746,830.845276 1258.252686,830.830200 1258.252930,824.296570 
	C1258.256836,753.857788 1258.257935,683.418945 1258.246948,612.980164 
	C1258.246704,611.320496 1258.098511,609.660828 1258.187622,607.088074 
M796.500000,1075.951050 
	C933.943726,1075.951172 1071.387451,1075.958740 1208.831177,1075.911865 
	C1212.467896,1075.910645 1216.164551,1075.627686 1219.728271,1074.935669 
	C1226.642578,1073.593018 1231.771606,1069.527954 1233.430420,1062.648438 
	C1235.114624,1055.663818 1234.702759,1048.717773 1228.779053,1043.266968 
	C1224.320923,1039.164795 1219.068237,1037.933105 1213.163086,1037.935059 
	C1065.723511,1037.984009 918.283875,1037.973755 770.844299,1037.976196 
	C769.178528,1037.976196 767.505798,1037.913330 765.848083,1038.037231 
	C758.224487,1038.606567 750.932556,1044.217041 749.027710,1050.912720 
	C745.354309,1063.825073 754.273010,1075.425415 768.512817,1075.877686 
	C777.500244,1076.163086 786.503723,1075.943726 796.500000,1075.951050 
z"/>
<path fill="#FFFFFF" opacity="1.000000" stroke="none" 
	d="
M821.873108,348.949524 
	C797.060669,348.997986 772.202454,348.130280 747.449585,349.368896 
	C725.482483,350.468109 710.486816,363.036072 702.020386,383.272675 
	C695.545776,398.748291 693.548035,415.114624 693.162231,431.660797 
	C692.879089,443.805298 693.511719,455.970734 693.712891,468.127228 
	C693.762085,471.101074 693.720215,474.076447 693.720215,477.780457 
	C691.386841,477.780457 689.116821,477.780487 686.846863,477.780487 
	C604.532532,477.779816 522.218262,477.781158 439.903931,477.776581 
	C424.915466,477.775726 417.989258,484.705841 417.982025,499.801758 
	C417.969299,526.295654 417.977936,552.789490 417.977661,579.283386 
	C417.977631,581.101257 417.977661,582.919128 417.977661,585.147461 
	C416.231628,585.290833 414.790588,585.512390 413.349518,585.512634 
	C330.868591,585.527832 248.387650,585.525208 165.906723,585.515259 
	C165.077652,585.515137 164.248581,585.394287 163.009964,584.748657 
	C162.602966,477.006104 162.605103,369.844696 162.610046,262.683319 
	C162.610184,259.517029 162.487350,256.341431 162.679565,253.185867 
	C164.541138,222.624191 162.985718,192.237244 158.004639,162.034973 
	C149.984497,113.405754 134.108307,67.795631 105.112343,27.462030 
	C97.859268,17.372950 91.611855,5.948555 79.000000,1.000000 
	C692.901855,1.000000 1306.803711,1.000000 1921.000000,1.000000 
	C1921.000000,296.020844 1921.000000,591.041748 1920.751831,886.548218 
	C1920.503662,887.033752 1920.007568,886.995544 1920.007568,886.995544 
	C1918.649658,846.341125 1916.216431,805.786621 1907.977783,765.823120 
	C1903.728394,745.211487 1897.777100,725.158325 1888.243652,706.253174 
	C1870.918579,671.897644 1842.723022,653.848450 1804.870361,649.990173 
	C1778.198242,647.271545 1751.624390,649.345154 1725.052246,651.552734 
	C1688.369385,654.600281 1651.728271,657.890930 1614.812500,656.391846 
	C1539.894653,653.349548 1471.937744,629.750854 1409.842896,588.273743 
	C1366.625610,559.406006 1328.713257,524.521973 1293.974854,486.071564 
	C1288.621460,480.145996 1282.572998,477.669952 1274.662598,477.689514 
	C1211.352661,477.846344 1148.042358,477.779327 1084.732056,477.780792 
	C1082.776001,477.780853 1080.819946,477.780792 1079.258545,477.780792 
	C1079.258545,468.632812 1079.149048,460.042542 1079.280518,451.455963 
	C1079.592407,431.079590 1079.183594,410.779633 1073.129761,391.068481 
	C1066.780884,370.396271 1054.413818,355.628265 1032.232666,349.715057 
	C1030.192261,338.389313 1028.537109,327.603638 1026.850098,316.609528 
	C1038.721436,315.011047 1049.944824,313.631042 1061.125366,311.963684 
	C1077.927002,309.458008 1094.790405,307.050293 1110.444702,299.906769 
	C1125.970947,292.821808 1134.919312,280.642426 1136.660645,263.710358 
	C1137.370483,256.808594 1137.252197,249.668015 1136.370850,242.781967 
	C1131.762451,206.782028 1126.807617,170.826279 1121.928223,134.861282 
	C1120.536865,124.605141 1111.641113,117.643135 1101.415894,118.649338 
	C1091.004883,119.673820 1083.535278,128.434967 1084.575928,139.063629 
	C1086.019897,153.812424 1087.585327,168.560486 1089.605957,183.239059 
	C1092.671021,205.505417 1096.392578,227.681976 1099.404053,249.954987 
	C1101.141479,262.804413 1098.889282,266.318390 1086.362549,269.121033 
	C1073.387817,272.023895 1060.174683,273.902954 1047.023560,275.959747 
	C1038.529175,277.288239 1029.958618,278.131134 1021.231812,279.215302 
	C1020.828308,277.188873 1020.484497,275.751465 1020.260620,274.295654 
	C1016.161926,247.634750 1012.086365,220.970291 1007.988281,194.309296 
	C1002.371826,157.770966 996.772705,121.229919 991.096619,84.700829 
	C989.346497,73.437874 979.287659,66.243736 968.760132,68.505554 
	C958.005981,70.816071 952.307861,79.809975 954.153320,92.068970 
	C957.846802,116.604584 961.700134,141.116119 965.470703,165.640182 
	C966.875610,174.778381 968.233398,183.923874 969.621948,193.127777 
	C968.161377,193.529648 967.382385,193.795883 966.582214,193.956711 
	C931.487122,201.011444 896.388611,208.049225 861.293884,215.105835 
	C835.175354,220.357574 809.045471,225.554840 782.954346,230.939545 
	C774.025818,232.782211 768.096130,240.333923 768.058228,249.144379 
	C768.020508,257.925629 774.103516,265.721039 782.830566,267.438934 
	C785.677979,267.999420 788.818665,267.803528 791.706970,267.289215 
	C801.331909,265.575104 810.903198,263.559570 820.693176,261.620331 
	C820.840454,262.973999 820.993164,263.785034 821.007812,264.598602 
	C821.377869,285.081635 821.788025,305.564270 822.063110,326.048645 
	C822.165588,333.680023 821.945923,341.315765 821.873108,348.949524 
z"/>
<path fill="#FFFFFF" opacity="1.000000" stroke="none" 
	d="
M1.000000,1149.468628 
	C6.032024,1160.177124 15.079381,1162.877686 26.645712,1162.666870 
	C54.465881,1162.159668 82.302681,1162.354736 110.130257,1162.578857 
	C119.825050,1162.656982 126.306541,1158.827026 131.174194,1150.344116 
	C168.234909,1085.758301 205.553680,1021.320801 242.744125,956.809448 
	C244.074905,954.501038 245.302719,953.060852 248.396042,953.012573 
	C311.699707,952.024292 374.999054,950.736023 438.304291,949.883911 
	C459.633881,949.596741 480.948792,950.520569 501.843903,955.702637 
	C519.394226,960.055237 533.876160,969.312683 546.038635,982.515808 
	C560.590088,998.312256 572.159363,1016.248413 582.725220,1034.776978 
	C613.008789,1087.882812 643.087524,1141.107544 672.844177,1194.509888 
	C678.551941,1204.753174 685.876770,1209.100464 697.656311,1209.088379 
	C906.126526,1208.874756 1114.597046,1208.935791 1323.067505,1208.933105 
	C1335.778931,1208.932861 1341.856567,1204.768677 1345.388672,1192.573730 
	C1363.271851,1130.828979 1380.702148,1068.951416 1398.942139,1007.312927 
	C1404.594604,988.211792 1411.421509,969.342590 1419.272095,951.036804 
	C1429.245483,927.780884 1449.437622,917.189758 1473.293213,914.261780 
	C1496.557251,911.406372 1520.036865,909.619873 1543.466553,908.964966 
	C1578.267700,907.992126 1613.108643,908.473572 1647.931396,908.195923 
	C1651.373901,908.168457 1653.812378,909.160156 1656.240601,911.595947 
	C1698.941895,954.432556 1741.726440,997.186157 1784.486572,1039.963989 
	C1794.021729,1049.502930 1804.774048,1049.592896 1814.274292,1040.097656 
	C1847.393188,1006.996033 1880.534790,973.916565 1913.514526,940.676636 
	C1916.221680,937.948059 1917.772095,934.071838 1920.198975,930.394165 
	C1920.538086,930.059509 1921.000000,930.000000 1921.000000,930.000000 
	C1921.000000,1079.300293 1921.000000,1228.600586 1921.000000,1378.000000 
	C1412.312500,1378.000000 903.624878,1378.000000 394.378479,1377.730469 
	C393.877228,1377.280518 393.934845,1377.100098 394.429688,1376.948853 
	C397.801880,1376.620239 400.804840,1376.544800 403.660370,1375.856934 
	C417.717804,1372.471436 432.262421,1370.310181 445.686005,1365.215942 
	C564.875610,1319.984009 610.433594,1179.786865 541.016968,1073.027954 
	C483.804657,985.038635 362.763275,958.539124 274.051117,1014.581116 
	C185.603409,1070.456177 155.048721,1181.781128 204.645187,1273.879395 
	C237.903000,1335.637451 291.112762,1369.551514 361.087341,1377.211060 
	C361.111816,1377.649780 361.055908,1377.824829 361.000000,1378.000000 
	C241.089142,1378.000000 121.178299,1378.000000 1.000000,1378.000000 
	C1.000000,1301.979248 1.000000,1225.958252 1.000000,1149.468628 
M1723.622192,1326.125000 
	C1792.499268,1267.548218 1811.170532,1167.718140 1768.556641,1085.872314 
	C1711.625732,976.528442 1564.342163,947.312256 1469.990356,1026.646484 
	C1392.821899,1091.532349 1376.416138,1200.454102 1431.024780,1285.346924 
	C1494.546997,1384.096436 1634.700195,1403.889893 1723.622192,1326.125000 
z"/>
<path fill="#FFFFFE" opacity="1.000000" stroke="none" 
	d="
M125.116501,584.027527 
	C123.148254,584.527893 121.181290,585.458496 119.211578,585.464355 
	C88.117500,585.556702 57.018444,585.838013 25.931131,585.370667 
	C14.450733,585.198059 5.814377,588.318420 1.000500,599.622131 
	C1.000000,400.333313 1.000000,200.666656 1.000000,1.000000 
	C24.092733,1.000000 47.077709,1.000000 70.419380,1.333550 
	C54.355537,7.324980 53.182014,25.082020 63.189629,35.018173 
	C67.993721,39.787956 71.893997,45.541058 75.799767,51.130997 
	C104.904625,92.785896 118.658264,139.812256 124.029900,189.741959 
	C126.389000,211.669998 125.268150,233.624008 125.174057,255.613220 
	C124.713470,363.252991 124.964958,470.895813 124.972214,578.537537 
	C124.972336,580.367554 125.066315,582.197510 125.116501,584.027527 
z"/>
<path fill="#4E5432" opacity="1.000000" stroke="none" 
	d="
M125.393204,584.284058 
	C125.066315,582.197510 124.972336,580.367554 124.972214,578.537537 
	C124.964958,470.895813 124.713470,363.252991 125.174057,255.613220 
	C125.268150,233.624008 126.389000,211.669998 124.029900,189.741959 
	C118.658264,139.812256 104.904625,92.785896 75.799767,51.130997 
	C71.893997,45.541058 67.993721,39.787956 63.189629,35.018173 
	C53.182014,25.082020 54.355537,7.324980 70.888039,1.333550 
	C73.370560,1.000000 75.741112,1.000000 78.555832,1.000000 
	C91.611855,5.948555 97.859268,17.372950 105.112343,27.462030 
	C134.108307,67.795631 149.984497,113.405754 158.004639,162.034973 
	C162.985718,192.237244 164.541138,222.624191 162.679565,253.185867 
	C162.487350,256.341431 162.610184,259.517029 162.610046,262.683319 
	C162.605103,369.844696 162.602966,477.006104 162.585022,584.644043 
	C153.297958,585.385925 144.027100,585.782532 134.754105,585.841370 
	C131.728897,585.860596 128.698135,584.999268 125.393204,584.284058 
z"/>
<path fill="#CCD0BD" opacity="1.000000" stroke="none" 
	d="
M1921.000000,929.531372 
	C1921.000000,930.000000 1920.538086,930.059509 1920.305420,930.050903 
	C1919.986450,916.000427 1919.900024,901.958496 1919.910645,887.456055 
	C1920.007568,886.995544 1920.503662,887.033752 1920.751831,887.016846 
	C1921.000000,901.020874 1921.000000,915.041809 1921.000000,929.531372 
z"/>
<path fill="#989C9E" opacity="1.000000" stroke="none" 
	d="
M393.992432,1376.919434 
	C393.934845,1377.100098 393.877228,1377.280518 393.909821,1377.730469 
	C383.312439,1378.000000 372.624878,1378.000000 361.468658,1378.000000 
	C361.055908,1377.824829 361.111816,1377.649780 361.410797,1377.078125 
	C372.433380,1376.760864 383.212921,1376.840210 393.992432,1376.919434 
z"/>
<path fill="#4F5433" opacity="1.000000" stroke="none" 
	d="
M822.347900,348.908569 
	C821.945923,341.315765 822.165588,333.680023 822.063110,326.048645 
	C821.788025,305.564270 821.377869,285.081635 821.007812,264.598602 
	C820.993164,263.785034 820.840454,262.973999 820.693176,261.620331 
	C810.903198,263.559570 801.331909,265.575104 791.706970,267.289215 
	C788.818665,267.803528 785.677979,267.999420 782.830566,267.438934 
	C774.103516,265.721039 768.020508,257.925629 768.058228,249.144379 
	C768.096130,240.333923 774.025818,232.782211 782.954346,230.939545 
	C809.045471,225.554840 835.175354,220.357574 861.293884,215.105835 
	C896.388611,208.049225 931.487122,201.011444 966.582214,193.956711 
	C967.382385,193.795883 968.161377,193.529648 969.621948,193.127777 
	C968.233398,183.923874 966.875610,174.778381 965.470703,165.640182 
	C961.700134,141.116119 957.846802,116.604584 954.153320,92.068970 
	C952.307861,79.809975 958.005981,70.816071 968.760132,68.505554 
	C979.287659,66.243736 989.346497,73.437874 991.096619,84.700829 
	C996.772705,121.229919 1002.371826,157.770966 1007.988281,194.309296 
	C1012.086365,220.970291 1016.161926,247.634750 1020.260620,274.295654 
	C1020.484497,275.751465 1020.828308,277.188873 1021.231812,279.215302 
	C1029.958618,278.131134 1038.529175,277.288239 1047.023560,275.959747 
	C1060.174683,273.902954 1073.387817,272.023895 1086.362549,269.121033 
	C1098.889282,266.318390 1101.141479,262.804413 1099.404053,249.954987 
	C1096.392578,227.681976 1092.671021,205.505417 1089.605957,183.239059 
	C1087.585327,168.560486 1086.019897,153.812424 1084.575928,139.063629 
	C1083.535278,128.434967 1091.004883,119.673820 1101.415894,118.649338 
	C1111.641113,117.643135 1120.536865,124.605141 1121.928223,134.861282 
	C1126.807617,170.826279 1131.762451,206.782028 1136.370850,242.781967 
	C1137.252197,249.668015 1137.370483,256.808594 1136.660645,263.710358 
	C1134.919312,280.642426 1125.970947,292.821808 1110.444702,299.906769 
	C1094.790405,307.050293 1077.927002,309.458008 1061.125366,311.963684 
	C1049.944824,313.631042 1038.721436,315.011047 1026.850098,316.609528 
	C1028.537109,327.603638 1030.192261,338.389313 1031.877808,349.587616 
	C1019.377808,349.592682 1006.847412,349.185150 993.810913,348.371246 
	C988.994507,319.482452 984.693115,290.998627 980.369080,262.518250 
	C978.775513,252.022446 977.128540,241.534714 975.418152,230.475693 
	C936.173157,238.360565 897.405884,246.149429 858.970337,253.871674 
	C858.970337,264.962585 858.820862,275.445190 859.001892,285.922089 
	C859.364258,306.901001 859.907532,327.876770 860.376099,348.853882 
	C847.858337,348.858459 835.340515,348.863068 822.347900,348.908569 
z"/>
<path fill="#CCCCCC" opacity="1.000000" stroke="none" 
	d="
M1034.969116,830.567871 
	C1031.928223,830.653625 1028.887207,830.739319 1025.280518,830.614136 
	C1024.545654,830.243225 1024.354492,830.116150 1024.141357,830.021973 
	C1024.029297,828.367249 1023.819458,826.712524 1023.819092,825.057800 
	C1023.801941,750.768616 1023.848206,676.479431 1023.698425,602.190491 
	C1023.688721,597.365662 1025.014404,596.044922 1029.829102,596.054504 
	C1103.285034,596.200500 1176.741577,596.144165 1250.197876,596.171387 
	C1259.049194,596.174622 1258.319092,594.948486 1258.307373,604.593445 
	C1258.306396,605.425049 1258.229248,606.256531 1257.765137,607.609741 
	C1255.795044,609.354797 1254.105713,610.436523 1252.719604,611.821777 
	C1181.330078,683.164978 1109.963379,754.531067 1038.621460,825.921692 
	C1037.238770,827.305298 1036.179321,829.011963 1034.969116,830.567871 
z"/>
<path fill="#CCCCCB" opacity="1.000000" stroke="none" 
	d="
M538.951660,830.525024 
	C538.134766,829.953857 536.872620,829.539429 536.603638,828.775391 
	C536.183105,827.581055 536.406067,826.150085 536.405945,824.819336 
	C536.399170,750.867798 536.395813,676.916321 536.398560,602.964783 
	C536.398804,596.167847 536.418457,596.159058 543.169983,596.158875 
	C617.121521,596.156677 691.072998,596.149597 765.024475,596.201843 
	C766.890808,596.203125 768.756592,596.866028 770.358032,597.683838 
	C768.691284,599.302185 767.180481,600.348572 765.902588,601.627625 
	C691.253357,676.343079 616.619141,751.073547 542.026306,825.845337 
	C540.735107,827.139526 539.964966,828.953552 538.951660,830.525024 
z"/>
<path fill="#C4C4C3" opacity="1.000000" stroke="none" 
	d="
M539.414001,830.627380 
	C539.964966,828.953552 540.735107,827.139526 542.026306,825.845337 
	C616.619141,751.073547 691.253357,676.343079 765.902588,601.627625 
	C767.180481,600.348572 768.691284,599.302185 770.407104,598.065063 
	C770.815918,599.641602 770.993835,601.300415 770.994141,602.959167 
	C771.005554,676.611877 771.003479,750.264587 770.995728,823.917297 
	C770.995056,830.834473 770.972961,830.845032 764.330261,830.845215 
	C691.177429,830.847168 618.024597,830.846375 544.871765,830.840149 
	C543.206604,830.840027 541.541504,830.768127 539.414001,830.627380 
z"/>
<path fill="#C4C4C4" opacity="1.000000" stroke="none" 
	d="
M1035.432373,830.655640 
	C1036.179321,829.011963 1037.238770,827.305298 1038.621460,825.921692 
	C1109.963379,754.531067 1181.330078,683.164978 1252.719604,611.821777 
	C1254.105713,610.436523 1255.795044,609.354797 1257.681030,608.066284 
	C1258.098511,609.660828 1258.246704,611.320496 1258.246948,612.980164 
	C1258.257935,683.418945 1258.256836,753.857788 1258.252930,824.296570 
	C1258.252686,830.830200 1258.239746,830.845276 1251.705688,830.842529 
	C1179.769043,830.812378 1107.832397,830.777161 1035.432373,830.655640 
z"/>
<path fill="#4D5331" opacity="1.000000" stroke="none" 
	d="
M796.000000,1075.950928 
	C786.503723,1075.943726 777.500244,1076.163086 768.512817,1075.877686 
	C754.273010,1075.425415 745.354309,1063.825073 749.027710,1050.912720 
	C750.932556,1044.217041 758.224487,1038.606567 765.848083,1038.037231 
	C767.505798,1037.913330 769.178528,1037.976196 770.844299,1037.976196 
	C918.283875,1037.973755 1065.723511,1037.984009 1213.163086,1037.935059 
	C1219.068237,1037.933105 1224.320923,1039.164795 1228.779053,1043.266968 
	C1234.702759,1048.717773 1235.114624,1055.663818 1233.430420,1062.648438 
	C1231.771606,1069.527954 1226.642578,1073.593018 1219.728271,1074.935669 
	C1216.164551,1075.627686 1212.467896,1075.910645 1208.831177,1075.911865 
	C1071.387451,1075.958740 933.943726,1075.951172 796.000000,1075.950928 
z"/>
<path fill="#FEFEFD" opacity="1.000000" stroke="none" 
	d="
M860.814636,348.772522 
	C859.907532,327.876770 859.364258,306.901001 859.001892,285.922089 
	C858.820862,275.445190 858.970337,264.962585 858.970337,253.871674 
	C897.405884,246.149429 936.173157,238.360565 975.418152,230.475693 
	C977.128540,241.534714 978.775513,252.022446 980.369080,262.518250 
	C984.693115,290.998627 988.994507,319.482452 993.298828,348.338135 
	C949.279541,348.704651 905.266296,348.697937 860.814636,348.772522 
z"/>
<path fill="#C4C4C4" opacity="1.000000" stroke="none" 
	d="
M1024.184692,830.218628 
	C1024.354492,830.116150 1024.545654,830.243225 1024.829102,830.532715 
	C1024.943359,830.662231 1024.540771,830.668762 1024.540771,830.668762 
	C1024.540771,830.668762 1024.228027,830.415222 1024.184692,830.218628 
z"/>
<path fill="#474C50" opacity="1.000000" stroke="none" 
	d="
M394.429688,1376.948730 
	C383.212921,1376.840210 372.433380,1376.760864 361.330414,1376.814453 
	C291.112762,1369.551514 237.903000,1335.637451 204.645187,1273.879395 
	C155.048721,1181.781128 185.603409,1070.456177 274.051117,1014.581116 
	C362.763275,958.539124 483.804657,985.038635 541.016968,1073.027954 
	C610.433594,1179.786865 564.875610,1319.984009 445.686005,1365.215942 
	C432.262421,1370.310181 417.717804,1372.471436 403.660370,1375.856934 
	C400.804840,1376.544800 397.801880,1376.620239 394.429688,1376.948730 
M309.185333,1232.283569 
	C311.416534,1234.966797 313.424622,1237.880005 315.914612,1240.296631 
	C333.911560,1257.763062 355.077759,1267.104614 380.594208,1266.114502 
	C403.712738,1265.217529 423.575317,1256.810669 439.124359,1240.018799 
	C454.426910,1223.493530 462.554810,1203.693481 462.138214,1180.587769 
	C461.628601,1152.323975 450.140137,1129.782471 427.771393,1112.990601 
	C410.807098,1100.255859 391.489044,1094.967407 370.137451,1096.897583 
	C342.153076,1099.427368 320.687134,1112.697021 305.626923,1136.003662 
	C295.436920,1151.773193 291.465302,1169.344727 292.841705,1188.277710 
	C294.014435,1204.409302 299.822632,1218.559937 309.185333,1232.283569 
z"/>
<path fill="#474C50" opacity="1.000000" stroke="none" 
	d="
M1723.356934,1326.359863 
	C1634.700195,1403.889893 1494.546997,1384.096436 1431.024780,1285.346924 
	C1376.416138,1200.454102 1392.821899,1091.532349 1469.990356,1026.646484 
	C1564.342163,947.312256 1711.625732,976.528442 1768.556641,1085.872314 
	C1811.170532,1167.718140 1792.499268,1267.548218 1723.356934,1326.359863 
M1540.526001,1243.012329 
	C1544.044189,1245.523193 1547.354858,1248.409790 1551.113525,1250.485352 
	C1580.117188,1266.500610 1609.330811,1267.924805 1638.408081,1250.800659 
	C1662.897949,1236.377808 1676.643188,1214.493896 1679.782715,1186.558960 
	C1684.066284,1148.445557 1661.793091,1112.628784 1625.966919,1098.554199 
	C1591.342163,1084.951660 1551.212646,1096.269043 1529.091064,1124.438110 
	C1512.458862,1145.617065 1506.529785,1169.414062 1512.107056,1195.749023 
	C1516.057373,1214.401245 1525.625122,1229.964233 1540.526001,1243.012329 
z"/>
<path fill="#61666A" opacity="1.000000" stroke="none" 
	d="
M308.993896,1231.982178 
	C299.822632,1218.559937 294.014435,1204.409302 292.841705,1188.277710 
	C291.465302,1169.344727 295.436920,1151.773193 305.626923,1136.003662 
	C320.687134,1112.697021 342.153076,1099.427368 370.137451,1096.897583 
	C391.489044,1094.967407 410.807098,1100.255859 427.771393,1112.990601 
	C450.140137,1129.782471 461.628601,1152.323975 462.138214,1180.587769 
	C462.554810,1203.693481 454.426910,1223.493530 439.124359,1240.018799 
	C423.575317,1256.810669 403.712738,1265.217529 380.594208,1266.114502 
	C355.077759,1267.104614 333.911560,1257.763062 315.914612,1240.296631 
	C313.424622,1237.880005 311.416534,1234.966797 308.993896,1231.982178 
z"/>
<path fill="#61666A" opacity="1.000000" stroke="none" 
	d="
M1540.270630,1242.765625 
	C1525.625122,1229.964233 1516.057373,1214.401245 1512.107056,1195.749023 
	C1506.529785,1169.414062 1512.458862,1145.617065 1529.091064,1124.438110 
	C1551.212646,1096.269043 1591.342163,1084.951660 1625.966919,1098.554199 
	C1661.793091,1112.628784 1684.066284,1148.445557 1679.782715,1186.558960 
	C1676.643188,1214.493896 1662.897949,1236.377808 1638.408081,1250.800659 
	C1609.330811,1267.924805 1580.117188,1266.500610 1551.113525,1250.485352 
	C1547.354858,1248.409790 1544.044189,1245.523193 1540.270630,1242.765625 
z"/>
</svg>