<?xml version="1.0" encoding="iso-8859-1"?>
<!-- Generator: Adobe Illustrator 24.1.0, SVG Export Plug-In . SVG Version: 6.00 Build 0)  -->
<svg version="1.1" id="Capa_1" xmlns="http://www.w3.org/2000/svg" xmlns:xlink="http://www.w3.org/1999/xlink" x="0px" y="0px"
	 viewBox="0 0 512 512" style="enable-background:new 0 0 512 512;" xml:space="preserve">
<g>
	<path style="fill:#B3E59F;" d="M511.941,264.258l-5.548-16.516c-3.232-4.833-7.737-8.796-13.216-11.341
		c-46.699-21.691-121.564-21.691-121.564-21.691l-64.464-41.023c-17.225-10.961-37.219-16.784-57.636-16.784H58.29
		c-10.668,0-20.68,5.152-26.88,13.833l-14.894,20.851L5.5,227.941V291.5L82.581,316h412.902L512,305.548l0-39.293
		C512,265.586,511.98,264.92,511.941,264.258z"/>
	<path style="fill:#8BB3EA;" d="M298.281,187.621c-14.575-9.275-31.493-14.202-48.769-14.202h-15.842l-6.504,5.747l-10.185-5.747
		h-68.337l-8.312,4.58l-8.204-4.58H82.727c-5.927,0-11.399,3.176-14.34,8.322l-4.683,8.194l245.231,24.774h15.151
		c4.883,0,6.741-6.378,2.621-8.999L298.281,187.621z"/>
	<path style="fill:#739AD6;" d="M292.322,204.137c-14.575-9.275-31.493-14.202-48.769-14.202H63.705l-7.096,12.419
		c-3.146,5.505,0.829,12.355,7.17,12.355h68.351l7.704-6.376l8.811,6.376h74.236l7.286-4.376l9.403,4.376h69.365L292.322,204.137z"
		/>
	<path style="fill:#95D6A4;" d="M495.483,322.064c9.121,0,16.516-7.395,16.517-16.516h-20.85c-6.824,0-13.17-4.117-15.39-10.57
		C467.957,272.303,446.486,256,421.16,256s-46.796,16.303-54.599,38.979c-2.22,6.453-8.566,10.57-15.39,10.57H169.085
		c-6.824,0-13.17-4.117-15.39-10.57C145.893,272.303,124.422,256,99.097,256c-22.141,0-41.351,12.458-51.053,30.74
		c-3.34,6.294-10.584,9.457-17.572,8.06h0c-8.115-1.623-13.956-8.749-13.956-17.024v-86.188l-8.825,12.356
		C2.689,210.945,0,219.336,0,227.942v3.284l7.167,12.941L0,256v29.238c0,11.81,8.336,21.977,19.916,24.293l62.665,12.533H495.483z"
		/>
	<path style="fill:#CCF49F;" d="M346.838,289.032H173.419c-4.564,0-8.258-3.698-8.258-8.258c0-4.56,3.694-8.258,8.258-8.258h173.419
		c4.565,0,8.258,3.698,8.258,8.258C355.096,285.335,351.403,289.032,346.838,289.032z"/>
	<circle style="fill:#5D5360;" cx="99.097" cy="313.806" r="41.29"/>
	<circle style="fill:#DAD8DB;" cx="99.097" cy="313.806" r="24.774"/>
	<circle style="fill:#ECEAEC;" cx="99.097" cy="313.806" r="8.258"/>
	<circle style="fill:#5D5360;" cx="421.16" cy="313.806" r="41.29"/>
	<circle style="fill:#DAD8DB;" cx="421.16" cy="313.806" r="24.774"/>
	<circle style="fill:#ECEAEC;" cx="421.16" cy="313.806" r="8.258"/>
	<path style="fill:#FFF0AF;" d="M506.392,247.742h-15.724c-4.565,0-8.258,3.698-8.258,8.258c0,4.56,3.694,8.258,8.258,8.258h21.269
		C511.577,258.264,509.638,252.579,506.392,247.742z"/>
	<path style="fill:#FF8086;" d="M16.516,256H0v-24.774h16.516c4.561,0,8.258,3.697,8.258,8.258v8.258
		C24.774,252.303,21.077,256,16.516,256z"/>
	<polygon style="fill:#5A82C3;" points="222.881,214.71 239.57,214.71 233.671,173.42 216.982,173.42 	"/>
	<rect x="132.129" y="173.42" style="fill:#5A82C3;" width="16.516" height="41.29"/>
</g>
<g>
</g>
<g>
</g>
<g>
</g>
<g>
</g>
<g>
</g>
<g>
</g>
<g>
</g>
<g>
</g>
<g>
</g>
<g>
</g>
<g>
</g>
<g>
</g>
<g>
</g>
<g>
</g>
<g>
</g>
</svg>
