<svg height="512" viewBox="0 0 512 512" width="512" xmlns="http://www.w3.org/2000/svg"><g id="Flat"><path d="m328 120h16v40h-16z" fill="#c9c9c7"/><path d="m168 112h16v48h-16z" fill="#c9c9c7"/><path d="m280 104h-48v-24l5.737-40.161a18.449 18.449 0 0 1 18.263-15.839 18.449 18.449 0 0 1 18.263 15.839l5.737 40.161z" fill="#e3e4e2"/><path d="m208 176v-72a24 24 0 0 1 24-24h48a24 24 0 0 1 24 24v72z" fill="#c9c9c7"/><path d="m408 360-21.628-194.65a24 24 0 0 0 -23.853-21.35h-213.038a24 24 0 0 0 -23.853 21.35l-21.628 194.65z" fill="#e3e4e2"/><g fill="#2aa2c3"><path d="m152 168h24v16h-24z"/><path d="m192 168h32v16h-32z"/><path d="m240 168h32v16h-32z"/><path d="m288 168h32v16h-32z"/><path d="m336 168h24v16h-24z"/><path d="m144 200h224v16h-224z"/><path d="m152 232h24v16h-24z"/><path d="m192 232h32v16h-32z"/><path d="m240 232h32v16h-32z"/><path d="m288 232h32v16h-32z"/><path d="m336 232h24v16h-24z"/></g><path d="m136 264h16v40h-16z" fill="#c9c9c7"/><path d="m168 264h16v32h-16z" fill="#c9c9c7"/><path d="m360 264h16v40h-16z" fill="#c9c9c7"/><path d="m168 112h16v16h-16z" fill="#eb5849"/><path d="m328 120h16v16h-16z" fill="#eb5849"/><path d="m360 264h16v16h-16z" fill="#eb5849"/><path d="m168 264h16v16h-16z" fill="#eb5849"/><path d="m136 264h16v16h-16z" fill="#eb5849"/><path d="m104 384-16-80 168-32 168 32-16 80z" fill="#2aa2c3"/><path d="m408 384h-152v-112l168 32z" fill="#0093b9"/><path d="m96 488-32-136 192-40 192 40-32 136z" fill="#e3e4e2"/><path d="m256 312 192 40-32 136h-160z" fill="#c9c9c7"/><path d="m216 344h16v16h-16z" fill="#c9c9c7"/><path d="m280 344h16v16h-16z" fill="#b2b1b4"/><path d="m488 496h-464v-80c29 0 29 16 58 16s29-16 58-16 29 16 58 16 29-16 58-16 29 16 58 16 29-16 58-16 29 16 58 16 29-16 58-16z" fill="#0093b9"/><path d="m488 496h-464v-40c29 0 29 16 58 16s29-16 58-16 29 16 58 16 29-16 58-16 29 16 58 16 29-16 58-16 29 16 58 16 29-16 58-16z" fill="#5db9d2"/></g></svg>