<svg id="Layer_1" height="512" viewBox="0 0 60 60" width="512" xmlns="http://www.w3.org/2000/svg"><path d="m13.5 7v3h10v-3c0-.55-.45-1-1-1h-8c-.55 0-1 .45-1 1z"/><path d="m22.5 54c.55 0 1-.45 1-1v-3h-10v3c0 .55.45 1 1 1z"/><path d="m23.5 20h-10v20h10v-5h9v-10h-9z"/><path d="m44.5 25v10h3c.55 0 1-.45 1-1v-8c0-.55-.45-1-1-1z"/><path d="m34.5 25v10c0 .55.45 1 1 1h6c.55 0 1-.45 1-1v-10c0-.55-.45-1-1-1h-6c-.55 0-1 .45-1 1z"/><path d="m11.5 47c0 .55.45 1 1 1h12c.55 0 1-.45 1-1v-4c0-.55-.45-1-1-1h-12c-.55 0-1 .45-1 1z"/><path d="m11.5 13v4c0 .55.45 1 1 1h12c.55 0 1-.45 1-1v-4c0-.55-.45-1-1-1h-12c-.55 0-1 .45-1 1z"/></svg>