<svg id="Icons" height="512" viewBox="0 0 60 60" width="512" xmlns="http://www.w3.org/2000/svg"><rect height="46" rx="2" width="6" x="2" y="7"/><rect height="46" rx="2" width="6" x="52" y="7"/><path d="m44 4h-1a1 1 0 0 0 -1 1v3h3v-3a1 1 0 0 0 -1-1z"/><path d="m18 5a1 1 0 0 0 -1-1h-1a1 1 0 0 0 -1 1v3h3z"/><path d="m15 55a1 1 0 0 0 1 1h1a1 1 0 0 0 1-1v-3h-3z"/><path d="m10 10h40v4h-40z"/><path d="m43 56h1a1 1 0 0 0 1-1v-3h-3v3a1 1 0 0 0 1 1z"/><path d="m10 46h40v4h-40z"/><path d="m10 40h40v4h-40z"/><path d="m10 16h40v4h-40z"/><path d="m10 34h40v4h-40z"/><path d="m10 22h40v4h-40z"/><path d="m10 28h40v4h-40z"/></svg>