<?xml version="1.0" encoding="UTF-8" standalone="no"?>
<!-- Created with Inkscape (http://www.inkscape.org/) -->

<svg
   version="1.1"
   id="svg24678"
   width="682.66669"
   height="682.66669"
   viewBox="0 0 682.66669 682.66669"
   sodipodi:docname="condensate Separator.svg"
   xml:space="preserve"
   inkscape:version="1.2.2 (732a01da63, 2022-12-09)"
   xmlns:inkscape="http://www.inkscape.org/namespaces/inkscape"
   xmlns:sodipodi="http://sodipodi.sourceforge.net/DTD/sodipodi-0.dtd"
   xmlns="http://www.w3.org/2000/svg"
   xmlns:svg="http://www.w3.org/2000/svg"><defs
     id="defs24682" /><sodipodi:namedview
     id="namedview24680"
     pagecolor="#505050"
     bordercolor="#ffffff"
     borderopacity="1"
     inkscape:showpageshadow="0"
     inkscape:pageopacity="0"
     inkscape:pagecheckerboard="1"
     inkscape:deskcolor="#505050"
     showgrid="false"
     inkscape:zoom="1.0637675"
     inkscape:cx="393.88305"
     inkscape:cy="99.64583"
     inkscape:window-width="2560"
     inkscape:window-height="1377"
     inkscape:window-x="2552"
     inkscape:window-y="-8"
     inkscape:window-maximized="1"
     inkscape:current-layer="g24684" /><g
     inkscape:groupmode="layer"
     inkscape:label="Image"
     id="g24684"><path
       style="fill:#000000;stroke-width:0.693653"
       d="m 329.09271,649.5492 c -1.14453,-0.30731 -4.10953,-0.92801 -6.5889,-1.37934 -20.62277,-3.75401 -41.69738,-17.87186 -53.72901,-35.99297 -7.28513,-10.97228 -11.19242,-20.40311 -13.62167,-32.87795 -1.283,-6.58852 -1.32179,-13.28063 -1.32179,-228.03848 V 130.00969 h 86.35982 86.35981 v 221.25077 c 0,214.75785 -0.0388,221.44996 -1.32178,228.03848 -2.42926,12.47484 -6.33654,21.90567 -13.62167,32.87795 -12.03249,18.1224 -33.13032,32.25457 -53.72901,35.98982 -2.47936,0.4496 -5.63666,1.10217 -7.0162,1.45016 -3.02896,0.76405 -18.85521,0.71485 -21.7696,-0.0676 z m 58.06247,-171.84585 c 24.25019,-24.38168 24.4389,-21.21344 -2.88062,-48.36121 l -14.63763,-14.54562 -7.77757,7.77757 -7.77756,7.77756 6.40751,6.43426 c 3.52412,3.53884 6.4075,6.6625 6.4075,6.94147 0,0.27896 -15.7712,0.5072 -35.0471,0.5072 h -35.0471 l 0.19103,10.92504 0.19103,10.92504 34.85607,0.17983 c 19.17084,0.0989 34.85607,0.40518 34.85607,0.68062 0,0.27543 -2.84677,3.35944 -6.32615,6.85336 l -6.32616,6.35256 7.19323,7.29459 c 3.95627,4.01201 7.51922,7.32406 7.91767,7.36011 0.39846,0.0361 8.40836,-7.66003 17.79978,-17.10238 z m -39.68066,-77.5004 c 15.00896,-2.31626 26.74623,-9.11687 35.74129,-20.70862 8.18388,-10.5464 12.69578,-27.17955 10.47444,-38.61407 -3.21362,-16.54235 -18.63974,-39.80809 -40.76239,-61.47796 -8.37733,-8.20587 -10.12142,-9.16097 -15.04273,-8.23772 -2.01543,0.37809 -4.18345,2.08651 -10.42811,8.21744 -22.18682,21.78276 -37.55295,44.96419 -40.76495,61.49824 -2.22135,11.43452 2.29056,28.06767 10.47444,38.61407 8.87636,11.43878 20.76419,18.3968 35.39447,20.7166 7.34656,1.16488 7.31347,1.1649 14.91354,-0.008 z m -17.34133,-22.82206 c -10.44838,-3.63571 -17.01908,-10.27035 -20.58617,-20.78647 -2.85577,-8.41911 -1.90588,-15.02849 3.53865,-24.62195 3.60421,-6.35073 10.91858,-16.25069 18.47776,-25.00956 2.50341,-2.90074 5.29096,-6.13245 6.19455,-7.1816 0.90359,-1.04915 1.97677,-1.90541 2.38486,-1.9028 0.66628,0.004 4.80927,4.357 10.55908,11.0937 2.47316,2.89765 10.12249,12.9896 13.15259,17.35253 2.68998,3.8732 6.12091,10.46982 7.52554,14.46932 2.99247,8.52063 -0.66103,21.09677 -8.3677,28.80344 -8.51614,8.51614 -21.76204,11.65181 -32.87916,7.78339 z M 488.63293,508.6234 c -1.14452,-0.41212 -2.81294,-1.4119 -3.70758,-2.22173 -3.68591,-3.3365 -3.57578,-1.7638 -3.57578,-51.06183 0,-43.6428 0.0631,-45.96697 1.31572,-48.4222 3.2808,-6.4309 12.19781,-7.52844 17.17357,-2.11378 3.01404,3.2799 3.10098,4.84796 2.87856,51.91648 -0.20467,43.31213 -0.25572,44.81413 -1.59873,47.04291 -2.52887,4.19674 -8.19879,6.40379 -12.48576,4.86015 z m -39.72153,-53.46378 0.1833,-21.67666 h 4.85557 4.85558 l 0.18329,21.67666 0.1833,21.67666 h -5.22217 -5.22216 z m 75.90711,21.21422 c -0.25434,-0.25433 -0.46244,-9.8974 -0.46244,-21.42903 0,-18.47891 0.13019,-21.01656 1.09722,-21.38764 0.60346,-0.23158 27.44784,-0.42104 59.65417,-0.42104 h 58.55696 v 21.85008 21.85007 h -59.19174 c -32.55546,0 -59.39984,-0.2081 -59.65417,-0.46244 z M 186.20016,281.21671 c -3.0453,-0.65231 -5.08514,-2.10553 -6.80253,-4.8462 l -1.52132,-2.42778 v -46.59731 c 0,-46.19347 0.0126,-46.61429 1.45109,-48.55573 3.86349,-5.21424 10.15035,-6.6403 14.93644,-3.38807 4.96341,3.37272 4.7689,1.23635 4.7689,52.37904 0,50.36773 0.17086,48.27926 -4.20451,51.39479 -2.6242,1.8686 -5.86013,2.63416 -8.62807,2.04126 z M 36.717891,227.46796 v -21.85782 l 59.48076,0.17729 59.480759,0.17729 v 21.50324 21.50325 l -59.480759,0.17729 -59.48076,0.17729 z m 184.675229,0.20401 0.18334,-21.70725 h 4.85557 4.85557 v 21.50324 21.50325 l -5.03891,0.20401 -5.03891,0.204 z m -43.39974,-119.6265 c -0.25514,-0.25515 -0.4639,-14.92657 -0.4639,-32.603166 V 43.30304 h 162.66854 162.66852 l -0.18027,32.428286 -0.18027,32.428294 -162.02436,0.17487 c -89.1134,0.0962 -162.23312,-0.0339 -162.48826,-0.28902 z m 64.58407,-43.048042 c 0.18999,-10.483847 0.17993,-10.563283 -1.38731,-10.946019 -0.86828,-0.212044 -10.63087,-0.298056 -21.69464,-0.191139 l -20.11593,0.194394 -0.19332,10.026074 c -0.10633,5.51434 -0.0363,10.435129 0.15549,10.935088 0.27933,0.727907 4.60203,0.872462 21.69657,0.72555 l 21.34776,-0.183463 z m 43.00614,-0.01773 -0.19103,-10.925038 h -10.4048 -10.40479 l -0.19103,10.925038 -0.19103,10.925037 h 10.78685 10.78686 z"
       id="path38036" /></g></svg>
