<?xml version="1.0" encoding="iso-8859-1"?>
<!-- Generator: Adobe Illustrator 24.1.0, SVG Export Plug-In . SVG Version: 6.00 Build 0)  -->
<svg version="1.1" id="Capa_1" xmlns="http://www.w3.org/2000/svg" xmlns:xlink="http://www.w3.org/1999/xlink" x="0px" y="0px"
	 viewBox="0 0 512 512" style="enable-background:new 0 0 512 512;" xml:space="preserve">
<g>
	<path style="fill:#B6B1B7;" d="M462.452,262.725l-33.621,34.672c-3.177,3.274-3.097,8.504,0.177,11.677
		c1.605,1.556,3.677,2.331,5.75,2.331c2.153,0,4.306-0.839,5.927-2.508l5.25-5.409L462.452,262.725z"/>
	<path style="fill:#FFE07D;" d="M503.742,204.387L410.434,53.244c-4.802-7.754-14.984-10.149-22.738-5.351
		c-7.758,4.802-10.149,14.984-5.351,22.738l73.138,118.133"/>
	<path style="fill:#FFD064;" d="M412.636,96.7c-4.358-7.556-13.852-10.401-21.646-6.486L263.905,154.04
		c-8.129,4.082-14.214,11.336-16.821,20.05l-15.858,53.006l49.548,16.516v-47.862c0-6.118,3.382-11.734,8.788-14.597l116.516-61.685
		C414.319,115.106,417.294,104.777,412.636,96.7z"/>
	<rect x="165.161" y="342.71" style="fill:#4B3F4E;" width="82.581" height="66.065"/>
	<path style="fill:#5D5360;" d="M346.839,466.581H66.064c-22.804,0-41.29-18.486-41.29-41.29v0c0-22.804,18.486-41.29,41.29-41.29
		h280.774c22.804,0,41.29,18.486,41.29,41.29v0C388.129,448.094,369.643,466.581,346.839,466.581z"/>
	<rect x="66.065" y="400.516" style="fill:#6F6571;" width="280.774" height="49.548"/>
	<circle style="fill:#857E87;" cx="165.161" cy="408.774" r="16.516"/>
	<circle style="fill:#857E87;" cx="247.742" cy="408.774" r="16.516"/>
	<path style="fill:#FFE07D;" d="M181.677,235.355v49.548c0,4.561-3.697,8.258-8.258,8.258H17.611c-4.561,0-8.258,3.697-8.258,8.258
		V351h278.582l7.29-8.29l-2.065-16.516L273.333,281l9.505-37.387l-1.16-9.283c-0.517-4.133-4.03-7.234-8.194-7.234h-83.549
		C185.375,227.097,181.677,230.794,181.677,235.355z"/>
	<path style="fill:#785353;" d="M41.29,334.452h-8.258c-4.565,0-8.258-3.698-8.258-8.258s3.694-8.258,8.258-8.258h8.258
		c4.565,0,8.258,3.698,8.258,8.258S45.855,334.452,41.29,334.452z"/>
	<path style="fill:#785353;" d="M82.581,334.452h-8.258c-4.565,0-8.258-3.698-8.258-8.258s3.694-8.258,8.258-8.258h8.258
		c4.565,0,8.258,3.698,8.258,8.258S87.145,334.452,82.581,334.452z"/>
	<path style="fill:#857E87;" d="M490.919,197.052l-34.723-8.681c-5.213-1.303-10.261,2.639-10.261,8.012v107.105l58.214-60.037
		c5.035-5.192,7.851-12.141,7.851-19.373v-0.026C512,211.281,503.308,200.15,490.919,197.052z"/>
	<path style="fill:#8BB3EA;" d="M282.839,243.613h-51.613l-8.484,68.462c0,4.561,3.697,8.258,8.258,8.258l60.097-10.656
		L282.839,243.613z"/>
	<path style="fill:#739AD6;" d="M256,309.677c-13.682,0-24.774-11.092-24.774-24.774v-41.29h-8.258
		c-4.561,0-8.258,3.697-8.258,8.258v66.065c0,4.561,3.697,8.258,8.258,8.258h70.194l-2.065-16.516H256z"/>
	<path style="fill:#FFD064;" d="M34.128,342.71c-9.122,0-16.516-7.395-16.516-16.516v-33.032H8.258
		c-4.561,0-8.258,3.697-8.258,8.258v49.548c0,4.561,3.697,8.258,8.258,8.258h279.677c4.967,0,8.811-4.354,8.195-9.283l-0.904-7.234
		H34.128z"/>
	<circle style="fill:#857E87;" cx="66.065" cy="425.29" r="24.774"/>
	<circle style="fill:#857E87;" cx="346.839" cy="425.29" r="24.774"/>
	<circle style="fill:#B6B1B7;" cx="66.065" cy="425.29" r="8.258"/>
	<circle style="fill:#B6B1B7;" cx="346.839" cy="425.29" r="8.258"/>
</g>
<g>
</g>
<g>
</g>
<g>
</g>
<g>
</g>
<g>
</g>
<g>
</g>
<g>
</g>
<g>
</g>
<g>
</g>
<g>
</g>
<g>
</g>
<g>
</g>
<g>
</g>
<g>
</g>
<g>
</g>
</svg>
