<svg id="Capa_1" enable-background="new 0 0 512 512" height="512" viewBox="0 0 512 512" width="512" xmlns="http://www.w3.org/2000/svg"><g><g id="Page-1_15_"><g id="_x30_16---Pump-Maintanence"><path id="Rectangle-path_19_" d="m91.429 0h109.714c5.049 0 9.143 4.093 9.143 9.143v9.143c0 5.049-4.093 9.143-9.143 9.143h-109.714c-5.049 0-9.143-4.093-9.143-9.143v-9.143c0-5.05 4.093-9.143 9.143-9.143z"/><circle id="Oval_1_" cx="265.143" cy="256" r="9.143"/><path id="Shape_314_" d="m265.143 438.857c-15.431-.061-30.793-2.082-45.714-6.016v33.445h91.429v-33.445c-14.923 3.934-30.284 5.955-45.715 6.016z"/><path id="Shape_313_" d="m338.286 502.857v-9.143c0-5.049-4.093-9.143-9.143-9.143h-128c-5.049 0-9.143 4.093-9.143 9.143v9.143c0 5.049 4.093 9.143 9.143 9.143h128c5.049 0 9.143-4.093 9.143-9.143z"/><path id="Shape_312_" d="m265.143 192.091c-35.284.05-63.851 28.686-63.817 63.969.034 35.284 28.655 63.864 63.939 63.848s63.878-28.625 63.878-63.909c-.051-35.31-28.69-63.908-64-63.908zm0 91.338c-15.148 0-27.429-12.28-27.429-27.429 0-15.148 12.28-27.429 27.429-27.429 15.148 0 27.429 12.28 27.429 27.429-.001 15.148-12.281 27.429-27.429 27.429z"/><path id="Shape_311_" d="m265.143 91.429c-41.844.004-82.107 15.982-112.567 44.672-2.358 2.315-5.781 3.178-8.955 2.257s-5.603-3.483-6.355-6.701.292-6.591 2.729-8.823c15.212-14.326 32.812-25.883 52.005-34.149v-42.971h-91.429v210.286c0 90.89 73.681 164.571 164.571 164.571s164.572-73.681 164.572-164.571-73.681-164.571-164.571-164.571zm127.287 218.98-16.457 28.489c-3.108 5.435-8.793 8.889-15.049 9.143l-18.331.795-35.712 20.535-9.838 15.451c-3.347 5.283-9.17 8.48-15.424 8.466h-32.933c-6.252.014-12.074-3.179-15.424-8.457l-9.856-15.461-35.657-20.581-18.331-.795c-6.256-.254-11.941-3.708-15.049-9.143l-16.457-28.48c-3.144-5.415-3.285-12.065-.375-17.609l8.475-16.229v-41.143l-8.475-16.229c-2.91-5.541-2.769-12.188.375-17.6l16.457-28.489c3.108-5.435 8.793-8.889 15.049-9.143l18.331-.795 35.657-20.581 9.838-15.451c3.347-5.283 9.17-8.48 15.424-8.466h32.914c6.252-.014 12.074 3.179 15.424 8.457l9.874 15.534 35.703 20.581 18.331.795c6.256.254 11.941 3.708 15.049 9.143l16.457 28.48c3.144 5.415 3.285 12.065.375 17.609l-8.475 16.229v41.143l8.475 16.229c2.904 5.532 2.765 12.167-.365 17.573z"/><path id="Shape_310_" d="m367.077 228.946 9.509-18.222-16.457-28.471-20.562-.914c-1.468-.059-2.899-.477-4.169-1.216l-39.589-22.857c-1.273-.738-2.351-1.77-3.145-3.008l-11.045-17.371h-32.933l-11.045 17.371c-.794 1.238-1.873 2.27-3.145 3.008l-39.589 22.857c-1.27.739-2.701 1.157-4.169 1.216l-20.562.914-16.457 28.48 9.509 18.213c.678 1.308 1.032 2.76 1.033 4.233v45.678c-.001 1.473-.355 2.925-1.033 4.233l-9.509 18.222 16.457 28.471 20.562.914c1.468.059 2.899.477 4.169 1.216l39.589 22.857c1.273.738 2.351 1.77 3.145 3.008l11.045 17.371h32.914l11.045-17.371c.794-1.238 1.872-2.27 3.145-3.008l39.589-22.857c1.27-.739 2.701-1.157 4.169-1.216l20.562-.914 16.457-28.48-9.509-18.213c-.678-1.308-1.032-2.76-1.033-4.233v-45.714c.013-1.463.373-2.901 1.052-4.197zm-101.934 109.248c-45.383-.051-82.137-36.872-82.103-82.255s36.842-82.15 82.225-82.133 82.164 36.811 82.164 82.194c-.076 45.399-36.887 82.169-82.286 82.194z"/></g></g></g></svg>