<?xml version="1.0" encoding="iso-8859-1"?>
<!-- Generator: Adobe Illustrator 24.1.0, SVG Export Plug-In . SVG Version: 6.00 Build 0)  -->
<svg version="1.1" id="Capa_1" xmlns="http://www.w3.org/2000/svg" xmlns:xlink="http://www.w3.org/1999/xlink" x="0px" y="0px"
	 viewBox="0 0 512 512" style="enable-background:new 0 0 512 512;" xml:space="preserve">
<g>
	<path style="fill:#C3DDFF;" d="M511.94,272.516L506.388,256c-3.233-4.833-7.735-8.798-13.214-11.343
		c-46.7-21.689-121.562-21.689-121.562-21.689l-64.464-41.022c-17.225-10.962-37.219-16.784-57.636-16.784h-73.575
		c-17.948,0-35.649,4.179-51.703,12.205l-39.192,19.596c-12.561,6.28-26.098,10.379-40.032,12.121l-28.494,3.562L4.5,229.29v41.836
		c0,10.94,2.676,20.585,13.155,23.729l64.925,19.478h412.903L512,305.549l0-31.035C512,273.845,511.98,273.178,511.94,272.516z"/>
	<path style="fill:#A4CCFF;" d="M493.58,305.548c-7.708,0-14.341-5.352-16.05-12.868c-5.85-25.732-28.866-44.938-56.369-44.938
		c-27.502,0-50.519,19.206-56.369,44.938c-1.709,7.517-8.342,12.868-16.05,12.868H171.516c-7.708,0-14.341-5.352-16.05-12.868
		c-5.85-25.732-28.866-44.938-56.369-44.938c-22.714,0-42.298,13.124-51.719,32.191c-3.561,7.206-11.772,10.795-19.471,8.485h0
		c-6.761-2.028-11.391-8.251-11.391-15.31v-60.464l-2.049,0.256C6.202,213.934,0,220.96,0,229.289v1.937L6.75,243.5L0,256v22.857
		c0,10.94,7.176,20.586,17.655,23.729l64.925,19.478h412.903c9.122,0,16.516-7.395,16.516-16.516H493.58z"/>
	<path style="fill:#8BB3EA;" d="M328.887,215.355l-30.605-19.477c-14.575-9.275-31.493-14.201-48.769-14.201h-18.288l-8.808,5.406
		l-7.708-5.406h-38.772c-8.479,0-16.893,1.088-25.042,3.216l-18.466,6.846c-0.27,0.132-0.54,0.265-0.809,0.4l-18.286,9.143
		c-3.656,1.828-4.447,6.701-1.557,9.592c1.79,1.79,3.727,3.398,5.782,4.813l197.336,7.28h11.774
		C330.801,222.968,332.372,217.573,328.887,215.355z"/>
	<path style="fill:#739AD6;" d="M249.512,198.194h-73.575c-15.385,0-30.557,3.582-44.317,10.462l-14.06,7.032
		c2.671,1.836,5.545,3.348,8.558,4.51l16.309,2.77h72.283l8.416-6.468l8.1,6.468h83.671l-16.614-10.573
		C283.706,203.12,266.788,198.194,249.512,198.194z"/>
	<path style="fill:#DBEAFF;" d="M338.58,289.032H181.677c-4.564,0-8.258-3.698-8.258-8.258c0-4.56,3.694-8.258,8.258-8.258H338.58
		c4.564,0,8.258,3.698,8.258,8.258C346.838,285.335,343.145,289.032,338.58,289.032z"/>
	<circle style="fill:#5D5360;" cx="99.097" cy="305.548" r="41.29"/>
	<circle style="fill:#DAD8DB;" cx="99.097" cy="305.548" r="24.774"/>
	<circle style="fill:#ECEAEC;" cx="99.097" cy="305.548" r="8.258"/>
	<circle style="fill:#5D5360;" cx="421.161" cy="305.548" r="41.29"/>
	<circle style="fill:#DAD8DB;" cx="421.161" cy="305.548" r="24.774"/>
	<circle style="fill:#ECEAEC;" cx="421.161" cy="305.548" r="8.258"/>
	<path style="fill:#5A82C3;" d="M132.429,191.74l-6.311,28.458c4.699,1.814,9.723,2.77,14.856,2.77h1.453l8.469-38.074
		C144.563,186.552,138.345,188.847,132.429,191.74z"/>
	<rect x="214.709" y="181.677" style="fill:#5A82C3;" width="16.516" height="41.29"/>
	<path style="fill:#FFF0AF;" d="M511.935,272.516c-0.36-5.994-2.302-11.679-5.547-16.516h-10.905c-4.561,0-8.258,3.697-8.258,8.258
		c0,4.56,3.697,8.258,8.258,8.258H511.935z"/>
	<path style="fill:#FF8086;" d="M0,256h16.516c4.561,0,8.258-3.697,8.258-8.258v-8.258c0-4.561-3.697-8.258-8.258-8.258H0V256z"/>
</g>
<g>
</g>
<g>
</g>
<g>
</g>
<g>
</g>
<g>
</g>
<g>
</g>
<g>
</g>
<g>
</g>
<g>
</g>
<g>
</g>
<g>
</g>
<g>
</g>
<g>
</g>
<g>
</g>
<g>
</g>
</svg>
