<svg height="512" viewBox="0 0 64 64" width="512" xmlns="http://www.w3.org/2000/svg"><g id="Layer_17" data-name="Layer 17"><path d="m3 22h4v20h-4z"/><circle cx="5" cy="15" r="2"/><circle cx="14" cy="23" r="2"/><circle cx="14" cy="41" r="2"/><circle cx="5" cy="49" r="2"/><path d="m57 22h4v20h-4z"/><path d="m53 3v2a1 1 0 0 1 -1 1h-13v52h13a1 1 0 0 1 1 1v2h8v-5h-17a1 1 0 0 1 -1-1v-46a1 1 0 0 1 1-1h17v-5z"/><path d="m27 3v7.573l5.3-7.573z"/><path d="m11 5v-2h-8v5h17a1 1 0 0 1 1 1v46a1 1 0 0 1 -1 1h-17v5h8v-2a1 1 0 0 1 1-1h13v-52h-13a1 1 0 0 1 -1-1z"/><path d="m31 12h-4v49h10v-50.571l-6 8.571zm1 39a2 2 0 1 1 2-2 2 2 0 0 1 -2 2zm0-8a2 2 0 1 1 2-2 2 2 0 0 1 -2 2zm0-8a2 2 0 1 1 2-2 2 2 0 0 1 -2 2zm0-12a2 2 0 1 1 -2 2 2 2 0 0 1 2-2z"/><path d="m33 3h4v6h-4z"/><circle cx="59" cy="15" r="2"/><circle cx="50" cy="23" r="2"/><circle cx="50" cy="41" r="2"/><circle cx="59" cy="49" r="2"/></g></svg>