<svg id="Layer_1" enable-background="new 0 0 463.998 463.998" height="512" viewBox="0 0 463.998 463.998" width="512" xmlns="http://www.w3.org/2000/svg"><path d="m389.949 252.219h-86.8c-4.418 0-8-3.582-8-8s3.582-8 8-8h86.8c4.418 0 8 3.582 8 8s-3.582 8-8 8z" fill="#b5d5f5"/><path d="m364.547 309.87h-35.903l5.375-98.181c.88-15.79 24.18-15.77 25.06 0z" fill="#585966"/><path d="m356.969 205.099c-5.08.96-9.572 4.83-9.95 11.59l-4.22 76.05h-13.28l4.5-81.05c.731-13.15 17.01-15.33 22.95-6.59z" fill="#6e6f80"/><path d="m395.059 308.739v44.84h-97.03v-44.84c0-8.84 7.17-16 16-16h65.03c8.84 0 16 7.16 16 16z" fill="#cbe3fa"/><path d="m394.779 305.739h-58.75c-8.83 0-16 7.16-16 16v11.84h-22v-24.84c0-8.84 7.17-16 16-16h65.03c7.82 0 14.32 5.6 15.72 13z" fill="#eef7ff"/><path d="m208.349 34.929h-48.11v-10.26c0-4.418-3.582-8-8-8s-8 3.582-8 8v10.26h-48.11c-4.418 0-8 3.582-8 8s3.582 8 8 8h6.501l34.569 117.042c1.749 5.923 9.252 7.679 13.464 3.244.604 2.757 2.651 5.11 5.549 5.966 4.228 1.247 8.684-1.158 9.939-5.406l35.697-120.847h6.501c4.418 0 8-3.582 8-8s-3.581-7.999-8-7.999zm-56.112 127.471-32.924-111.47h24.926v37.425c0 4.418 3.582 8 8 8s8-3.582 8-8v-37.426h24.925z" fill="#cbe3fa"/><path d="m181.644 217.257-58.839 2.71 11.704-127.728c.66-7.21 6.7-12.72 13.94-12.72h7.59c7.23 0 13.27 5.51 13.94 12.72z" fill="#585966"/><path d="m169.449 89.519h-4c-7.24 0-13.278 5.51-13.94 12.72l-7.91 85.79h-17.92l8.83-95.79c.662-7.21 6.7-12.72 13.94-12.72h7.59c6.29 0 11.67 4.17 13.41 10z" fill="#6e6f80"/><path d="m215.999 237.579h-7.65v-33.55c0-8.84-7.16-16-16-16h-80.22c-8.84 0-16 7.16-16 16v33.55h-7.65c-8.83 0-16 7.16-16 16v34.38c-2.71 80.25 89.2 84.43 159.52 45.62v-80c0-8.84-7.16-16-16-16z" fill="#cbe3fa"/><path d="m231.999 253.579v1h-113.52c-8.83 0-16 7.16-16 16v17.38h-30v-34.38c0-8.84 7.17-16 16-16h127.52c8.84 0 16 7.16 16 16z" fill="#eef7ff"/><path d="m208.319 203.029h-66.19c-8.84 0-16 7.16-16 16v18.55h-30v-33.55c0-8.84 7.16-16 16-16h80.22c8.5 0 15.45 6.62 15.97 15z" fill="#eef7ff"/><path d="m231.999 277.579v16h-39.26c-10.588 0-10.585-16 0-16z" fill="#b5d5f5"/><path d="m449.149 333.579h-271.47l-15.71-27.34c-6.5-11.31-18.55-18.28-31.59-18.28h-115.49c-12.32 0-19.31 14.16-11.77 23.9 25.46 32.87 43.72 72.03 52.18 115.94 2.17 11.3 11.97 19.53 23.48 19.53h335.27c11.49 0 21.39-8.14 23.56-19.42 4.99-26 13.42-50.33 24.75-72.68 5.02-9.92-2.09-21.65-13.21-21.65z" fill="#80aaff"/><path d="m463.399 352.579h-260.223c-12.493 0-12.44-19 0-19h245.973c10.14 0 16.95 9.76 14.25 19z" fill="#9cbcff"/><path d="m105.299 446.799c.03.18.07.36.11.53h-26.63c-11.51 0-21.31-8.23-23.48-19.53-8.46-43.91-26.72-83.07-52.18-115.94-7.54-9.74-.55-23.9 11.77-23.9 123.882 0 115.895-.016 117.053.033 12.251.518 11.66 18.967-.602 18.967h-66.451c-12.32 0-19.31 14.16-11.77 23.9 25.46 32.87 43.72 72.03 52.18 115.94z" fill="#9cbcff"/><g fill="#719efa"><circle cx="389.949" cy="396.359" r="8"/><circle cx="329.949" cy="396.359" r="8"/><circle cx="269.949" cy="396.359" r="8"/><circle cx="209.949" cy="396.359" r="8"/><path d="m153.267 392.581c-3.622 6.76-10.283 11.577-18.268 13.521v-24.653h3.81c10.576 0 10.592-16 0-16h-3.81v-11.94c0-10.576-16-10.592-16 0v11.94h-3.81c-10.576 0-10.592 16 0 16h3.81v24.665c-7.99-1.934-14.655-6.753-18.274-13.526-4.986-9.327-19.104-1.8-14.111 7.542 16.38 30.649 64.428 30.487 80.757.007 4.994-9.322-9.1-16.891-14.104-7.556z"/></g></svg>