<svg height="480pt" viewBox="0 -69 480 480" width="480pt" xmlns="http://www.w3.org/2000/svg"><path d="m48 191.992188-24-48 424-40c-13.921875 41.761718-72.359375 79.488281-116.078125 81.097656" fill="#0378a3"/><path d="m78.574219 138.839844 24.9375-49.878906 74.953125 40.464843zm0 0" fill="#f29200"/><path d="m324.503906 51.367188-43.75-32.796876-19.097656 19.09375-11.3125-11.3125 24-24c2.8125-2.820312 7.265625-3.144531 10.457031-.757812l49.304688 36.976562zm0 0" fill="#999"/><path d="m0 184.222656c18.007812.027344 35.285156-7.128906 48-19.878906 26.507812 26.511719 69.492188 26.511719 96 0 26.507812 26.511719 69.492188 26.511719 96 0 26.507812 26.511719 69.492188 26.511719 96 0 26.507812 26.511719 69.492188 26.511719 96 0 12.714844 12.75 29.992188 19.90625 48 19.878906v158.019532h-480zm0 0" fill="#d0ecf4"/><path d="m0 236.113281c18.007812.023438 35.285156-7.136719 48-19.890625 26.507812 26.511719 69.492188 26.511719 96 0 26.507812 26.511719 69.492188 26.511719 96 0 26.507812 26.511719 69.492188 26.511719 96 0 26.507812 26.511719 69.492188 26.511719 96 0 12.714844 12.753906 29.992188 19.914063 48 19.890625v106.128907h-480zm0 0" fill="#92d7e7"/><path d="m0 287.992188c18.007812.027343 35.285156-7.128907 48-19.878907 26.511719 26.5 69.488281 26.5 96 0 26.511719 26.5 69.488281 26.5 96 0 26.511719 26.5 69.488281 26.5 96 0 26.511719 26.5 69.488281 26.5 96 0 12.714844 12.75 29.992188 19.90625 48 19.878907v54.25h-480zm0 0" fill="#00bbd6"/><path d="m183.40625 79.015625-103.40625-31.023437c-4.746094-.003907-9.109375 2.605468-11.347656 6.792968-2.234375 4.1875-1.984375 9.265625.660156 13.207032l2.6875 4 104 56 2.464844 1.433593 79.847656-54.546875c-23.640625 10.417969-50.261719 11.886719-74.90625 4.136719zm0 0" fill="#29485a"/><path d="m345.777344 40.792969c-14.519532-9.074219-33.253906-7.617188-46.191406 3.589843l-14.945313 12.9375c-7.8125 7.195313-16.695313 13.132813-26.328125 17.601563l-79.847656 54.542969 269.535156-25.472656zm0 0" fill="#ccc"/></svg>